<?xml version="1.0" encoding="UTF-8"?>
<svg width="21px" height="21px" viewBox="0 0 21 21" version="1.1" xmlns="http://www.w3.org/2000/svg" xmlns:xlink="http://www.w3.org/1999/xlink">
    <!-- Generator: Sketch 46.1 (44463) - http://www.bohemiancoding.com/sketch -->
    <title>about_icon</title>
    <desc>Created with Sketch.</desc>
    <defs></defs>
    <g id="my_order" stroke="none" stroke-width="1" fill="none" fill-rule="evenodd">
        <g id="00-icon" transform="translate(-35.000000, -383.000000)">
            <g id="about_icon" transform="translate(35.000000, 383.000000)">
                <rect id="Rectangle-2" fill="#FFFFFF" x="0" y="0" width="21" height="21"></rect>
                <g id="大图标/关于" transform="translate(3.000000, 3.000000)">
                    <path d="M15.44,8.09185185 C15.44,3.89091556 12.1090844,0.56 7.90814815,0.56 C3.89091556,0.56 0.56,3.89091556 0.56,8.09185185 C0.56,12.1090844 3.89091556,15.44 7.90814815,15.44 C12.1090844,15.44 15.44,12.1090844 15.44,8.09185185 Z" id="Fill-3" fill="#FF7819"></path>
                    <path d="M7.59612849,4.63603124 L7.59612849,4.63603124 C7.59828203,4.5492385 7.66925981,4.48 7.75607926,4.48 L7.75607926,4.48 L8.24392074,4.48 C8.33074019,4.48 8.40171797,4.5492385 8.40387151,4.63603124 L8.40387151,4.63603124 L8.52926488,9.68968978 C8.52929769,9.69101244 8.52931411,9.69233546 8.52931411,9.69365854 C8.52931411,9.7820241 8.45767967,9.85365854 8.36931411,9.85365854 L8.36931411,9.85365854 L7.63068589,9.85365854 C7.62936282,9.85365854 7.6280398,9.85364213 7.62671713,9.85360931 C7.53837876,9.85141742 7.46854324,9.77802815 7.47073512,9.68968978 L7.47073512,9.68968978 L7.59612849,4.63603124 Z M8,11.84 C7.64653776,11.84 7.36,11.5534622 7.36,11.2 C7.36,10.8465378 7.64653776,10.56 8,10.56 C8.35346224,10.56 8.64,10.8465378 8.64,11.2 C8.64,11.5534622 8.35346224,11.84 8,11.84 Z" id="Path-6" fill="#FFFFFF" transform="translate(8.000000, 8.160000) scale(1, -1) translate(-8.000000, -8.160000) "></path>
                </g>
            </g>
        </g>
    </g>
</svg>