<?xml version="1.0" encoding="UTF-8"?>
<svg width="21px" height="21px" viewBox="0 0 21 21" version="1.1" xmlns="http://www.w3.org/2000/svg" xmlns:xlink="http://www.w3.org/1999/xlink">
    <!-- Generator: Sketch 46.1 (44463) - http://www.bohemiancoding.com/sketch -->
    <title>address_icon</title>
    <desc>Created with Sketch.</desc>
    <defs></defs>
    <g id="my_order" stroke="none" stroke-width="1" fill="none" fill-rule="evenodd">
        <g id="00-icon" transform="translate(-35.000000, -329.000000)">
            <g id="address_icon" transform="translate(35.000000, 329.000000)">
                <rect id="Rectangle-2" fill="#FFFFFF" x="0" y="0" width="21" height="21"></rect>
                <g id="地址簿" transform="translate(3.000000, 3.000000)" fill-rule="nonzero" fill="#4A90E2">
                    <path d="M6.94243591,6.18400584 C6.94243591,6.85699568 7.48800198,7.40256175 8.16099182,7.40256175 C8.83398167,7.40256175 9.37954773,6.85699568 9.37954773,6.18400584 C9.37954773,5.51101599 8.83398167,4.96544993 8.16099182,4.96544993 C7.48800198,4.96544993 6.94243591,5.51101599 6.94243591,6.18400584 L6.94243591,6.18400584 Z" id="Shape"></path>
                    <path d="M13.0315546,0 L3.2865289,0 C2.38673726,0 1.66005,0.727045539 1.66005,1.62389926 L1.66005,2.84331505 L0.617787182,2.84331505 C0.27741844,2.84331505 0,3.12089472 0,3.46328775 C0,3.80808128 0.276594391,4.08326046 0.617787182,4.08326046 L1.66005,4.08326046 L1.66005,5.28042689 L0.617787182,5.28042689 C0.27741844,5.28042689 0,5.55800656 0,5.90039959 C0,6.24519311 0.276594391,6.52037229 0.617787182,6.52037229 L1.66005,6.52037229 L1.66005,7.71753872 L0.617787182,7.71753872 C0.27741844,7.71753872 0,7.99511839 0,8.33751142 C0,8.68230495 0.276594391,8.95748412 0.617787182,8.95748412 L1.66005,8.95748412 L1.66005,10.1546506 L0.617787182,10.1546506 C0.27741844,10.1546506 0,10.4322302 0,10.7746233 C0,11.1194168 0.276594391,11.394596 0.617787182,11.394596 L1.66005,11.394596 L1.66005,12.5926223 C1.66005,13.491966 2.38824205,14.2165215 3.2865289,14.2165215 L13.0315546,14.2165215 C13.9313462,14.2165215 14.6580335,13.4894759 14.6580335,12.5926222 L14.6580335,1.62389926 C14.6580335,0.724555482 13.9298235,0 13.0315546,0 Z M8.1590328,10.6353407 C7.65426595,10.6353407 5.72190306,8.10292568 5.72190306,6.16728449 C5.72190306,4.23164331 6.98230642,3.58121657 8.1590328,3.58121657 C9.33575918,3.58121657 10.5961625,4.19296667 10.5961625,6.16728449 C10.5961625,8.14160232 8.66379964,10.6353407 8.1590328,10.6353407 Z" id="Shape"></path>
                </g>
            </g>
        </g>
    </g>
</svg>