<?xml version="1.0" encoding="UTF-8"?>
<svg width="24px" height="24px" viewBox="0 0 24 24" version="1.1" xmlns="http://www.w3.org/2000/svg" xmlns:xlink="http://www.w3.org/1999/xlink">
    <!-- Generator: Sketch 46.1 (44463) - http://www.bohemiancoding.com/sketch -->
    <title>edite</title>
    <desc>Created with Sketch.</desc>
    <defs></defs>
    <g id="activity_1125" stroke="none" stroke-width="1" fill="none" fill-rule="evenodd" fill-opacity="0.152117301">
        <g id="ui" transform="translate(-238.000000, -251.000000)" fill="#000000">
            <path d="M257.904043,256.563992 L248.130609,266.277108 L245.553976,267.435554 L246.531319,264.940441 L256.393603,255.138213 C256.660151,254.781769 256.926699,255.227324 256.926699,255.227324 L257.815193,256.118436 C258.170591,256.38577 257.904043,256.563992 257.904043,256.563992 Z M244.665482,257.633326 C244.132386,257.633326 243.776988,257.98977 243.776988,258.524437 L243.776988,268.326665 C243.776988,268.861332 244.132386,269.217777 244.665482,269.217777 L254.438916,269.217777 C254.972012,269.217777 255.32741,268.861332 255.32741,268.326665 L255.32741,262.979995 L257.104398,261.197772 L257.104398,261.197772 L257.104398,270.019777 C257.104398,271 257.104398,271 256.127055,271 L242.977343,271 C242,271 242,271 242,270.019777 L242,256.831325 C242,256.296658 242,255.851103 242.977343,255.851103 L252.661928,255.851103 L250.88494,257.633326 L244.665482,257.633326 Z" id="edite"></path>
        </g>
    </g>
</svg>