<?xml version="1.0" encoding="UTF-8"?>
<svg width="21px" height="21px" viewBox="0 0 21 21" version="1.1" xmlns="http://www.w3.org/2000/svg" xmlns:xlink="http://www.w3.org/1999/xlink">
    <!-- Generator: Sketch 46.1 (44463) - http://www.bohemiancoding.com/sketch -->
    <title>order_icon</title>
    <desc>Created with Sketch.</desc>
    <defs>
        <polygon id="path-1" points="0.00120171674 0.0165281174 0.00120171674 15.9804597 13.9805122 15.9804597 13.9805122 0.0165281174"></polygon>
    </defs>
    <g id="my_order" stroke="none" stroke-width="1" fill="none" fill-rule="evenodd">
        <g id="00-icon" transform="translate(-35.000000, -284.000000)">
            <g id="order_icon" transform="translate(35.000000, 284.000000)">
                <rect id="Rectangle-2" fill="#FFFFFF" x="0" y="0" width="21" height="21"></rect>
                <g id="Group-4" transform="translate(3.000000, 2.000000)">
                    <mask id="mask-2" fill="white">
                        <use xlink:href="#path-1"></use>
                    </mask>
                    <g id="Clip-2"></g>
                    <path d="M11.8297997,0.0165281174 L5.3769814,0.0165281174 C4.49532189,0.0165281174 3.73846066,0.535158924 3.40642632,1.27675306 L11.8294793,1.27675306 C12.3044578,1.27675306 12.6897682,1.65306601 12.6897682,2.11690954 L12.6897682,12.1994328 C12.6897682,12.6636088 12.3044578,13.0395892 11.8294793,13.0395892 L11.1844177,13.0395892 L11.1844177,14.2998337 L11.8297997,14.2998337 C13.0176567,14.2998337 13.9805122,13.3592763 13.9805122,12.1994328 L13.9805122,2.11690954 C13.9805122,0.957085575 13.0176567,0.0165281174 11.8297997,0.0165281174 Z" id="Fill-1" fill="#43D138" mask="url(#mask-2)"></path>
                    <path d="M8.60353076,1.69684108 L2.15073247,1.69684108 C0.962855508,1.69684108 0,2.63739853 0,3.79753545 L0,13.8800587 C0,15.0401369 0.962855508,15.9804597 2.15073247,15.9804597 L8.60323033,15.9804597 C9.79116738,15.9804597 10.7539628,15.0401369 10.7539628,13.8800587 L10.7539628,3.79753545 C10.7542632,2.63739853 9.79116738,1.69684108 8.60353076,1.69684108 Z M9.46383977,13.8800587 C9.46383977,14.3441565 9.0785093,14.7202152 8.60353076,14.7202152 L2.15073247,14.7202152 C1.67575393,14.7202152 1.29044349,14.3439218 1.29044349,13.8800587 L1.29044349,3.79753545 C1.29044349,3.33337897 1.67575393,2.95737897 2.15073247,2.95737897 L8.60323033,2.95737897 C9.0785093,2.95737897 9.46351931,3.33369193 9.46351931,3.79753545 L9.46351931,13.8800587 L9.46383977,13.8800587 Z" id="Fill-3" fill="#43D138" mask="url(#mask-2)"></path>
                    <path d="M7.63544778,5.68805868 L3.11875536,5.68805868 C2.82185122,5.68805868 2.58118741,5.9230709 2.58118741,6.21304645 C2.58118741,6.50308068 2.82185122,6.73809291 3.11875536,6.73809291 L7.63544778,6.73809291 C7.93243205,6.73809291 8.17307582,6.50308068 8.17307582,6.21304645 C8.17307582,5.9230709 7.93243205,5.68805868 7.63544778,5.68805868 Z" id="Fill-5" fill="#43D138" mask="url(#mask-2)"></path>
                    <path d="M7.63544778,8.62861614 L3.11875536,8.62861614 C2.82185122,8.62861614 2.58118741,8.86362836 2.58118741,9.15366259 C2.58118741,9.44363814 2.82185122,9.67865037 3.11875536,9.67865037 L7.63544778,9.67865037 C7.93243205,9.67865037 8.17307582,9.44363814 8.17307582,9.15366259 C8.17307582,8.86386308 7.93243205,8.62861614 7.63544778,8.62861614 Z" id="Fill-6" fill="#43D138" mask="url(#mask-2)"></path>
                    <path d="M7.63544778,11.569467 L3.11875536,11.569467 C2.82185122,11.569467 2.58118741,11.8044205 2.58118741,12.0944548 C2.58118741,12.384489 2.82185122,12.6195208 3.11875536,12.6195208 L7.63544778,12.6195208 C7.93243205,12.6195208 8.17307582,12.384489 8.17307582,12.0944548 C8.17307582,11.8044205 7.93243205,11.569467 7.63544778,11.569467 Z" id="Fill-7" fill="#43D138" mask="url(#mask-2)"></path>
                </g>
            </g>
        </g>
    </g>
</svg>