<?xml version="1.0" encoding="UTF-8"?>
<svg width="21px" height="21px" viewBox="0 0 21 21" version="1.1" xmlns="http://www.w3.org/2000/svg" xmlns:xlink="http://www.w3.org/1999/xlink">
    <!-- Generator: Sketch 46.1 (44463) - http://www.bohemiancoding.com/sketch -->
    <title>wallet_icon</title>
    <desc>Created with Sketch.</desc>
    <defs>
        <polygon id="path-1" points="3.00134078 4.00690767 3.00134078 16.9773746 18.9970279 16.9773746 18.9970279 4.00690767"></polygon>
    </defs>
    <g id="my_order" stroke="none" stroke-width="1" fill="none" fill-rule="evenodd">
        <g id="00-icon" transform="translate(-35.000000, -240.000000)">
            <g id="wallet_icon" transform="translate(35.000000, 240.000000)">
                <rect id="Rectangle-2" fill="#FFFFFF" x="0" y="0" width="21" height="21"></rect>
                <mask id="mask-2" fill="white">
                    <use xlink:href="#path-1"></use>
                </mask>
                <g id="Clip-2"></g>
                <path d="M18.9970279,6.43883624 L18.9970279,8.06021254 L14.9978101,8.06021254 C13.672581,8.06021254 12.5982793,9.14899652 12.5982793,10.4921411 C12.5982793,11.8352857 13.672581,12.9240697 14.9978101,12.9240697 L18.9970279,12.9240697 L18.9970279,14.545446 C18.9970279,15.8885 17.9227486,16.9773746 16.5974972,16.9773746 L5.39953073,16.9773746 C4.07427933,16.9773746 3,15.8885906 3,14.545446 L3,6.43883624 C3,5.09571429 4.07427933,4.00690767 5.39953073,4.00690767 L16.5974972,4.00690767 C17.9227486,4.00690767 18.9970279,5.09571429 18.9970279,6.43883624 Z M13.7980112,10.4922317 C13.7980112,9.82067073 14.3351955,9.27623345 14.9978101,9.27623345 C15.6604469,9.27623345 16.1975419,9.82067073 16.1975419,10.4922317 C16.1975419,11.1637021 15.6604469,11.708162 14.9978101,11.708162 C14.3351955,11.708162 13.7980112,11.1637021 13.7980112,10.4922317 Z" id="wallet" fill="#FF7819" mask="url(#mask-2)"></path>
            </g>
        </g>
    </g>
</svg>