<?xml version="1.0" encoding="UTF-8"?>
<svg width="32px" height="32px" viewBox="0 0 32 32" version="1.1" xmlns="http://www.w3.org/2000/svg" xmlns:xlink="http://www.w3.org/1999/xlink">
    <!-- Generator: Sketch 46.1 (44463) - http://www.bohemiancoding.com/sketch -->
    <title>add_contact</title>
    <desc>Created with Sketch.</desc>
    <defs></defs>
    <g id="my_order" stroke="none" stroke-width="1" fill="none" fill-rule="evenodd">
        <g id="icon" transform="translate(-108.000000, -17.000000)" fill-rule="nonzero" fill="#FF9D4E">
            <g id="add_contact" transform="translate(109.000000, 17.000000)">
                <path d="M13.6430357,0.0211607143 C8.60008929,0.0211607143 4.49732143,4.12366071 4.49732143,9.16660714 C4.49732143,12.3586607 6.200625,15.3283929 8.90678571,16.9765179 C3.63321429,18.9420536 0.0265178571,24.0573214 0.0265178571,29.7342857 C0.0271084875,30.340272 0.518210109,30.8313737 1.12419643,30.8319643 C1.73012163,30.8312263 2.22113706,30.3402109 2.221875,29.7342857 C2.221875,23.4361607 7.34544643,18.3120536 13.6430357,18.3120536 C18.6859821,18.3120536 22.7890179,14.2095536 22.7890179,9.16633929 C22.7890179,4.123125 18.6859821,0.0211607143 13.6430357,0.0211607143 M20.5936607,9.16660714 C20.5936607,12.999375 17.4755357,16.1175 13.6430357,16.1175 C9.81080357,16.1175 6.69267857,12.999375 6.69267857,9.16660714 C6.69267857,5.33410714 9.81080357,2.21598214 13.6430357,2.21598214 C17.4755357,2.21571429 20.5936607,5.33410714 20.5936607,9.16660714 M23.3539286,31.4523214 C22.791547,31.4521736 22.3356836,30.9963102 22.3355357,30.4339286 L22.3355357,19.2310714 C22.3295706,18.8632502 22.5223856,18.5207877 22.8399711,18.3351335 C23.1575567,18.1494794 23.5505683,18.1494794 23.8681539,18.3351335 C24.1857394,18.5207877 24.3785544,18.8632502 24.3725893,19.2310714 L24.3725893,30.4336607 C24.3722937,30.996129 23.9163969,31.4520259 23.3539286,31.4523214" id="Shape"></path>
                <path d="M28.9553571,25.8508929 L17.7522321,25.8508929 C17.4821158,25.8509639 17.2230423,25.7436921 17.0320412,25.552691 C16.84104,25.3616899 16.7337682,25.1026164 16.7338393,24.8325 C16.7336971,24.5623372 16.8409376,24.3031949 17.0319464,24.1121358 C17.2229552,23.9210768 17.4820694,23.8137682 17.7522321,23.8138393 L28.9553571,23.8138393 C29.517874,23.8138393 29.9738839,24.2698493 29.9738839,24.8323661 C29.9738839,25.3948829 29.517874,25.8508929 28.9553571,25.8508929" id="Shape"></path>
            </g>
        </g>
    </g>
</svg>