<?xml version="1.0" encoding="UTF-8"?>
<svg width="45px" height="45px" viewBox="0 0 45 45" version="1.1" xmlns="http://www.w3.org/2000/svg" xmlns:xlink="http://www.w3.org/1999/xlink">
    <!-- Generator: Sketch 46.1 (44463) - http://www.bohemiancoding.com/sketch -->
    <title>adress_manage</title>
    <desc>Created with Sketch.</desc>
    <defs></defs>
    <g id="my_order" stroke="none" stroke-width="1" fill="none" fill-rule="evenodd">
        <g id="icon" transform="translate(-169.000000, -12.000000)" fill-rule="nonzero" fill="#FFFFFF">
            <g id="adress_manage" transform="translate(180.000000, 24.000000)">
                <path d="M9.49994611,21 C4.25346407,21 0,18.9253793 0,16.3665324 C0,14.7169845 1.77202821,13.2725883 4.43336207,12.4515963 L4.43336207,13.6920714 C2.50866617,14.313655 1.26665948,15.279184 1.26665948,16.3665324 C1.26665948,18.2434115 4.95261541,19.7644223 9.49994611,19.7644223 C14.0472858,19.7644223 17.7333675,18.2434115 17.7333675,16.3665324 C17.7333675,15.279184 16.4913698,14.313655 14.5666379,13.6920714 L14.5666379,12.4515963 C17.227864,13.2725883 19,14.7169845 19,16.3665324 C19,18.9253793 14.7465449,21 9.49994611,21 L9.49994611,21 Z M9.83314946,16.9806034 L9.49994611,17.29319 L9.17126919,16.984911 C8.92557651,16.7600414 3.16662177,11.3976066 3.16662177,6.17301664 C3.16662177,2.75166543 6.00651546,0 9.49994611,0 C12.9934935,0 15.8352463,2.78312666 15.8352463,6.2044522 C15.8352463,11.291941 10.0776297,16.7508364 9.83314946,16.9806034 L9.83314946,16.9806034 Z M9.49994611,1.2232445 C6.7089269,1.2232445 4.43336207,3.54732433 4.43336207,6.17301664 C4.43336207,9.91246727 8.35178169,14.3439112 9.49994611,15.4398492 C10.645039,14.3234755 14.5666379,9.81049392 14.5666379,6.17301664 C14.5666379,3.54732433 12.2910821,1.2232445 9.49994611,1.2232445 L9.49994611,1.2232445 Z M6.32317584,6.7901901 C6.32317584,5.08879651 7.74816102,3.70427158 9.4993444,3.70427158 C11.2517671,3.70427158 12.6774528,5.08879651 12.6774528,6.7901901 C12.6774528,8.4921991 11.2517671,9.87659588 9.4993444,9.87659588 C7.74816102,9.87659588 6.32317584,8.4921991 6.32317584,6.7901901 L6.32317584,6.7901901 Z M11.4000162,6.7901901 C11.4000162,5.7726616 10.5474876,4.94474661 9.4993444,4.94474661 C8.45180287,4.94474661 7.59998384,5.7726616 7.59998384,6.7901901 C7.59998384,7.80830835 8.45180287,8.63612075 9.4993444,8.63612075 C10.5474876,8.63612075 11.4000162,7.80830835 11.4000162,6.7901901 L11.4000162,6.7901901 Z" id="Shape"></path>
            </g>
        </g>
    </g>
</svg>