<?xml version="1.0" encoding="UTF-8"?>
<svg width="24px" height="24px" viewBox="0 0 24 24" version="1.1" xmlns="http://www.w3.org/2000/svg" xmlns:xlink="http://www.w3.org/1999/xlink">
    <!-- Generator: Sketch 43 (38999) - http://www.bohemiancoding.com/sketch -->
    <title>contact@1.5x</title>
    <desc>Created with Sketch.</desc>
    <defs></defs>
    <g id="01_main" stroke="none" stroke-width="1" fill="none" fill-rule="evenodd">
        <g id="05_mine_0803-copy-2" transform="translate(-25.000000, -537.000000)" fill="#28D424">
            <g id="contact" transform="translate(27.000000, 540.000000)">
                <path d="M19.3712796,6.05255288 C18.2124319,2.47252709 14.6028846,0 10.5350657,0 C6.46724673,0 2.8576994,2.47252709 1.69885166,6.05255288 C0.721732322,6.17950415 -0.00913187513,6.96055671 8.62318635e-05,7.86614243 L8.62318635e-05,9.07520214 C-0.00913187513,9.98078785 0.721732322,10.7618404 1.69885166,10.8887917 C2.58642368,13.6236847 4.92255537,15.7685567 7.9013208,16.5834629 C8.0395924,17.4805852 8.89029199,18.1516133 9.87662944,18.1431499 L11.1935019,18.1431499 C12.2772879,18.1431499 13.1688105,17.3246165 13.1688105,16.3295604 C13.1688105,15.3345042 12.2772879,14.5159708 11.1935019,14.5159708 L9.87662944,14.5159708 C9.18658829,14.519598 8.54527142,14.8545075 8.19103273,15.3985844 C5.66790516,14.6961207 3.6886459,12.878904 2.92354302,10.5623456 C3.5214031,10.2624988 3.91119734,9.700286 3.95070352,9.07520214 L3.95070352,7.86614243 C3.9467529,7.23259515 3.58197924,6.64378307 2.98938664,6.31854601 C4.01259652,3.29226957 7.08354302,1.21631406 10.5350657,1.21631406 C13.9865883,1.21631406 17.0575348,3.29226957 18.0807447,6.31854601 C17.4881521,6.64378307 17.1233784,7.23259515 17.1194278,7.86614243 L17.1194278,9.07520214 C17.1194278,10.0702583 18.0109504,10.8887917 19.0947364,10.8887917 C20.1785224,10.8887917 21.0700451,10.0702583 21.0700451,9.07520214 L21.0700451,7.86614243 C21.0792632,6.96055671 20.348399,6.17950415 19.3712796,6.05255288 L19.3712796,6.05255288 Z M6.58444837,8.47067228 C6.58444837,9.13444606 7.17835784,9.67973199 7.9013208,9.67973199 C8.62428376,9.67973199 9.21819323,9.13444606 9.21819323,8.47067228 C9.21819323,7.80689851 8.62428376,7.26161258 7.9013208,7.26161258 C7.17835784,7.26161258 6.58444837,7.80689851 6.58444837,8.47067228 L6.58444837,8.47067228 Z M13.1688105,7.26161258 C12.4458475,7.26161258 11.8519381,7.80689851 11.8519381,8.47067228 C11.8519381,9.13444606 12.4458475,9.67973199 13.1688105,9.67973199 C13.8917735,9.67973199 14.4856829,9.13444606 14.4856829,8.47067228 C14.4856829,7.80689851 13.8917735,7.26161258 13.1688105,7.26161258 L13.1688105,7.26161258 Z" id="Shape"></path>
            </g>
        </g>
    </g>
</svg>