<?xml version="1.0" encoding="UTF-8"?>
<svg width="24px" height="25px" viewBox="0 0 24 25" version="1.1" xmlns="http://www.w3.org/2000/svg" xmlns:xlink="http://www.w3.org/1999/xlink">
    <!-- Generator: Sketch 43 (38999) - http://www.bohemiancoding.com/sketch -->
    <title>hot_20 copy@1.5x</title>
    <desc>Created with Sketch.</desc>
    <defs>
        <linearGradient x1="50%" y1="0%" x2="50%" y2="100%" id="linearGradient-1">
            <stop stop-color="#FBDA61" offset="0%"></stop>
            <stop stop-color="#F76B1C" offset="100%"></stop>
        </linearGradient>
    </defs>
    <g id="01_main" stroke="none" stroke-width="1" fill="none" fill-rule="evenodd">
        <g id="05_mine_0803-copy-2" transform="translate(-155.000000, -473.000000)" fill-rule="nonzero" fill="url(#linearGradient-1)">
            <g id="操作_波浪-copy" transform="translate(157.000000, 478.000000)">
                <path d="M16.4050395,7.57458652 C15.3167617,7.41934271 14.5881186,7.790891 14.1686016,8.129919 C13.5780257,8.60711898 13.1928618,9.357259 13.1382948,10.136594 C13.1010352,10.6685181 13.3524521,11.5155121 13.9049568,12.1051715 C14.3187658,12.5467615 14.8356866,12.7799546 15.4006023,12.7799546 C15.7722292,12.7781479 16.0638383,12.4836585 16.0620839,12.1221125 C16.0603034,11.7616661 15.7675946,11.4707378 15.4075672,11.4707378 C15.2015268,11.470764 15.0246813,11.3854309 14.8602731,11.2099994 C14.5599448,10.8895095 14.4316965,10.4077012 14.4442386,10.2280541 C14.4671232,9.9012801 14.6228645,9.44602215 14.9913755,9.14828604 C15.3074403,8.89288913 15.7209351,8.79941292 16.2201556,8.87071143 C17.5948581,9.06674964 18.5571918,10.0505278 18.6717983,11.376895 C18.7343252,12.1004323 18.3814722,12.7997234 17.7279766,13.2474665 C16.8527827,13.847102 15.6850109,13.8647499 14.5241777,13.2959851 C13.5495115,12.8184186 12.6760196,12.5583348 11.9068439,12.4426023 C11.962694,12.3537607 12.0144855,12.2626672 12.0615902,12.1694004 C12.3353158,11.6276836 12.452724,11.0256392 12.4011157,10.4283864 C12.2347176,8.50246228 10.7995828,7.01975156 8.82998412,6.73882542 C7.74170634,6.58358161 7.01306322,6.95515609 6.59352,7.29418407 C6.00294412,7.77138404 5.61780642,8.52152407 5.56323936,9.30083286 C5.52600598,9.8327832 5.77742294,10.6798033 6.32995373,11.2694628 C6.74373652,11.7110004 7.26065734,11.9441935 7.82552072,11.9441935 C8.19719995,11.9423868 8.48878286,11.6478713 8.48702854,11.2863514 C8.48524803,10.925905 8.19253921,10.6349767 7.83251179,10.6349767 C7.62647138,10.6350029 7.44962591,10.5496698 7.28524394,10.3742645 C6.98491563,10.0537746 6.85666731,9.57196629 6.86923552,9.39229297 C6.89209399,9.065519 7.04783529,8.61026105 7.4163201,8.31252494 C7.73238491,8.05710184 8.14587967,7.96367801 8.64510023,8.03495033 C10.0198289,8.23098854 10.9821626,9.21476673 11.0967691,10.5411339 C11.159296,11.2646712 10.806443,11.9639623 10.1529474,12.4117054 C9.50426967,12.5072502 8.9947065,12.6896204 8.61530307,12.8740592 C8.08128422,12.8747138 7.51443087,12.7371964 6.94912238,12.4601979 C2.65327524,10.3553074 0.322863606,12.4743371 0.225774041,12.5655615 C-0.0377136573,12.8131033 -0.050596087,13.2273574 0.196971841,13.4908451 C0.444461228,13.7542804 0.858767698,13.7672152 1.1222554,13.5196473 C1.12610442,13.5160339 1.54334345,13.1491463 2.34252578,12.9582664 C3.50697228,12.6801419 4.9007366,12.9144608 6.37307852,13.6358772 C7.11216898,13.9979994 7.85966445,14.1809195 8.5987811,14.1808933 C8.6772278,14.1808933 8.75564831,14.1788509 8.83388555,14.1747139 C9.45150931,14.1421412 10.0415092,13.9771047 10.5616768,13.6941624 C11.5816672,13.6153753 12.739751,13.8795961 13.9481601,14.4716645 C14.6872505,14.8337866 15.434746,15.0167067 16.1738627,15.0166805 C16.2523094,15.0166805 16.3307037,15.0146382 16.4089409,15.0105012 C17.1618041,14.9707803 17.8737943,14.7346285 18.4680097,14.3274964 C18.9688275,13.9843576 19.3729746,13.5271096 19.6366718,13.0052139 C19.9103974,12.463497 20.0278056,11.8614526 19.9761973,11.2641999 C19.8097468,9.33822338 18.374612,7.85551266 16.4050395,7.57458652 Z" id="Shape"></path>
                <path d="M5.92245509,6.38751724 C5.92716818,6.38322309 6.40313752,5.95477737 7.31216092,5.74912972 C8.52567588,5.47464481 9.96329808,5.71964675 11.4696266,6.45771604 C12.1724787,6.80211171 12.8813792,6.97607696 13.5804608,6.97605077 C13.6541682,6.97605077 13.727928,6.97411317 13.8013998,6.97021176 C14.5061633,6.93305693 15.1717558,6.71258923 15.7262504,6.33266212 C16.695418,5.66866683 17.2170257,4.61267368 17.1215595,3.5079001 C17.0437674,2.60759591 16.6775083,1.8025746 16.062372,1.17989737 C15.4616891,0.571804501 14.6704929,0.182870179 13.7743257,0.0550407928 C12.9866643,-0.0572615857 12.2830529,0.115577775 11.7393984,0.554837391 C11.2043584,0.987158312 10.8553282,1.66801598 10.8057884,2.37610481 C10.7725088,2.85136719 11.0010411,3.61239967 11.502304,4.14733496 C11.8652902,4.53475064 12.316254,4.73929859 12.806991,4.73929859 C12.8098712,4.73929859 12.8128038,4.7392724 12.8157102,4.7392724 C13.0326169,4.73819887 13.2076033,4.56148432 13.2065298,4.34457762 C13.2054562,4.12832552 13.0298414,3.95375803 12.813825,3.95375803 C12.8115731,3.95373184 12.8093475,3.95378422 12.8070957,3.95378422 C12.5352554,3.95378422 12.2891276,3.83820887 12.0754938,3.61022642 C11.7302341,3.24176783 11.5713507,2.68863478 11.5893914,2.43098609 C11.6240063,1.93650481 11.8646618,1.46357279 12.2331204,1.16583665 C12.6080202,0.862916138 13.0893572,0.750797033 13.6634373,0.8327 C15.1632723,1.04662174 16.213505,2.12324772 16.339004,3.57553286 C16.4097526,4.39437921 16.0147174,5.18287854 15.2823039,5.6846913 C14.3411267,6.32954624 13.045028,6.35491834 11.8152791,5.75235028 C10.877375,5.29277202 9.96138668,5.00603309 9.09281726,4.90009338 C8.38640419,4.814001 7.70939555,4.84639038 7.0805913,4.99655455 C5.98715532,5.25771189 5.41043066,5.7908143 5.3864201,5.81335857 C5.22834844,5.96189934 5.21968159,6.21130015 5.36822235,6.36939801 C5.51668455,6.52744353 5.76435724,6.53605801 5.92245509,6.38751724 Z" id="Shape"></path>
            </g>
        </g>
    </g>
</svg>