<?xml version="1.0" encoding="UTF-8"?>
<svg width="32px" height="32px" viewBox="0 0 32 32" version="1.1" xmlns="http://www.w3.org/2000/svg" xmlns:xlink="http://www.w3.org/1999/xlink">
    <!-- Generator: Sketch 46.1 (44463) - http://www.bohemiancoding.com/sketch -->
    <title>login_btn_weixin</title>
    <desc>Created with Sketch.</desc>
    <defs></defs>
    <g id="汇邻优店ui规范" stroke="none" stroke-width="1" fill="none" fill-rule="evenodd">
        <g id="icon" transform="translate(-18.000000, -18.000000)" fill-rule="nonzero" fill="#FFFFFF">
            <g id="login_btn_weixin" transform="translate(19.000000, 21.000000)">
                <path d="M22.7550066,12.2580645 C22.1312321,12.2580645 21.5189545,12.8981472 21.5189545,13.5502809 C21.5189545,14.2005208 22.1312321,14.8387097 22.7550066,14.8387097 C23.6816824,14.8387097 24.2553191,14.1699197 24.2553191,13.5502809 C24.2553191,12.9287912 23.6817239,12.2580646 22.7550066,12.2580645 L22.7550066,12.2580645 Z M17.2008452,12.2580645 C16.5733353,12.2580645 15.9574468,12.8981472 15.9574468,13.5502809 C15.9574468,14.2005208 16.5733353,14.8387097 17.2008452,14.8387097 C18.123578,14.8387097 18.6947245,14.1699197 18.6947245,13.5502809 C18.6947245,12.9287912 18.123578,12.2580646 17.2008452,12.2580645 L17.2008452,12.2580645 Z" id="Shape"></path>
                <path d="M30,15.9333971 C30,13.9017949 29.1114239,11.9384341 27.4979338,10.4049942 C25.9545429,8.93818512 23.9034835,8.01328071 21.7134319,7.79473865 C20.7703988,3.35001803 16.0906784,0 10.8218327,0 C4.85465664,0 0,4.2543228 0,9.48365023 C0,12.2433587 1.35743011,14.7423935 3.9264755,16.7152912 L3.07392668,19.3264369 C2.98596411,19.5980932 3.06685038,19.8969948 3.27902428,20.0843405 C3.40547949,20.1952747 3.56677849,20.2563453 3.73365042,20.25647 C3.83948578,20.25647 3.94681882,20.2306569 4.04462502,20.1815315 L7.37203241,18.4850752 L7.72240402,18.5574705 C8.77759593,18.7783438 9.68888673,18.9691231 10.8218743,18.9691231 C11.1509873,18.9691231 11.4892528,18.954288 11.8270607,18.9250416 C11.8952273,18.9191978 11.9621546,18.9030114 12.0256268,18.8770183 C12.6964583,20.4088475 13.8564871,21.7130216 15.3875638,22.6546685 C16.9566231,23.6196276 18.7955541,24.1297004 20.7056246,24.1297004 C21.699828,24.1297004 22.6649933,23.9084032 23.6474651,23.6589618 L26.1878467,25.0738905 C26.290015,25.1309248 26.4045795,25.1609728 26.5210783,25.1612903 C26.679932,25.1612373 26.8339705,25.1057221 26.9575244,25.003996 C27.1784308,24.8216515 27.2677918,24.5258822 27.1853367,24.2509667 L26.5615154,22.1373476 C28.7796067,20.308096 30,18.1074586 30,15.9333971 L30,15.9333971 Z M25.342495,21.3106939 C25.1116458,21.488164 25.0123419,21.7969034 25.095421,22.0791093 L25.3683298,23.0038442 L24.0764644,22.2837064 C23.9740991,22.2260231 23.8590468,22.1957336 23.7420679,22.1956708 C23.6829099,22.1956708 23.6234191,22.2035969 23.5723319,22.2179658 C22.627094,22.4612613 21.6496977,22.7128221 20.7065398,22.7128221 C16.3387508,22.7128221 12.7852784,19.671162 12.7852784,15.9324222 C12.7852784,12.1941911 16.3387508,9.15295488 20.7065398,9.15295484 C24.9912913,9.15295484 28.6111604,12.2575581 28.6111604,15.9324222 C28.611202,17.7860881 27.4503827,19.696085 25.342495,21.3106939 Z M10.8227896,17.5532195 C9.81935044,17.5532195 8.97241791,17.3750289 7.99123585,17.1686516 L7.41396715,17.0497165 C7.36769834,17.0397081 7.32052785,17.0346649 7.27322774,17.0346695 C7.16547869,17.0346695 7.05847844,17.0609488 6.96495731,17.1100742 L4.92146938,18.1522181 L5.40567451,16.6701501 C5.50310628,16.3709475 5.39814458,16.0481359 5.14424785,15.8665968 C2.65237408,14.0970671 1.38883958,11.9495392 1.38883958,9.48365023 C1.38883958,5.03456387 5.6204654,1.41501342 10.8218743,1.41501342 C15.2681246,1.41501342 19.2985633,4.12979282 20.2701353,7.75349709 C17.9348097,7.84844169 15.7456734,8.70501988 14.091663,10.1741178 C12.3530758,11.7183661 11.3956068,13.7637013 11.3956068,15.9334395 C11.3956068,16.4498702 11.4578849,16.9846541 11.5809019,17.5250753 C11.330167,17.5437251 11.0757294,17.5532195 10.8227896,17.5532195 L10.8227896,17.5532195 Z" id="Shape"></path>
                <path d="M15.1151927,7.09677419 C16.0007565,7.09677419 16.5957446,6.44760548 16.5957447,5.48138311 C16.5957447,4.51816409 16.0007565,3.87096774 15.1151927,3.87096774 C14.2813635,3.87096774 13.381429,4.48674116 13.381429,5.48169688 C13.3825376,6.47929733 14.2822257,7.09677415 15.1151927,7.09677419 Z M8.12039673,3.87096774 C7.284843,3.87096774 6.38297872,4.48669635 6.38297872,5.48138311 C6.38297872,6.47916289 7.284843,7.09677415 8.12039673,7.09677419 C9.00378438,7.09677419 9.59729441,6.44756063 9.59729441,5.48106933 C9.59626792,4.51802965 9.00271684,3.87096774 8.12039673,3.87096774 L8.12039673,3.87096774 Z" id="Shape"></path>
            </g>
        </g>
    </g>
</svg>