<?xml version="1.0" encoding="UTF-8"?>
<svg width="24px" height="24px" viewBox="0 0 24 24" version="1.1" xmlns="http://www.w3.org/2000/svg" xmlns:xlink="http://www.w3.org/1999/xlink">
    <!-- Generator: Sketch 43 (38999) - http://www.bohemiancoding.com/sketch -->
    <title>my_shop@1.5x</title>
    <desc>Created with Sketch.</desc>
    <defs></defs>
    <g id="01_main" stroke="none" stroke-width="1" fill="none" fill-rule="evenodd">
        <g id="05_mine_0803-copy-2" transform="translate(-25.000000, -473.000000)" fill="#FF7819">
            <g id="my_shop" transform="translate(27.000000, 476.000000)">
                <path d="M17.4892828,9.76935906 C16.1100396,9.76935906 14.9908138,8.67699851 14.9908138,7.32749904 C14.9908138,8.67699851 13.871588,9.76935906 12.4923448,9.76935906 C11.1135814,9.76935906 9.99387588,8.67699851 9.99387588,7.32749904 C9.99387588,8.67699851 8.87465006,9.76935906 7.49540691,9.76935906 C6.11616376,9.76935906 4.99693795,8.67699851 4.99693795,7.32749904 C4.99693795,8.67699851 3.87771213,9.76935906 2.49846898,9.76935906 C1.11922584,9.76935906 0,8.67699851 0,7.32749904 L1.71218044,2.85731205 L18.2103271,2.85731205 L19.9858328,7.32749904 C19.9877517,8.67699851 18.8685259,9.76935906 17.4892828,9.76935906 L17.4892828,9.76935906 L17.4892828,9.76935906 Z M18.2055297,2.83332522 L18.3098775,2.93767305 L18.2146954,2.93767305 L18.2055297,2.83332522 L18.2055297,2.83332522 Z M17.1309194,1.55770522 L2.85491337,1.55770522 C2.38381189,1.55770522 1.99858329,1.20941633 1.99858329,0.778133008 C1.99858329,0.348288884 2.38189295,-1.11022302e-15 2.85491337,-1.11022302e-15 L17.1309194,-1.11022302e-15 C17.6058588,-1.11022302e-15 17.9910874,0.348768606 17.9910874,0.778133008 C17.9910874,1.20989608 17.6058588,1.55770522 17.1309194,1.55770522 L17.1309194,1.55770522 L17.1309194,1.55770522 Z M3.14131622,11.2853272 L3.14131622,16.4199495 L16.8478747,16.4199495 L16.8478747,11.2853272 C16.8478747,11.2853272 17.0426479,11.2786109 17.1309194,11.2853272 L17.417802,11.2853272 L18.2770105,11.2853272 L18.2770105,16.6766087 C18.2770105,17.1290005 17.6941304,17.7061238 17.1779336,17.7061238 L2.81317627,17.7061238 C2.29362137,17.7061238 1.7140994,17.1290005 1.7140994,16.6766087 L1.7140994,11.2853272 L2.57186871,11.2853272 L3.14131622,11.2853272 L3.14131622,11.2853272 L3.14131622,11.2853272 Z" id="Shape"></path>
            </g>
        </g>
    </g>
</svg>