<?xml version="1.0" encoding="UTF-8"?>
<svg width="32px" height="45px" viewBox="0 0 32 45" version="1.1" xmlns="http://www.w3.org/2000/svg" xmlns:xlink="http://www.w3.org/1999/xlink">
    <!-- Generator: Sketch 43 (38999) - http://www.bohemiancoding.com/sketch -->
    <title>set</title>
    <desc>Created with Sketch.</desc>
    <defs></defs>
    <g id="01_main" stroke="none" stroke-width="1" fill="none" fill-rule="evenodd">
        <g id="05_mine_0803-copy-2" transform="translate(-291.000000, -20.000000)" stroke-width="0.5" stroke="#FFFFFF" fill="#FFFFFF">
            <g id="set" transform="translate(291.000000, 20.000000)">
                <g id="Group">
                    <g id="Group-2">
                        <path d="M18.383448,30.819317 L18.3833915,30.819317 C18.0927443,30.8192973 17.8102836,30.6932645 17.6278105,30.4822034 C17.3792059,30.1964344 16.5915565,29.4533006 15.9468407,29.4533006 C15.306585,29.4533006 14.5067595,30.2007163 14.2770496,30.4625496 C14.0950093,30.6700391 13.8145058,30.7939013 13.5266627,30.7939013 C13.389582,30.7939013 13.2601985,30.766315 13.1421066,30.7118921 L13.1214429,30.702381 L11.1617386,29.5533651 L11.1422793,29.5390984 C10.7855006,29.2772256 10.6497373,28.7650632 10.8264893,28.3477362 C10.8278255,28.3445 11.0072311,27.9104988 11.0072311,27.5147594 C11.0072311,26.3137479 10.0753496,25.3366237 8.92992421,25.3366237 L8.86048053,25.3366237 C8.85626497,25.3367223 8.85204943,25.3367815 8.84785271,25.3367815 C8.51973604,25.3367815 8.25259432,25.0311811 8.16724822,24.5582275 C8.16041677,24.5203802 8,23.6232129 8,22.9163676 C8,22.209542 8.16037913,21.312355 8.16721059,21.2745077 C8.25362939,20.7955159 8.52660513,20.4878238 8.86046172,20.4960918 L8.92992421,20.4960918 C10.0753685,20.4960918 11.0072311,19.5189874 11.0072311,18.3179561 C11.0072311,17.9222956 10.8279196,17.4883931 10.8260941,17.4840519 C10.6495491,17.0671195 10.7861969,16.5550163 11.1444435,16.2939723 L11.1647497,16.2791728 L13.2329668,15.0880671 L13.2544774,15.0784572 C13.370932,15.0264023 13.49849,15 13.6336135,15 C13.9207603,15 14.201866,15.1211785 14.3855812,15.3241689 C14.6303655,15.5929284 15.4041073,16.2918412 16.0303425,16.2918412 C16.650706,16.2918412 17.4197053,15.6067216 17.6636615,15.3427177 C17.8463228,15.1438317 18.1254149,15.0247645 18.4097764,15.0247645 C18.5476287,15.0247645 18.677558,15.0521141 18.7958945,15.1060436 L18.8168406,15.1155942 L20.8143531,16.279232 L20.8340946,16.2936763 C21.1914567,16.5552136 21.3275776,17.067376 21.150675,17.4850188 C21.1493576,17.4882155 20.9699521,17.9222364 20.9699521,18.3179561 C20.9699521,19.5189873 21.9018335,20.4960918 23.0472589,20.4960918 L23.1167026,20.4960918 C23.4501264,20.4883171 23.7235161,20.7954765 23.8099537,21.2744682 C23.8167664,21.3123353 23.9771832,22.2095025 23.9771832,22.9163479 C23.9771832,23.6231932 23.8167664,24.5203605 23.8099349,24.5582078 C23.7234785,25.0372193 23.4501828,25.3437669 23.1166838,25.3366039 L23.0472589,25.3366039 C21.9018335,25.3366039 20.9699521,26.3137281 20.9699521,27.5147396 C20.9699521,27.9104002 21.1492447,28.3442829 21.1510702,28.3486241 C21.3275211,28.7652802 21.1911932,29.2774229 20.8334736,29.5387629 L20.8134686,29.5533849 L18.7822317,30.7305395 L18.7610222,30.7401296 C18.6448122,30.7926976 18.5177434,30.819317 18.383448,30.819317 Z M18.3217579,29.8158891 C18.3308289,29.8221246 18.3564609,29.8327013 18.3834292,29.8327013 C18.3845395,29.8327013 18.3855558,29.8326816 18.3864967,29.8326421 L20.2842851,28.73282 C20.2384975,28.6212315 20.0289808,28.0797068 20.0289808,27.5147989 C20.0289808,25.8254423 21.2980122,24.4409956 22.8889687,24.3543295 C22.911872,24.2217849 23.0362119,23.4760267 23.0362119,22.9164071 C23.0362119,22.3569059 22.9119284,21.6114042 22.8889876,21.4784847 C21.2980311,21.3918186 20.0289808,20.0073719 20.0289808,18.3180153 C20.0289808,17.7523378 20.2390997,17.2100435 20.2845486,17.0993628 L18.4175676,16.0117354 C18.4154034,16.0115776 18.4128063,16.0114592 18.4097764,16.0114592 C18.3779527,16.0114592 18.3481992,16.0236145 18.3383379,16.0305604 C18.3070223,16.0643231 18.0363614,16.3520851 17.6476462,16.6388211 C17.0722234,17.0632914 16.5280974,17.278516 16.0303425,17.278516 C15.5277321,17.278516 14.97924,17.0590489 14.4001098,16.6262119 C14.0090046,16.3339113 13.7371203,16.0406636 13.7057295,16.0062892 C13.6957741,15.9991657 13.6657194,15.9866551 13.6336323,15.9866551 C13.6310729,15.9866551 13.6288522,15.986734 13.6269514,15.9868722 L11.6931615,17.1005665 C11.7394761,17.2135559 11.9482211,17.7541335 11.9482211,18.3179759 C11.9482211,20.0073324 10.6791521,21.3917792 9.08819559,21.4784452 C9.06527353,21.611128 8.94099005,22.3568072 8.94099005,22.9163676 C8.94099005,23.4758688 9.06527353,24.2213705 9.08823323,24.35429 C10.6791897,24.4409561 11.9482211,25.8254028 11.9482211,27.5147594 C11.9482211,28.0815222 11.737293,28.6247834 11.6923711,28.7340631 L13.5226166,29.8071672 C13.523821,29.8072264 13.525176,29.8072659 13.5266627,29.8072659 C13.5534239,29.8072659 13.5787925,29.7969851 13.5877882,29.7908878 C13.6220019,29.75233 13.8954105,29.4489594 14.2891317,29.1463781 C14.8760531,28.6953673 15.4337856,28.4666652 15.9468407,28.4666652 C16.4647889,28.4666652 17.0267557,28.6997282 17.6171211,29.1593622 C18.0131194,29.4677054 18.2875818,29.7767986 18.3217579,29.8158891 Z" id="Shape"></path>
                        <path d="M15.7664554,25.801416 C14.2410281,25.801416 13,24.5001623 13,22.900708 C13,21.3012537 14.2410281,20 15.7664554,20 C17.2918826,20 18.5329107,21.3012537 18.5329107,22.900708 C18.5329107,24.5001426 17.2918826,25.801416 15.7664554,25.801416 Z M15.7664554,20.9866354 C14.7598797,20.9866354 13.9409712,21.8452844 13.9409712,22.900708 C13.9409712,23.9561316 14.7598797,24.8147806 15.7664554,24.8147806 C16.7730311,24.8147806 17.5919395,23.9561316 17.5919395,22.900708 C17.5919395,21.8452844 16.7730499,20.9866354 15.7664554,20.9866354 Z" id="Shape"></path>
                    </g>
                </g>
            </g>
        </g>
    </g>
</svg>