<?xml version="1.0" encoding="UTF-8"?>
<svg width="32px" height="32px" viewBox="0 0 32 32" version="1.1" xmlns="http://www.w3.org/2000/svg" xmlns:xlink="http://www.w3.org/1999/xlink">
    <!-- Generator: Sketch 43 (38999) - http://www.bohemiancoding.com/sketch -->
    <title>spread</title>
    <desc>Created with Sketch.</desc>
    <defs></defs>
    <g id="01_main" stroke="none" stroke-width="1" fill="none" fill-rule="evenodd">
        <g id="05_mine_0803-copy-2" transform="translate(-312.000000, -146.000000)">
            <g id="spread" transform="translate(312.000000, 146.000000)">
                <circle id="Oval-2" fill="#E22A24" cx="16" cy="16" r="16"></circle>
                <g id="推广赚实" transform="translate(8.000000, 8.000000)" fill-rule="nonzero" fill="#FFFFFF">
                    <path d="M11.0857143,3.77142857 C13.7142857,3.77142857 15.6571429,2.85714286 16,1.94285714 L16,1.94285714 C16,0.8 13.7142857,0 11.0857143,0 C8.34285714,0 6.05714286,0.8 6.05714286,1.94285714 L6.05714286,1.94285714 C6.4,2.85714286 8.34285714,3.77142857 11.0857143,3.77142857 Z" id="Shape"></path>
                    <path d="M11.0857143,11.2 C10.7428571,11.2 10.2857143,11.2 9.94285714,11.0857143 L9.94285714,13.6 L11.0857143,13.6 C13.8285714,13.6 16,12.9142857 16,12 L16,9.94285714 C14.8571429,10.7428571 13.1428571,11.2 11.0857143,11.2 Z" id="Shape"></path>
                    <path d="M11.0857143,7.88571429 C10.7428571,7.88571429 10.2857143,7.88571429 9.94285714,7.77142857 L9.94285714,10.2857143 C10.2857143,10.2857143 10.7428571,10.4 11.0857143,10.4 C13.7142857,10.4 15.6571429,9.48571429 16,8.57142857 L16,6.62857143 C14.8571429,7.42857143 13.1428571,7.88571429 11.0857143,7.88571429 Z" id="Shape"></path>
                    <path d="M11.0857143,4.57142857 C8.91428571,4.57142857 7.2,4 6.05714286,3.31428571 L6.05714286,4.57142857 C8.34285714,4.8 10.4,5.6 10.5142857,7.08571429 L10.9714286,7.08571429 C13.6,7.08571429 15.5428571,6.17142857 15.8857143,5.25714286 L15.8857143,3.31428571 C14.8571429,4 13.1428571,4.57142857 11.0857143,4.57142857 Z" id="Shape"></path>
                    <path d="M4.91428571,8.91428571 C7.54285714,8.91428571 9.48571429,8 9.82857143,7.08571429 L9.82857143,7.08571429 C9.82857143,6.05714286 7.65714286,5.14285714 4.91428571,5.14285714 C2.28571429,5.25714286 0,6.05714286 0,7.08571429 L0,7.08571429 C0.342857143,8.11428571 2.28571429,8.91428571 4.91428571,8.91428571 Z" id="Shape"></path>
                    <path d="M4.91428571,12.5714286 C7.54285714,12.5714286 9.48571429,11.6571429 9.82857143,10.7428571 L9.82857143,8.68571429 C8.8,9.48571429 7.08571429,9.94285714 4.91428571,9.94285714 C2.74285714,9.94285714 1.14285714,9.48571429 0,8.68571429 L0,10.7428571 C0.342857143,11.6571429 2.28571429,12.5714286 4.91428571,12.5714286 Z" id="Shape"></path>
                    <path d="M4.91428571,13.6 C2.85714286,13.6 1.02857143,13.1428571 0,12.3428571 L0,14.4 C0,15.3142857 2.28571429,16 4.91428571,16 C7.54285714,16 9.82857143,15.3142857 9.82857143,14.4 L9.82857143,12.3428571 C8.8,13.0285714 7.08571429,13.6 4.91428571,13.6 Z" id="Shape"></path>
                </g>
            </g>
        </g>
    </g>
</svg>