<?xml version="1.0" encoding="UTF-8"?>
<svg width="60px" height="60px" viewBox="0 0 60 60" version="1.1" xmlns="http://www.w3.org/2000/svg" xmlns:xlink="http://www.w3.org/1999/xlink">
    <!-- Generator: Sketch 43 (38999) - http://www.bohemiancoding.com/sketch -->
    <title>user copy</title>
    <desc>Created with Sketch.</desc>
    <defs></defs>
    <g id="01_main" stroke="none" stroke-width="1" fill="none" fill-rule="evenodd">
        <g id="05_mine_0803-copy-2" transform="translate(-143.000000, -48.000000)">
            <g id="user-copy" transform="translate(143.000000, 48.000000)">
                <circle id="Oval-5" fill-opacity="0.95" fill="#FFFFFF" cx="30" cy="30" r="30"></circle>
                <path d="M30,58 C14.5362222,58 2,45.4637778 2,30 C2,14.5362222 14.5362222,2 30,2 C45.4637778,2 58,14.5362222 58,30 C58,45.4637778 45.4637778,58 30,58 Z M38.8583704,31.1588889 C39.9166666,29.4939259 40.6726666,27.3747407 40.6726666,25.2560741 C40.6726666,19.3532593 35.9852593,14.6611852 30.0881482,14.6611852 C24.1915555,14.6611852 19.5036296,19.3532593 19.5036296,25.2560741 C19.5036296,27.3747407 20.1087407,29.4939259 21.3184445,31.1588889 C17.5379259,33.8831852 14.9671111,38.4243704 14.9671111,43.4192593 C14.9671111,44.3266666 15.5722222,44.9328148 16.4796296,44.9328148 C17.3865185,44.9328148 17.9911111,44.3266666 17.9911111,43.4192593 C17.9911111,39.1808889 20.1087407,35.5481482 23.2836296,33.428963 C25.0984445,34.943037 27.5178518,35.850963 30.0881482,35.850963 C32.658963,35.850963 35.0778518,34.943037 36.8926666,33.428963 C40.0680741,35.5481482 42.1846666,39.3322963 42.1846666,43.4192593 C42.1846666,44.3266666 42.7897778,44.9328148 43.6971852,44.9328148 C44.6040741,44.9328148 45.2091852,44.3266666 45.2091852,43.4192593 C45.2091852,38.4243704 42.6388889,33.8831852 38.8583704,31.1588889 Z M30.0881482,32.8238518 C25.8544445,32.8238518 22.5276296,29.4939259 22.5276296,25.2560741 C22.5276296,21.0182222 25.8544445,17.6882963 30.0881482,17.6882963 C34.3218518,17.6882963 37.6486666,21.0182222 37.6486666,25.2560741 C37.6486666,29.4939259 34.3218518,32.8238518 30.0881482,32.8238518 Z" id="Shape" fill-opacity="0.1" fill="#000000" fill-rule="nonzero"></path>
            </g>
        </g>
    </g>
</svg>