<?xml version="1.0" encoding="UTF-8"?>
<svg width="48px" height="48px" viewBox="0 0 48 48" version="1.1" xmlns="http://www.w3.org/2000/svg" xmlns:xlink="http://www.w3.org/1999/xlink">
    <!-- Generator: Sketch 43 (38999) - http://www.bohemiancoding.com/sketch -->
    <title>bronze</title>
    <desc>Created with Sketch.</desc>
    <defs></defs>
    <g id="signup" stroke="none" stroke-width="1" fill="none" fill-rule="evenodd">
        <g id="export" transform="translate(-93.000000, -691.000000)" fill="#FF7819">
            <g id="bronze_big" transform="translate(101.000000, 699.000000)">
                <path d="M20.9142857,15.5428406 C20.9142857,18.2709424 18.7280852,20.4571429 15.9999835,20.4571429 C13.2846479,20.4571429 11.0857143,18.2483765 11.0857143,15.5428406 C11.0857143,12.8373453 13.2846735,10.6285714 15.9999835,10.6285714 C18.7153126,10.6285714 20.9142857,12.8373316 20.9142857,15.5428406 Z M12.0803663,14.3761858 L13.9549827,16.2533422 L13.5977037,18.8298487 L16,17.6992347 L18.4022963,18.8298487 L18.0450173,16.2533422 L19.9196337,14.3761858 L17.2600763,13.8997132 L16,11.617952 L14.7399237,13.8997132 L12.0803663,14.3761858 Z M16.5227627,14.9286731 L17.5660805,15.1155885 L16.8349731,15.8476865 L16.9805658,16.8976238 L16,16.4361315 L15.0194342,16.8976239 L15.1650269,15.8476865 L14.4339195,15.1155885 L15.4772373,14.9286731 L16,13.982048 L16.5227627,14.9286731 Z" id="Combined-Shape"></path>
                <path d="M16,32 C7.163444,32 0,24.836556 0,16 C0,7.163444 7.163444,0 16,0 C24.836556,0 32,7.163444 32,16 C32,24.836556 24.836556,32 16,32 Z M15.8939865,27.4285714 L15.8939865,27.4285714 L15.7583358,27.4285714 C26.9419823,23.7546983 26.1544547,9.6734021 26.1544547,9.6734021 C21.651605,5.17055249 15.8261611,4.57142857 15.8261611,4.57142857 C15.8261611,4.57142857 10.0007172,5.17055249 5.49786759,9.6734021 C5.49786759,9.6734021 4.70657184,23.7509302 15.8939865,27.4285714 Z" id="Combined-Shape"></path>
                <path d="M15.8684657,26.0571429 L15.6842478,25.9842233 C7.66693379,22.821817 6.90319732,13.3307602 6.86098073,10.494573 L6.85714286,10.2643007 L7.02984708,10.1107858 C10.5453376,6.95605528 14.6249952,6.13091286 15.7917082,5.95437076 L15.8684657,5.94285714 L15.9452231,5.95437076 C17.1196119,6.1385886 21.2222967,6.98292038 24.7109221,10.106948 L24.8836264,10.2604628 L24.8797885,10.4907351 C24.8605991,11.7342056 24.7032464,14.2249843 23.8857797,16.8884673 C22.4964701,21.4248317 19.8598523,24.4836154 16.0565214,25.9803854 L15.8684657,26.0571429 Z M22.0571429,15.5428406 C22.0571429,12.2072824 19.3476341,9.48571429 15.9999835,9.48571429 C12.6523488,9.48571429 9.94285714,12.2072992 9.94285714,15.5428406 C9.94285714,18.8784204 12.652321,21.6 15.9999835,21.6 C19.3592678,21.6 22.0571429,18.9021249 22.0571429,15.5428406 Z" id="Combined-Shape"></path>
            </g>
        </g>
    </g>
</svg>