<?xml version="1.0" encoding="UTF-8"?>
<svg width="48px" height="48px" viewBox="0 0 48 48" version="1.1" xmlns="http://www.w3.org/2000/svg" xmlns:xlink="http://www.w3.org/1999/xlink">
    <!-- Generator: Sketch 43 (38999) - http://www.bohemiancoding.com/sketch -->
    <title>crown</title>
    <desc>Created with Sketch.</desc>
    <defs></defs>
    <g id="signup" stroke="none" stroke-width="1" fill="none" fill-rule="evenodd">
        <g id="export" transform="translate(-327.000000, -691.000000)" fill="#FF7819">
            <path d="M351,731 C342.163444,731 335,723.836556 335,715 C335,706.163444 342.163444,699 351,699 C359.836556,699 367,706.163444 367,715 C367,723.836556 359.836556,731 351,731 Z M358.820046,713.094253 C358.686801,713.094253 358.557666,713.124189 358.435574,713.183474 C357.41775,713.677125 356.037172,715.703968 355.280554,716.911387 C354.859689,716.247512 354.272709,715.273125 353.915238,714.470722 C353.308887,713.111276 352.915023,711.771787 352.912676,711.764156 C352.83402,711.484166 352.385567,710.091262 351.302588,710.091262 C350.116301,710.091262 349.704828,711.555191 349.658456,711.735981 C349.654935,711.751242 349.292181,713.296175 348.733962,714.548204 C348.398797,715.300126 347.78188,716.273926 347.342232,716.932518 C346.586788,715.728621 345.193297,713.68006 344.169603,713.183474 C344.047511,713.124189 343.918375,713.09484 343.785131,713.09484 C343.152366,713.09484 342.711544,713.743454 342.711544,714.326325 C342.711544,714.394415 342.72387,714.462505 342.746763,714.527072 C342.759089,714.559943 343.940094,717.832359 343.940094,719.856267 L343.940094,723.645812 C343.940094,724.307926 344.478942,724.846774 345.141643,724.846774 L357.461186,724.846774 C358.123887,724.846774 358.662735,724.307926 358.662735,723.645812 L358.662735,719.856267 C358.662735,717.039935 359.821434,714.606315 359.833174,714.582249 C359.871328,714.502419 359.891872,714.414959 359.891872,714.326325 C359.892459,713.742867 359.452224,713.094253 358.820046,713.094253 Z M351.255043,709.361058 C352.473027,709.361058 353.46385,708.370235 353.46385,707.151664 C353.46385,705.933093 352.473027,704.942857 351.255043,704.942857 C350.037059,704.942857 349.045649,705.93368 349.045649,707.152251 C349.045649,708.370822 350.036472,709.361058 351.255043,709.361058 Z M344.903915,710.574934 C344.903915,709.357536 343.913093,708.366714 342.694521,708.366714 C341.476537,708.366714 340.485714,709.357536 340.485714,710.574934 C340.485714,711.792331 341.476537,712.783154 342.694521,712.783154 C343.913093,712.782567 344.903915,711.792331 344.903915,710.574934 Z M359.305479,708.265753 C358.087494,708.265753 357.096672,709.256576 357.096672,710.473386 C357.096672,711.69137 358.087494,712.682193 359.305479,712.682193 C360.523463,712.682193 361.514286,711.69137 361.514286,710.473386 C361.514286,709.256576 360.523463,708.265753 359.305479,708.265753 Z M357.489948,719.855093 L357.489948,723.644638 C357.489948,723.657552 357.478796,723.67164 357.46236,723.67164 L345.114641,723.644638 L345.114641,719.855093 C345.114641,718.001996 344.276433,715.367041 343.964747,714.449591 C344.797085,715.151033 346.097834,717.098046 346.805732,718.3084 C346.906105,718.479798 347.086308,718.589564 347.284708,718.598368 C347.481346,718.614804 347.672702,718.515604 347.788924,718.354771 C347.846448,718.274355 349.201786,716.383104 349.806962,715.025419 C350.410378,713.671842 350.786633,712.068799 350.798372,712.016558 C350.878202,711.717198 351.120038,711.264636 351.30024,711.264636 C351.41705,711.29105 351.66769,711.681979 351.784499,712.086995 C351.801522,712.144519 352.203603,713.51277 352.842825,714.947937 C353.487916,716.394844 354.76049,718.26379 354.814492,718.343032 C354.927779,718.50856 355.113852,718.617739 355.319882,718.598368 C355.521216,718.591325 355.704354,718.481559 355.805902,718.307813 C356.497952,717.121526 357.757611,715.229101 358.591124,714.493028 C358.233066,715.361759 357.489948,717.454344 357.489948,719.855093 Z M351.255043,706.117405 C351.825588,706.117405 352.289889,706.581706 352.289889,707.152251 C352.289889,707.723383 351.825588,708.187685 351.255043,708.187685 C350.684498,708.187685 350.21961,707.722796 350.21961,707.152251 C350.21961,706.581706 350.683911,706.117405 351.255043,706.117405 Z M342.695108,711.608606 C342.124563,711.608606 341.660262,711.144892 341.660262,710.574347 C341.660262,710.003802 342.124563,709.540087 342.695108,709.540087 C343.26624,709.540087 343.730542,710.003802 343.730542,710.574347 C343.730542,711.144892 343.265653,711.608606 342.695108,711.608606 Z M359.305479,711.507646 C358.734934,711.507646 358.270632,711.043344 358.270632,710.472799 C358.270632,709.902841 358.734934,709.439127 359.305479,709.439127 C359.876024,709.439127 360.340325,709.902841 360.340325,710.472799 C360.340325,711.043344 359.876611,711.507646 359.305479,711.507646 Z M352.124948,717.267097 L352.065076,717.197246 C351.658885,716.791056 350.948052,716.790469 350.540688,717.196659 L349.200025,719.030973 C348.831988,719.439511 348.831988,720.06758 349.200025,720.476118 L350.480816,722.239994 L350.541862,722.311019 C350.744957,722.513527 351.015555,722.624467 351.302588,722.624467 C351.589622,722.624467 351.86022,722.513527 352.063902,722.311606 L353.405152,720.477292 C353.585355,720.278306 353.683968,720.023557 353.683968,719.754133 C353.683968,719.484122 353.585355,719.228785 353.405152,719.030386 L352.124948,717.267097 Z M351.302588,721.374198 L350.128041,719.756481 L350.125693,719.753546 L351.302588,718.132306 L352.476549,719.750024 L352.478897,719.753546 L351.302588,721.374198 Z" id="crown_big"></path>
        </g>
    </g>
</svg>