<?xml version="1.0" encoding="UTF-8"?>
<svg width="48px" height="48px" viewBox="0 0 48 48" version="1.1" xmlns="http://www.w3.org/2000/svg" xmlns:xlink="http://www.w3.org/1999/xlink">
    <!-- Generator: Sketch 43 (38999) - http://www.bohemiancoding.com/sketch -->
    <title>diamond</title>
    <desc>Created with Sketch.</desc>
    <defs></defs>
    <g id="signup" stroke="none" stroke-width="1" fill="none" fill-rule="evenodd">
        <g id="export" transform="translate(-269.000000, -691.000000)" fill="#FF7819">
            <g id="diamond_big" transform="translate(277.000000, 699.000000)">
                <path d="M16.0000183,0 C24.8363761,0 32,7.1636889 32,16.0000731 C32,24.8364574 24.8364127,32 16.0000183,32 C7.16362393,32 0,24.8364574 0,16.0000732 C0,7.16368894 7.16366053,0 16.0000183,0 L16.0000183,0 L16.0000183,0 Z M21.138111,14.1659016 L25.1533305,14.1659016 L24.6477249,14.7353291 C23.9201854,15.5890496 23.0032997,16.7905931 22.2762356,17.5807472 L19.9049292,20.426714 C19.7468178,20.6163158 19.5888892,20.7743906 19.4304119,20.9639559 L17.5020225,23.2406781 L21.138111,14.1659016 L21.138111,14.1659016 Z M12.3795471,14.1659016 L19.6520899,14.1659016 C19.5571425,14.5140537 19.3355377,14.9881316 19.1775725,15.3357351 L15.9207614,23.4617706 L12.3795471,14.1659016 L12.3795471,14.1659016 Z M14.3400124,23.1773312 C14.245065,23.114094 13.9606253,22.7349633 13.8658608,22.6083792 L11.5577185,19.7941225 C10.64065,18.7506538 9.66038082,17.4858731 8.77509551,16.4109138 C8.45905543,16.0632372 8.14301534,15.6839237 7.82675584,15.3042445 L6.9098702,14.1659016 L10.9251263,14.1659016 L14.3400124,23.1773312 L14.3400124,23.1773312 Z M21.6436434,12.9328676 C21.7069904,12.6484282 21.864919,12.3007516 21.9917959,12.0163122 C22.1814712,11.5417223 23.0032997,9.39158423 23.13014,9.23354609 C23.2564683,9.48682406 25.2482779,12.7433023 25.3430058,12.9645411 L21.6436434,12.9328676 L21.6436434,12.9328676 Z M12.9488289,12.9645045 C12.9804293,12.8379935 14.9409311,10.435053 15.2253708,10.0873763 C15.3518819,9.92933819 15.4782468,9.77126349 15.6047579,9.61337163 C15.7310862,9.45478486 15.857451,9.26521954 15.9839621,9.13881829 C16.2056035,9.32838361 16.6481913,9.89781103 16.8694668,10.0873763 C17.1539066,10.4033429 17.8496995,11.2572463 18.1341392,11.5416857 C18.2289037,11.668087 18.2604675,11.668087 18.3554148,11.7629611 C18.4189447,11.8582009 18.4822917,11.921365 18.5454558,12.0162756 L19.3672478,12.9645045 L12.9488289,12.9645045 L12.9488289,12.9645045 Z M6.62546705,12.9645045 C6.65706741,12.8379935 7.636788,11.2257191 7.79522863,11.0044804 C7.98490389,10.6883309 8.17465231,10.3401789 8.36418124,10.0242123 C8.49069236,9.86617413 8.58545686,9.70806282 8.68022132,9.55002468 C8.77516868,9.42311136 8.86989658,9.20201892 8.99681,9.07543478 L10.4512308,12.9645045 L6.62546705,12.9645045 L6.62546705,12.9645045 Z M20.4422815,12.1743504 C20.3791173,12.0794763 20.3157704,12.0163122 20.2526062,11.953075 L19.6836902,11.2889563 C19.620526,11.1940823 19.5573619,11.1625551 19.4936492,11.067681 L17.4071483,8.69626756 L21.8333552,8.69626756 C21.8017549,8.82266884 20.5686097,11.9846021 20.4422815,12.1743504 L20.4422815,12.1743504 L20.4422815,12.1743504 Z M11.7158666,12.3639157 C11.6525196,12.2692244 10.3246465,8.8543423 10.3246465,8.69626759 L14.5929249,8.72797761 L11.7158666,12.3639157 L11.7158666,12.3639157 Z M4.88624079,13.2493462 L4.88624079,13.6286598 L4.88624079,13.6601869 C4.94940492,13.9446263 6.02443861,15.1778798 6.1825501,15.3674451 C6.40364283,15.6524331 6.62546705,15.9368725 6.878343,16.1896751 C7.09943573,16.4741145 7.32071132,16.7591025 7.54198694,17.0435785 L10.2930827,20.3318399 C11.1780023,21.3753086 12.0950708,22.5768521 13.0121759,23.6513359 C13.4545442,24.2208 13.8974612,24.7896787 14.3716493,25.2959421 C14.5929249,25.5803815 14.8145662,25.8648941 15.0358419,26.1496627 L15.5415572,26.7817787 C15.6363217,26.8134156 15.6994858,26.8449427 15.7942503,26.9081434 L16.0476383,26.9081434 C16.4584428,26.623704 16.8060833,26.1181721 17.1539066,25.7067828 C18.0707922,24.6316406 19.0194611,23.4934806 19.9365296,22.4183019 C20.0628579,22.2919006 20.1578052,22.165536 20.2841335,22.0074612 C20.5054091,21.7230218 20.7267212,21.4702193 20.9799264,21.1852679 L26.8926665,14.1659383 C27.0821955,13.9131358 27.0189948,13.9131358 27.1137592,13.6286964 L27.1137592,13.344257 C27.0189948,13.2178557 26.987431,13.0912716 26.8926665,12.9329042 L24.3632486,8.72783136 C24.2361889,8.50673888 24.04666,8.12687677 23.888585,7.96880203 C23.7938206,7.84240078 23.7306564,7.77923672 23.5725449,7.68436263 C23.5093808,7.65283547 23.4462167,7.62119857 23.3514522,7.58967141 C23.3198153,7.55796138 23.2881052,7.55796138 23.2564683,7.52647078 L23.1617038,7.49479732 L23.1301035,7.49479732 L8.86986001,7.49479729 L8.83825965,7.49479729 L8.61698402,7.58967137 C8.55381989,7.62119854 8.45905543,7.65283543 8.3957084,7.6843626 C8.26938014,7.77923668 8.17461567,7.8741108 8.07966832,7.96880199 L5.32912114,12.4903535 C5.07573319,12.8696304 5.04416942,12.9645045 4.88624079,13.2493462 L4.88624079,13.2493462 L4.88624079,13.2493462 Z" id="Shape"></path>
            </g>
        </g>
    </g>
</svg>