<?xml version="1.0" encoding="UTF-8"?>
<svg width="58px" height="58px" viewBox="0 0 58 58" version="1.1" xmlns="http://www.w3.org/2000/svg" xmlns:xlink="http://www.w3.org/1999/xlink">
    <!-- Generator: Sketch 46.1 (44463) - http://www.bohemiancoding.com/sketch -->
    <title>friend03</title>
    <desc>Created with Sketch.</desc>
    <defs></defs>
    <g id="signup" stroke="none" stroke-width="1" fill="none" fill-rule="evenodd">
        <g id="icon" transform="translate(-30.000000, -749.000000)">
            <g id="friend03" transform="translate(30.000000, 749.000000)">
                <rect id="Rectangle-7-Copy-2" fill="#FF9D4E" x="0" y="0" width="58" height="58"></rect>
                <path d="M34.8123034,27.6777713 C37.0131353,26.0692438 38.432917,23.5776568 38.432917,20.7774296 C38.432917,15.9373968 34.2031118,12 29.0029375,12 C23.8029829,12 19.5731777,15.9371787 19.5731777,20.7774296 C19.5731777,23.5776568 20.9944419,26.0692438 23.1937912,27.6777713 C17.3982619,29.8336168 13.2865613,35.1038917 13.2865613,41.2582622 L13.2865613,44.1840721 C13.2865613,44.9926982 13.9895339,45.6470588 14.8583252,45.6470588 L43.1479342,45.6470588 C44.0166706,45.6470588 44.7194784,44.9926982 44.7194784,44.1840721 L44.7194784,41.2582622 C44.7196432,35.1023649 40.6092055,29.8336168 34.8123034,27.6777713 L34.8123034,27.6777713 Z M29.0031571,14.9258644 C32.4701962,14.9258644 35.2896637,17.5502867 35.2896637,20.7774296 C35.2896637,24.0048452 32.4701962,26.6292674 29.0031571,26.6292674 C25.5358984,26.6292674 22.716431,24.0047906 22.716431,20.7774296 C22.716431,17.5502321 25.5358436,14.9258644 29.0031571,14.9258644 L29.0031571,14.9258644 Z M41.5761703,42.721249 L16.4298695,42.721249 L16.4298695,41.2582622 C16.4298695,34.8052306 22.070287,29.5550228 29.0045847,29.5550228 C35.9372352,29.5550228 41.5761703,34.8052306 41.5761703,41.2582622 L41.5761703,42.721249 L41.5761703,42.721249 Z M18.4819038,28.186373 C18.5249508,28.0979253 18.5249508,28.0035338 18.5463644,27.9121414 C18.5616834,27.8564662 18.5786497,27.8035176 18.5864465,27.7448978 C18.5985809,27.6292941 18.5910586,27.5192524 18.5740375,27.4064297 C18.5679429,27.3464466 18.5832618,27.2892446 18.5679429,27.2292616 C18.5587185,27.1948531 18.5326926,27.1706418 18.5218211,27.1362333 C18.4974424,27.0706337 18.4636747,27.0120138 18.429907,26.9506676 C18.3652267,26.8249213 18.2947263,26.7106808 18.1979804,26.6092549 C18.1841439,26.5950226 18.1673424,26.58488 18.1520234,26.5705931 C18.0093204,26.4320868 17.8450391,26.3264076 17.6578616,26.2506108 C15.9572313,25.5449374 14.8582704,23.9732722 14.8582704,22.2419431 C14.8582704,20.2047004 16.3408656,18.4502506 18.4648827,17.974694 C19.3090758,17.7846023 19.8278358,16.9945163 19.6253393,16.2087383 C19.4196582,15.4231239 18.5676684,14.9459314 17.7280875,15.1287707 C14.1873634,15.9231645 11.7147976,18.8490288 11.7147976,22.2419976 C11.7147976,24.093511 12.471524,25.8292025 13.7576074,27.1492114 C9.66748531,29.1222177 7,33.0680122 7,37.5326055 L7,39.7954936 C7,40.6041743 7.70297257,41.2584803 8.57154428,41.2584803 C9.44028071,41.2584803 10.1433082,40.6041198 10.1433082,39.7954936 L10.1433082,37.5326055 C10.1433082,33.4865849 13.0655613,30.0150927 17.2586887,29.0321886 C17.7804686,28.9635898 18.2549188,28.6678734 18.4819038,28.186373 L18.4819038,28.186373 Z M44.2422829,27.1492115 C45.5284213,25.8292026 46.2848732,24.0933475 46.2848732,22.2417796 C46.2848732,18.9374221 43.8936792,16.0315702 40.4696322,15.1758302 C39.633236,14.9671982 38.7705393,15.4287405 38.5432798,16.2087384 C38.3177223,16.990263 38.8150138,17.7916367 39.6531671,18.0017955 C41.7066838,18.5145415 43.1416198,20.2590124 43.1416198,22.2419431 C43.1416198,23.9733268 42.044361,25.5419928 40.3452681,26.249302 C40.1551257,26.326462 39.9876597,26.4335045 39.8435292,26.5735377 C39.8311203,26.5864614 39.8158012,26.5950226 39.8034472,26.6079462 C39.7052737,26.7093175 39.6347184,26.8265026 39.5686654,26.9536667 C39.5365449,27.0149584 39.5012947,27.072215 39.4781789,27.1365059 C39.467472,27.169333 39.4412815,27.1951257 39.4322768,27.2293161 C39.4169578,27.2892991 39.4322768,27.3465012 39.4259625,27.4064842 C39.4092159,27.5193614 39.4016387,27.6293485 39.413828,27.7451704 C39.4215699,27.8035721 39.4383714,27.8565207 39.4536904,27.9121959 C39.4751041,28.0035883 39.4751041,28.0979798 39.5180962,28.1865912 C39.7454106,28.6678734 40.2196412,28.963808 40.7413113,29.0321341 C44.9344387,30.0152019 47.8566918,33.4865849 47.8566918,37.5325511 L47.8566918,39.7956027 C47.8566918,40.6040653 48.5596644,41.2584259 49.4284557,41.2584259 C50.2970274,41.2584259 51,40.6040653 51,39.7956027 L51,37.5325511 C50.9998903,33.0680122 48.3325149,29.1222178 44.2422829,27.1492115 L44.2422829,27.1492115 Z" id="Shape" fill="#FFFFFF" fill-rule="nonzero"></path>
            </g>
        </g>
    </g>
</svg>