<?xml version="1.0" encoding="UTF-8"?>
<svg width="48px" height="48px" viewBox="0 0 48 48" version="1.1" xmlns="http://www.w3.org/2000/svg" xmlns:xlink="http://www.w3.org/1999/xlink">
    <!-- Generator: Sketch 43 (38999) - http://www.bohemiancoding.com/sketch -->
    <title>gold</title>
    <desc>Created with Sketch.</desc>
    <defs></defs>
    <g id="signup" stroke="none" stroke-width="1" fill="none" fill-rule="evenodd">
        <g id="export" transform="translate(-211.000000, -691.000000)" fill="#FF7819">
            <g id="gold_big" transform="translate(219.000000, 699.000000)">
                <path d="M17.2617391,23.6670658 L22.5533187,29.1051767 L22.6586377,25.3035838 L26.6577088,25.2000501 L22.5583149,21.2694452 C22.5627874,21.2387211 22.5664566,21.2077771 22.5693048,21.17664 L22.8283025,19.4519393 C22.857509,19.2621332 22.9780703,19.1019576 23.1471986,19.0237901 L24.752697,18.2082911 C25.1586596,18.0029132 25.4671558,17.6385784 25.6084351,17.1996089 C25.6627866,17.0361566 25.6921894,16.8512915 25.6921894,16.6648087 C25.6925941,16.3856855 25.6256652,16.1098484 25.4972053,15.8620536 L24.6665745,14.2327806 C24.6260495,14.1549699 24.6044731,14.0668485 24.6044731,13.9747194 C24.6044731,13.8820257 24.62626,13.7937525 24.6675132,13.714331 L25.501994,12.0777349 C25.6250345,11.8413591 25.6921894,11.5665776 25.6921894,11.2847143 C25.6921894,11.0973016 25.6625412,10.9132231 25.6049895,10.7382722 C25.4663776,10.3090308 25.1569875,9.94572136 24.7518764,9.74073153 L23.1278364,8.91586238 C22.9600568,8.8291591 22.8458615,8.66443339 22.8255064,8.47554444 L22.5575455,6.67584869 C22.4819739,6.18028778 22.205013,5.75002282 21.7990523,5.48308189 C21.585568,5.31879522 21.229435,5.20688776 20.8753559,5.20688776 C20.7785045,5.20688776 20.6825388,5.21512434 20.5882433,5.23148147 L18.8040918,5.53011843 C18.7760426,5.53504462 18.7451856,5.53764541 18.7138117,5.53764541 C18.5636006,5.53764541 18.424198,5.47730063 18.3206496,5.3709518 L17.0430114,4.05744182 C16.7262799,3.73097278 16.2930769,3.54289797 15.831811,3.54285715 C15.3705125,3.54302047 14.9374645,3.73117986 14.6204718,4.05805329 L13.3433284,5.37094247 C13.239861,5.47723616 13.1004633,5.53758929 12.9502377,5.53758929 C12.918221,5.53758929 12.886962,5.53490184 12.8565862,5.52963249 L11.0658192,5.22986357 C10.9808618,5.21495753 10.8845642,5.20683163 10.7888041,5.20683163 C10.4276028,5.20628286 10.0748721,5.32317473 9.78298765,5.54043033 C9.39289222,5.83130964 9.13994467,6.27761704 9.09468499,6.77284564 L8.83569213,8.49741129 C8.80651106,8.68721625 8.68597944,8.84735486 8.5168858,8.9254922 L6.91131419,9.74106882 C6.50533871,9.94643233 6.19685523,10.3108095 6.05557678,10.7498605 C6.00122406,10.9134042 5.9718323,11.0982105 5.9718323,11.2846862 C5.9714133,11.56377 6.03833332,11.8396002 6.16678928,12.0873861 L6.99748741,13.7165984 C7.03799992,13.7943847 7.05957626,13.8825061 7.05957626,13.9746352 C7.05971031,14.0659431 7.03805732,14.15506 6.99650065,14.235092 L6.16202398,15.8717393 C6.03900641,16.10811 5.97185996,16.3828789 5.97185996,16.6646964 C5.97185996,16.8521992 6.00151931,17.036335 6.05911372,17.2113301 C6.19766749,17.6404378 6.50703674,18.0036557 6.91220766,18.2086968 L8.53630261,19.0334535 C8.70401574,19.1201803 8.8182119,19.2849293 8.83857018,19.4738618 L9.04949087,20.8905192 L4.74509508,25.2028349 L8.87918827,25.3043776 L8.98963856,28.7628672 L14.2248989,23.484538 L14.621121,23.8918847 C14.937567,24.2182787 15.3706994,24.4063877 15.8319402,24.4064694 C16.2932297,24.4064286 16.7263963,24.2183364 17.0434965,23.8914406 L17.2617391,23.6670658 Z M16,32 C7.28790254,32 0.225352113,24.836556 0.225352113,16 C0.225352113,7.163444 7.28790254,0 16,0 C24.7120975,0 31.7746479,7.163444 31.7746479,16 C31.7746479,24.836556 24.7120975,32 16,32 Z" id="Combined-Shape"></path>
                <path d="M18.601025,21.1546786 C18.146472,21.1546786 17.7195006,21.3394906 17.4062954,21.6610343 L16.1281741,22.9750686 C16.0201732,23.0864051 15.8753001,23.1493128 15.7193133,23.1493266 C15.5633959,23.1492989 15.4186224,23.086424 15.3111909,22.9756155 L14.0327096,21.6612378 C13.7194613,21.3394734 13.29235,21.1545944 12.8377553,21.1545944 C12.7428119,21.1545944 12.6473718,21.162655 12.5590998,21.178226 L10.7764968,21.4765312 C10.741743,21.4825079 10.7091404,21.4852855 10.6764811,21.485268 C10.5580584,21.4852679 10.4399784,21.4481949 10.397088,21.4155517 C10.2274763,21.3024077 10.1336371,21.1566347 10.1076092,20.9862098 L9.84298109,19.2120154 C9.78395535,18.6597522 9.43823372,18.160985 8.93170068,17.8991002 L7.30327496,17.0721282 C7.16683835,17.0030823 7.061995,16.87999 7.01622409,16.7382451 C6.99592415,16.6765365 6.98594447,16.6145791 6.98594447,16.5504107 C6.98594447,16.454569 7.00834582,16.3629008 7.04801633,16.2866626 L7.8827221,14.6495745 C8.00785245,14.4086263 8.07406813,14.1361035 8.07366014,13.8594946 C8.07366077,13.5819463 8.00719694,13.310497 7.88330747,13.0727727 L7.05317919,11.4446567 C7.00825551,11.3579725 6.98577518,11.2653134 6.98591615,11.1712693 C6.9859168,11.1070292 6.99570381,11.0454915 7.01236856,10.9953236 C7.06201663,10.8411154 7.1663502,10.7178778 7.30246394,10.649024 L8.8901673,9.84209192 C9.3842338,9.61421652 9.7485484,9.13018721 9.83667395,8.55689222 L10.0999871,6.79704028 C10.1192304,6.59695377 10.2047171,6.44611868 10.3373247,6.34723818 C10.4350405,6.2745066 10.5535976,6.23521779 10.6752852,6.23540246 C10.7085164,6.2354031 10.7406721,6.2381165 10.765482,6.24246465 L12.557199,6.54239922 C12.6471331,6.55801014 12.7419369,6.56616075 12.8375617,6.56616075 C13.2922355,6.56616075 13.7194005,6.38121694 14.0325908,6.05947145 L15.3104745,4.74582032 C15.4185141,4.63441418 15.563348,4.5714838 15.7192825,4.57142857 C15.8751873,4.57144242 16.0201172,4.63436365 16.1277219,4.74527626 L17.4060707,6.0595174 C17.719402,6.38132259 18.1465264,6.56621687 18.6011356,6.56621687 C18.6960665,6.56621687 18.7914453,6.55817784 18.8796804,6.54261338 L20.662274,6.24424895 C20.6969596,6.238242 20.7293823,6.23545922 20.7626799,6.23545922 C20.8806953,6.23545922 20.9987056,6.27254155 21.0416257,6.30522991 C21.2113164,6.41842605 21.3051026,6.56412499 21.3310693,6.73439425 L21.5957444,8.50882736 C21.6547775,9.06111896 22.0005889,9.55994851 22.507184,9.82169518 L24.1354434,10.6487218 C24.2718198,10.7177303 24.3767026,10.8408917 24.4225062,10.9827232 C24.4427739,11.0443618 24.4527528,11.1063187 24.4527528,11.1704286 C24.4527528,11.266296 24.4303528,11.3579513 24.390671,11.4341989 L23.5559789,13.0712014 C23.4319117,13.3100225 23.3650365,13.5809787 23.3650365,13.8604337 C23.3650365,14.1388369 23.4315003,14.4102863 23.5553898,14.6480106 L24.3854503,16.2761862 C24.4303998,16.362921 24.4528896,16.4556094 24.4527534,16.5496839 C24.4527528,16.6138667 24.4429654,16.6754036 24.4263297,16.7254576 C24.3766752,16.8796545 24.2723202,17.002898 24.1361852,17.0717695 L22.5485405,17.8786298 C22.0544675,18.1065516 21.6901772,18.5905414 21.6019793,19.1638176 L21.3386543,20.9238312 C21.3193982,21.1239096 21.2338849,21.2748058 21.101298,21.3736923 C21.0036465,21.4463807 20.8851231,21.4856566 20.7634717,21.485465 C20.7301549,21.4854643 20.6980145,21.4827507 20.6733259,21.4784135 L18.8846475,21.1792123 C18.791485,21.1628253 18.6966541,21.1546786 18.601025,21.1546786 Z M21.7464789,13.5999821 C21.7464789,10.3409804 19.1381638,7.65714289 15.8873063,7.65714289 C12.6364488,7.65714289 10.028169,10.3410162 10.028169,13.5999821 C10.028169,16.8589839 12.6364135,19.5428572 15.8873063,19.5428572 C19.1381991,19.5428572 21.7464789,16.8973163 21.7464789,13.5999821 Z" id="Combined-Shape"></path>
                <path d="M19.5925976,19.2000907 L19.5925423,19.7714286 L19.5925976,19.2 L19.2055777,19.6152543 L23.9123461,24.1282254 L21.5750187,24.1887376 L21.5138438,26.3969049 L16.9168665,21.6726309 L16.7523223,21.8373487 C16.6947654,21.8044056 16.6439909,21.7754104 16.5991555,21.7499144 C16.2667766,21.5609042 16.2607901,21.5641993 16.2375563,21.5769879 C16.201656,21.5992449 16.201656,21.5992449 16.1981599,21.6019093 C16.1768477,21.6164702 16.1693484,21.6213944 16.1574124,21.6288477 C16.1190415,21.6528081 16.0746913,21.6772124 16.0254863,21.7000772 C15.8127394,21.7989377 15.6119558,21.8239946 15.4497465,21.7551661 C15.3872868,21.7286633 15.3254068,21.6872029 15.2626805,21.6261694 L14.8656719,21.2398749 L10.0446668,26.100541 L9.9835879,24.188 L7.43661972,24.1254407 L11.625706,19.9286466 C11.7737863,20.025296 11.9334142,20.1292754 12.1024313,20.2391237 C12.7476159,20.658445 13.3979652,21.077793 14.0124243,21.4693716 C14.0777995,21.5110209 14.0777995,21.5110209 14.1432222,21.5526486 C14.2289557,21.6071824 14.313293,21.6607253 14.3961732,21.713236 C14.6945018,21.9022491 14.9739521,22.0778888 15.2316902,22.2382325 L15.5274948,22.422258 L19.8889071,19.6859744 L19.5925976,19.2000907 Z" id="Path"></path>
                <path d="M20.7323944,13.5999835 C20.7323944,16.3280852 18.5769854,18.5142857 15.8873077,18.5142857 C13.2102162,18.5142857 11.0422535,16.3055193 11.0422535,13.5999835 C11.0422535,10.8944881 13.2102415,8.68571429 15.8873077,8.68571429 C18.5643927,8.68571429 20.7323944,10.8944745 20.7323944,13.5999835 Z M12.0228963,12.4333286 L13.8711097,14.3104851 L13.5188628,16.8869915 L15.887324,15.7563776 L18.2557851,16.8869915 L17.9035382,14.310485 L19.7517516,12.4333286 L17.1296527,11.9568561 L15.887324,9.67509481 L14.6449952,11.9568561 L12.0228963,12.4333286 Z M16.4027238,12.9858159 L17.431347,13.1727313 L16.7105369,13.9048294 L16.854079,14.9547667 L15.887324,14.4932743 L14.9205689,14.9547667 L15.064111,13.9048294 L14.3433009,13.1727313 L15.3719241,12.9858159 L15.8873239,12.0391909 L16.4027238,12.9858159 Z" id="Combined-Shape"></path>
            </g>
        </g>
    </g>
</svg>