<?xml version="1.0" encoding="UTF-8"?>
<svg width="48px" height="48px" viewBox="0 0 48 48" version="1.1" xmlns="http://www.w3.org/2000/svg" xmlns:xlink="http://www.w3.org/1999/xlink">
    <!-- Generator: Sketch 43 (38999) - http://www.bohemiancoding.com/sketch -->
    <title>silver</title>
    <desc>Created with Sketch.</desc>
    <defs></defs>
    <g id="signup" stroke="none" stroke-width="1" fill="none" fill-rule="evenodd">
        <g id="export" transform="translate(-152.000000, -691.000000)" fill="#FF7819">
            <path d="M176,731 C167.163444,731 160,723.836556 160,715 C160,706.163444 167.163444,699 176,699 C184.836556,699 192,706.163444 192,715 C192,723.836556 184.836556,731 176,731 Z M167.870989,706.871212 L167.6798,711.459711 L164.571429,714.855032 L167.6798,718.250309 L167.870989,722.838806 L172.465169,723.078077 L175.860443,726.138636 L179.255717,723.078077 L183.849944,722.838806 L184.041089,718.250306 L187.149458,714.855032 L184.041089,711.459714 L183.849944,706.871212 L179.255715,706.631941 L175.860443,703.571429 L172.465171,706.631941 L167.870989,706.871212 Z M178.791551,707.752173 L182.751385,707.958405 L182.916576,711.923883 L185.6,714.855027 L182.916576,717.786133 L182.751385,721.751614 L178.791549,721.957845 L175.860443,724.599995 L172.929337,721.957845 L168.969538,721.751614 L168.804308,717.786131 L166.120886,714.855027 L168.804308,711.923885 L168.969538,707.958405 L172.929335,707.752173 L175.860443,705.11006 L178.791551,707.752173 Z M181.828247,714.866217 C181.828247,711.586019 179.16372,708.909633 175.87163,708.909633 C172.579557,708.909633 169.915046,711.586036 169.915046,714.866217 C169.915046,718.146436 172.579529,720.822834 175.87163,720.822834 C179.17513,720.822834 181.828247,718.169716 181.828247,714.866217 Z M180.68539,714.866217 C180.68539,717.538534 178.543947,719.679976 175.87163,719.679976 C173.211856,719.679976 171.057903,717.516392 171.057903,714.866217 C171.057903,712.216082 173.211881,710.05249 175.87163,710.05249 C178.531398,710.05249 180.68539,712.216069 180.68539,714.866217 Z M171.646206,713.984578 L173.603526,715.944549 L173.230286,718.636155 L175.739951,717.455009 L178.249616,718.636155 L177.876376,715.944549 L179.833695,713.984578 L177.056612,713.48705 L175.739951,711.102823 L174.423289,713.48705 L171.646206,713.984578 Z M176.319299,714.51601 L177.480142,714.72398 L176.666332,715.538893 L176.827885,716.70393 L175.739951,716.191906 L174.652016,716.70393 L174.81357,715.538893 L173.999759,714.72398 L175.160603,714.51601 L175.739951,713.466919 L176.319299,714.51601 Z" id="silver_big"></path>
        </g>
    </g>
</svg>