<?xml version="1.0" encoding="UTF-8"?>
<svg width="24px" height="24px" viewBox="0 0 24 24" version="1.1" xmlns="http://www.w3.org/2000/svg" xmlns:xlink="http://www.w3.org/1999/xlink">
    <!-- Generator: Sketch 43 (38999) - http://www.bohemiancoding.com/sketch -->
    <title>code</title>
    <desc>Created with Sketch.</desc>
    <defs></defs>
    <g id="01_main" stroke="none" stroke-width="1" fill="none" fill-rule="evenodd">
        <g id="05_mine_0803-copy-2" transform="translate(-322.000000, -86.000000)" fill="#FFFFFF">
            <g id="code" transform="translate(325.000000, 89.000000)">
                <g id="Group">
                    <path d="M7.71473893,0 L0.569999417,0 C0.255198694,0 0,0.243046394 0,0.542856588 L0,7.34737041 C0,7.64718062 0.255198714,7.89022699 0.569999417,7.89022699 L7.71473893,7.89022699 C8.02953965,7.89022699 8.28473834,7.6471806 8.28473834,7.34737041 L8.28473836,0.542875733 C8.28475847,0.243046394 8.02953965,0 7.71473893,0 Z M6.75650205,6.40603724 L1.5282564,6.40603724 L1.5282564,1.48420892 L6.75650205,1.48420892 L6.75650205,6.40603724 Z" id="Shape"></path>
                    <path d="M2.7,4.44357882 C2.7,5.00415193 3.177156,5.45858622 3.76575777,5.45858622 C4.35435953,5.45858622 4.83151553,5.00415193 4.83151553,4.44357882 C4.83151553,3.88300572 4.35435953,3.42857143 3.76575777,3.42857143 C3.177156,3.42857143 2.7,3.88300572 2.7,4.44357882 Z" id="Shape"></path>
                    <path d="M16.7147389,0 L9.56999942,0 C9.25519869,0 9,0.243046394 9,0.542856588 L9,7.34737041 C9,7.64718062 9.25519871,7.89022699 9.56999942,7.89022699 L16.7147389,7.89022699 C17.0295396,7.89022699 17.2847383,7.6471806 17.2847383,7.34737041 L17.2847384,0.542875733 C17.2847585,0.243046394 17.0295396,0 16.7147389,0 Z M15.756502,6.40603724 L10.5282564,6.40603724 L10.5282564,1.48420892 L15.756502,1.48420892 L15.756502,6.40603724 Z" id="Shape"></path>
                    <path d="M12.6,4.44357882 C12.6,5.00415193 13.077156,5.45858622 13.6657578,5.45858622 C14.2543595,5.45858622 14.7315155,5.00415193 14.7315155,4.44357882 C14.7315155,3.88300572 14.2543595,3.42857143 13.6657578,3.42857143 C13.077156,3.42857143 12.6,3.88300572 12.6,4.44357882 Z" id="Shape"></path>
                    <path d="M7.71473895,9.42857143 L0.569999417,9.42857143 C0.255198694,9.42857143 0,9.67161782 0,9.97142802 L0,16.7759418 C0,17.075752 0.255198714,17.3187984 0.569999417,17.3187984 L7.71473893,17.3187984 C8.02953965,17.3187984 8.28473834,17.075752 8.28473834,16.7759418 L8.28473836,9.97142803 C8.28475847,9.67161782 8.02955975,9.42857143 7.71473895,9.42857143 Z M6.75650205,15.8346087 L1.5282564,15.8346087 L1.5282564,10.9127804 L6.75650205,10.9127804 L6.75650205,15.8346087 Z" id="Shape"></path>
                    <path d="M2.7,13.0150074 C2.7,13.5755805 3.177156,14.0300148 3.76575777,14.0300148 C4.35435953,14.0300148 4.83151553,13.5755805 4.83151553,13.0150074 C4.83151553,12.4544343 4.35435953,12 3.76575777,12 C3.177156,12 2.7,12.4544343 2.7,13.0150074 Z" id="Shape"></path>
                    <polygon id="Shape" points="12.6 15.4285714 14.3494514 15.4285714 14.3494514 17.1644639 12.6 17.1644639"></polygon>
                    <path d="M16.2,17.1644447 L17.3794319,17.1644447 C17.6942326,17.1644447 17.9494514,16.9213983 17.9494514,16.6215881 L17.9494514,15.4285714 L16.2,15.4285714 L16.2,17.1644447 Z" id="Shape"></path>
                    <path d="M16.7477573,9.42857143 L15.7967193,9.42857143 L15.7967193,12.4544425 L14.1277024,12.4544425 L14.1277024,9.42857143 L9.56999942,9.42857143 C9.25519869,9.42857143 9,9.67161782 9,9.97142802 L9,16.7786613 C9,17.0784715 9.25519871,17.3215179 9.56999942,17.3215179 L10.550939,17.3215179 L10.550939,15.5856254 L10.550939,13.9960856 L10.550939,12.8757472 L12.149837,12.8757472 L12.149837,13.9960856 L17.3177567,13.9960856 L17.3177567,9.97144718 C17.3177769,9.67161782 17.0625781,9.42857143 16.7477573,9.42857143 Z" id="Shape"></path>
                </g>
            </g>
        </g>
    </g>
</svg>