<?xml version="1.0" encoding="UTF-8"?>
<svg width="24px" height="24px" viewBox="0 0 24 24" version="1.1" xmlns="http://www.w3.org/2000/svg" xmlns:xlink="http://www.w3.org/1999/xlink">
    <!-- Generator: Sketch 46.1 (44463) - http://www.bohemiancoding.com/sketch -->
    <title>message_24</title>
    <desc>Created with Sketch.</desc>
    <defs></defs>
    <g id="01_main" stroke="none" stroke-width="1" fill="none" fill-rule="evenodd">
        <g id="05_mine_0803-copy-2" transform="translate(-25.000000, -301.000000)">
            <g id="sugguestion-copy" transform="translate(25.000000, 301.000000)" stroke="#979797" opacity="0">
                <rect id="Rectangle-12-Copy-5" x="0.5" y="0.5" width="23" height="23"></rect>
            </g>
            <g id="消息-(1)" transform="translate(26.000000, 302.000000)" fill="#00BFD7">
                <path d="M5.07037654,9.08665287 C5.07037654,9.92186553 5.75792312,10.5989301 6.60606615,10.5989301 C7.45420918,10.5989301 8.14175576,9.92186553 8.14175576,9.08665287 C8.14175576,8.25144021 7.45420918,7.57437563 6.60606615,7.57437563 C5.75792312,7.57437563 5.07037654,8.25144021 5.07037654,9.08665287 L5.07037654,9.08665287 Z M9.46433523,9.08665287 C9.46433523,9.92186553 10.1518818,10.5989301 11.0000248,10.5989301 C11.8481679,10.5989301 12.5357144,9.92186553 12.5357144,9.08665287 C12.5357144,8.25144021 11.8481679,7.57437563 11.0000248,7.57437563 C10.1518818,7.57437563 9.46433523,8.25144021 9.46433523,9.08665287 Z M13.8583436,9.08665287 C13.8583436,9.92186553 14.5458902,10.5989301 15.3940332,10.5989301 C16.2421762,10.5989301 16.9297228,9.92186553 16.9297228,9.08665287 L16.9297228,9.08665287 C16.9297228,8.25144021 16.2421762,7.57437563 15.3940332,7.57437563 C14.5458902,7.57437563 13.8583436,8.25144021 13.8583436,9.08665287 L13.8583436,9.08665287 Z M14.1140062,18.3940281 C18.6725607,17.2478276 22,13.6495124 22,9.38780693 C22,4.20306956 17.0751166,0 11,0 C4.92488336,0 0,4.20306956 0,9.38780693 C0,13.6494879 3.32743926,17.2478276 7.88599379,18.3940281 L10.9999752,22 L14.1139565,18.3940281 L14.1140062,18.3940281 Z M8.67844351,16.2965907 C5.1574936,15.4364022 2.58039872,12.6690432 2.58039872,9.38780693 C2.58039872,5.4193298 6.34998126,2.2022334 11,2.2022334 C15.6500187,2.2022334 19.4196013,5.4193298 19.4196013,9.38780693 C19.4196013,12.6672819 16.8452389,15.4334423 13.3271705,16.2951475 L11.0554201,18.8901459 C11.0890795,18.8904149 11.0216613,18.8901459 11.0554201,18.8901459 L8.67841867,16.2965663 L8.67844351,16.2965907 Z" id="Shape"></path>
            </g>
        </g>
    </g>
</svg>