<?xml version="1.0" encoding="UTF-8"?>
<svg width="32px" height="32px" viewBox="0 0 32 32" version="1.1" xmlns="http://www.w3.org/2000/svg" xmlns:xlink="http://www.w3.org/1999/xlink">
    <!-- Generator: Sketch 43 (38999) - http://www.bohemiancoding.com/sketch -->
    <title>my_fans</title>
    <desc>Created with Sketch.</desc>
    <defs></defs>
    <g id="01_main" stroke="none" stroke-width="1" fill="none" fill-rule="evenodd">
        <g id="05_mine_0803-copy-2" transform="translate(-125.000000, -146.000000)" fill="#28D524">
            <g id="my_fans" transform="translate(125.000000, 146.000000)">
                <path d="M16,0 C7.16342856,0 0,7.16347012 0,16 C0,24.8365714 7.16347012,32 16,32 C24.8365299,32 31.9999584,24.8365714 31.9999584,16 C31.9999584,7.16342856 24.8364883,0 16,0 Z M14.1635325,24.5316156 C14.149361,24.5316156 14.1353558,24.5316156 14.1211844,24.531574 C12.2353454,24.5275013 10.4678234,24.2551688 9.14427012,23.7646546 C8.38532987,23.4833455 7.78248312,23.1334649 7.35243634,22.7245299 C6.82792725,22.2258286 6.55143894,21.623813 6.55281037,20.9835637 C6.55596881,19.5065767 6.98443634,18.0759273 7.79195844,16.8462546 C8.41047272,15.9044156 9.22460259,15.1174234 10.1764571,14.5350649 C9.56617141,13.729413 9.22796881,12.7401974 9.22796881,11.7137039 C9.22796881,9.137413 11.3239272,7.04145456 13.9002182,7.04145456 C16.4764675,7.04145456 18.5724675,9.137413 18.5724675,11.7137039 C18.5724675,12.6700467 18.2886649,13.5793039 17.7603324,14.3488416 C18.7994182,14.9159896 19.6914285,15.7191896 20.3717818,16.7068675 C20.3852052,16.7264 20.3982545,16.7461402 20.4115532,16.7657974 C19.8100779,16.391813 19.0506389,16.1831065 18.2963948,16.1888831 C17.5550753,16.1947844 16.8686545,16.4088104 16.3634701,16.791439 C15.7527272,17.254026 15.4163948,17.9515013 15.4163948,18.7552831 C15.4163948,20.0704416 16.3084052,21.6560208 18.0676156,23.4678026 C18.2345142,23.6396883 18.4009974,23.8050909 18.5644883,23.963013 C17.326213,24.3315532 15.7894234,24.5316156 14.1635325,24.5316156 Z M23.3629091,23.0707532 C22.3817143,24.0812467 21.4141507,24.8136727 21.3735065,24.8443844 C21.2725195,24.9204779 21.1524987,24.9585454 21.0323532,24.9585454 C20.9122493,24.9585454 20.7922701,24.9205195 20.6912416,24.8443844 C20.6505558,24.8136727 19.6830338,24.0812883 18.7017974,23.0707532 C17.3189402,21.6465039 16.6177247,20.4000831 16.6177247,19.3661922 C16.6177247,18.7343792 16.8821195,18.1861403 17.3622442,17.8224623 C17.7592935,17.5217039 18.2989714,17.3534338 18.8817039,17.3487792 C19.5244052,17.3439169 20.172052,17.5369558 20.6609455,17.8791065 C20.7941403,17.9723221 20.9142442,18.0751792 21.0205091,18.1862649 C21.1690805,18.0285091 21.3454961,17.8878753 21.547387,17.7684364 C21.9670026,17.5201247 22.4852779,17.3720104 23.0068364,17.3513143 C23.5535377,17.3295377 24.0615065,17.4429507 24.4756364,17.6791273 C25.1020052,18.0363637 25.4470649,18.6355533 25.4471065,19.3662338 C25.4471065,20.4001247 24.7458078,21.6465455 23.3629091,23.0707532 Z" id="Shape"></path>
            </g>
        </g>
    </g>
</svg>