<?xml version="1.0" encoding="UTF-8"?>
<svg width="24px" height="24px" viewBox="0 0 24 24" version="1.1" xmlns="http://www.w3.org/2000/svg" xmlns:xlink="http://www.w3.org/1999/xlink">
    <!-- Generator: Sketch 46.1 (44463) - http://www.bohemiancoding.com/sketch -->
    <title>recommoned</title>
    <desc>Created with Sketch.</desc>
    <defs></defs>
    <g id="01_main" stroke="none" stroke-width="1" fill="none" fill-rule="evenodd">
        <g id="05_mine_0803-copy-2" transform="translate(-85.000000, -537.000000)" fill="#28D424">
            <g id="recommoned" transform="translate(88.000000, 539.000000)">
                <g id="Group">
                    <path d="M9.08476936,15.3707477 L16.9549616,18.5710009 L16.9549616,1.63234434 C16.9560419,1.52434651 16.913951,1.4203887 16.8380389,1.34356386 C16.7621268,1.26673902 16.6586795,1.22340864 16.5506765,1.22319803 L1.6318253,1.22319803 C1.52396346,1.22351724 1.42068269,1.26683951 1.34487012,1.34356456 C1.26905756,1.42028962 1.22697401,1.52408129 1.22794524,1.63193924 L1.22794524,18.5701907 L9.08476936,15.3707477 L9.08476936,15.3707477 Z M0.0126592215,1.63234434 C0.011583489,1.20210154 0.181659897,0.789094146 0.485394112,0.484372052 C0.789128326,0.179649959 1.20158127,0.00823334873 1.6318253,0.00791201044 L16.5506765,0.00791201044 C16.9809204,0.00812604744 17.3934159,0.179439618 17.697226,0.484085683 C18.0010362,0.788731749 18.1712157,1.20169639 18.1702476,1.63193924 L18.1702476,18.7532938 C18.1702476,19.6501749 17.4949537,20.1022613 16.6701796,19.7672474 L9.08517446,16.6828515 L1.5107018,19.7672474 C0.683497104,20.1038816 0.0126592215,19.6522003 0.0126592215,18.7532938 L0.0126592215,1.63193924 L0.0126592215,1.63234434 Z" id="Shape"></path>
                    <path d="M7.64587071,9.39640161 L6.17942559,7.96722526 L8.20571249,7.67272094 L9.11191075,5.83682886 L10.0177039,7.67272094 L12.0439908,7.96722526 L10.5775457,9.39640161 L10.9239022,11.4141815 L9.11191075,10.4613973 L7.29951419,11.4141815 L7.64587071,9.39640161 L7.64587071,9.39640161 Z M10.5086795,6.51617375 L10.9664372,6.84835193 L10.8246539,6.56194951 L10.5086795,6.51617375 Z M7.25738429,6.84835193 L7.71514201,6.51617375 L7.39876257,6.56194951 L7.25697918,6.84875701 L7.25738429,6.84835193 Z M10.7322921,12.686586 C11.5728649,13.1281399 12.3538888,12.5618166 12.1930659,11.6252362 L11.8835731,9.82053643 L13.1948667,8.54246065 C13.8746167,7.87972466 13.5772767,6.96218372 12.6370504,6.8252615 L10.8250589,6.56194951 L10.0148683,4.9200981 C9.5943793,4.0685877 8.6294422,4.0681826 8.20895324,4.9200981 L7.39876257,6.56194951 L5.58677111,6.8252615 C4.64694992,6.96177864 4.34839466,7.87931958 5.02854973,8.54286573 L6.33984334,9.82053643 L6.03035051,11.6252362 C5.86993276,12.5610064 6.65014638,13.1289501 7.49112431,12.686586 L9.11150565,11.8346705 L10.7322921,12.686586 L10.7322921,12.686586 Z" id="Shape"></path>
                </g>
            </g>
        </g>
    </g>
</svg>