<?xml version="1.0" encoding="UTF-8"?>
<svg width="24px" height="24px" viewBox="0 0 24 24" version="1.1" xmlns="http://www.w3.org/2000/svg" xmlns:xlink="http://www.w3.org/1999/xlink">
    <!-- Generator: Sketch 43 (38999) - http://www.bohemiancoding.com/sketch -->
    <title>shop_order copy</title>
    <desc>Created with Sketch.</desc>
    <defs></defs>
    <g id="01_main" stroke="none" stroke-width="1" fill="none" fill-rule="evenodd">
        <g id="05_mine_0803-copy-2" transform="translate(-80.000000, -461.000000)" fill-rule="nonzero" fill="#00BCD4">
            <g id="order-copy" transform="translate(84.000000, 463.000000)">
                <path d="M15.7265576,18.7538634 L3.63300107,18.7538634 L3.63300107,17.5048132 L13.3086639,17.5048132 C13.9749595,17.5048132 14.5189581,16.9442342 14.5189581,16.2558772 L14.5189581,3.76532955 L15.7265576,3.76532955 L15.7265576,18.7538634 Z M2.97782752,15.0068041 C2.64469113,15.0068041 2.37280598,14.7265375 2.37280598,14.382279 C2.37280598,14.0382718 2.64469113,13.7577311 2.97782752,13.7577311 L11.4935993,13.7577311 C11.8264844,13.7577311 12.0986208,14.0382718 12.0986208,14.382279 C12.0986208,14.7265147 11.8264844,15.0068041 11.4935993,15.0068041 L2.97782752,15.0068041 Z M2.97782752,10.0105349 L11.4935993,10.0105349 C11.8264844,10.0105349 12.0986208,10.2910756 12.0986208,10.6350599 C12.0986208,10.9793184 11.8264844,11.2596079 11.4935993,11.2596079 L2.97782752,11.2596079 C2.64469113,11.2596079 2.37280598,10.9793412 2.37280598,10.6350599 C2.37280598,10.2910756 2.64469113,10.0105349 2.97782752,10.0105349 L2.97782752,10.0105349 Z M2.97782752,6.26347562 L11.4935993,6.26347562 C11.8264844,6.26347562 12.0986208,6.54401633 12.0986208,6.88800071 C12.0986208,7.23225916 11.8264844,7.51252581 11.4935993,7.51252581 L2.97782752,7.51252581 C2.64469113,7.51252581 2.37280598,7.23225916 2.37280598,6.88800071 C2.37280598,6.54401633 2.64469113,6.26347562 2.97782752,6.26347562 L2.97782752,6.26347562 Z M6.60549023,2.51641638 L11.4935993,2.51641638 C11.8264844,2.51641638 12.0986208,2.79695709 12.0986208,3.14094148 C12.0986208,3.48506289 11.8264844,3.76532955 11.4935993,3.76532955 L6.60549023,3.76532955 C6.27265074,3.76532955 6.00076559,3.48506289 6.00076559,3.14094148 C6.00076559,2.79695709 6.27265074,2.51641638 6.60549023,2.51641638 L6.60549023,2.51641638 Z M15.7265576,2.51641638 L14.5189581,2.51641638 L14.5189581,1.26734335 C14.5189581,0.579100523 13.9749595,0.0182703166 13.3086639,0.0182703166 L1.21540427,0.0182703166 C0.546413785,0.0182703166 0.00508714128,0.579100523 0.00508714128,1.26734335 L0.00508714128,16.2558772 C0.00508714128,16.9442342 0.546413785,17.5048132 1.21540427,17.5048132 L2.42270679,17.5048132 L2.42270679,18.7538634 C2.42270679,19.4423574 2.9667283,20.0032105 3.63300107,20.0032105 L15.7265576,20.0032105 C16.395274,20.0032105 16.9366006,19.4423574 16.9366006,18.7538634 L16.9366006,3.76532955 C16.9366006,3.07722375 16.395274,2.51641638 15.7265576,2.51641638 L15.7265576,2.51641638 Z" id="Shape"></path>
            </g>
        </g>
    </g>
</svg>