<?xml version="1.0" encoding="UTF-8"?>
<svg width="24px" height="24px" viewBox="0 0 24 24" version="1.1" xmlns="http://www.w3.org/2000/svg" xmlns:xlink="http://www.w3.org/1999/xlink">
    <!-- Generator: Sketch 43 (38999) - http://www.bohemiancoding.com/sketch -->
    <title>sugguestion@1.5x</title>
    <desc>Created with Sketch.</desc>
    <defs></defs>
    <g id="01_main" stroke="none" stroke-width="1" fill="none" fill-rule="evenodd">
        <g id="05_mine_0803-copy-2" transform="translate(-25.000000, -592.000000)" fill="#00C0D8">
            <g id="sugguestion" transform="translate(27.000000, 595.000000)">
                <path d="M19.24,3.7468276 L18.3692308,4.52478226 L14.8953846,1.41846151 L15.7630769,0.643255802 C16.7230769,-0.214418601 18.28,-0.214418601 19.24,0.643255802 C20.2,1.49818125 20.2,2.88915319 19.24,3.7468276 L19.24,3.7468276 L19.24,3.7468276 Z M16.6307692,6.07519368 L12.2861538,9.95122223 L6.23076923,12.30158 L8.80923077,6.84765044 L13.1569231,2.96887293 L16.6307692,6.07519368 L16.6307692,6.07519368 L16.6307692,6.07519368 Z M7.47692308,2.24589739 L3.73846154,2.24589739 C3.04923077,2.24589739 2.49230769,2.74620746 2.49230769,3.3619737 L2.49230769,14.5199878 C2.49230769,15.135754 3.04923077,15.6360641 3.73846154,15.6360641 L16.2030769,15.6360641 C16.8923077,15.6360641 17.4492308,15.135754 17.4492308,14.5199878 L17.4492308,10.0584315 C17.4492308,9.44266529 18.0061538,8.94235523 18.6953846,8.94235523 C19.3846154,8.94235523 19.9415385,9.44266529 19.9415385,10.0584315 L19.9415385,15.6388131 C19.9415385,16.8703455 18.8246154,17.8709657 17.4492308,17.8709657 L2.49230769,17.8709657 C1.11692308,17.8709657 1.77635684e-15,16.8730945 1.77635684e-15,15.6388131 L2.11796392e-15,2.24589739 C2.11796392e-15,1.01436492 1.11692308,0.0137447821 2.49230769,0.0137447821 L7.47692308,0.0137447821 C8.16615385,0.0137447821 8.72307692,0.51405485 8.72307692,1.12982109 C8.72307692,1.74833628 8.16615385,2.24589739 7.47692308,2.24589739 L7.47692308,2.24589739 L7.47692308,2.24589739 Z" id="Shape"></path>
            </g>
        </g>
    </g>
</svg>