<?xml version="1.0" encoding="UTF-8"?>
<svg width="32px" height="35px" viewBox="0 0 32 35" version="1.1" xmlns="http://www.w3.org/2000/svg" xmlns:xlink="http://www.w3.org/1999/xlink">
    <!-- Generator: Sketch 43 (38999) - http://www.bohemiancoding.com/sketch -->
    <title>delete_pic</title>
    <desc>Created with Sketch.</desc>
    <defs>
        <path d="M9.58943329,28.090575 C10.1784108,28.090575 10.6549276,27.6164723 10.6549276,27.0305635 L10.6549276,15.3704597 C10.6549276,14.7845509 10.1783726,14.3104482 9.58943329,14.3104482 C9.00049393,14.3104482 8.52393899,14.7845889 8.52393899,15.3704597 L8.52393899,27.0306048 C8.52393899,27.6165141 9.00049393,28.090575 9.58943329,28.090575 Z M15.9824258,28.090575 C16.5714034,28.090575 17.0479201,27.6164723 17.0479201,27.0305635 L17.0479201,15.3704597 C17.0479201,14.7845509 16.5713652,14.3104482 15.9824258,14.3104482 C15.3934865,14.3104482 14.9169315,14.7845889 14.9169315,15.3704597 L14.9169315,27.0306048 C14.9168933,27.6165141 15.3934483,28.090575 15.9824258,28.090575 Z M22.3753802,28.090575 C22.9643577,28.090575 23.4408745,27.6164723 23.4408745,27.0305635 L23.4408745,15.3704597 C23.4408745,14.7845509 22.9643195,14.3104482 22.3753802,14.3104482 C21.7864408,14.3104482 21.3098859,14.7845889 21.3098859,15.3704597 L21.3098859,27.0306048 C21.3098897,27.6165141 21.7864026,28.090575 22.3753802,28.090575 Z M27.7028441,3.71031466 L23.2899727,3.71031466 C22.8134177,1.88634042 21.1589879,0.530284009 19.1788647,0.530284009 L12.7859093,0.530284009 C10.8057862,0.530284009 9.15135635,1.88634042 8.6748014,3.71031466 L4.26196957,3.71031466 C1.91145905,3.71031466 0,5.61298627 0,7.950353 L0,9.01040156 L1.06549247,9.01040156 L1.06549247,10.0704112 L3.19647741,10.0704112 L3.19647741,30.2106337 C3.19647741,32.5480384 5.10793645,34.450672 7.45844698,34.450672 L24.5063656,34.450672 C26.8569563,34.450672 28.7683351,32.5480384 28.7683351,30.2106337 L28.7683351,10.0703725 L30.8993201,10.0703725 L30.8993201,9.01036281 L31.9648126,9.01036281 L31.9648126,7.95031425 C31.9648136,5.61294828 30.0534348,3.71031466 27.7028441,3.71031466 Z M12.7859086,2.65030318 L19.1788634,2.65030318 C19.9633967,2.65030318 20.6439161,3.07989998 21.0133259,3.71031466 L10.9514854,3.71031466 C11.3208978,3.07990377 12.0013753,2.65030318 12.7859086,2.65030318 Z M26.6373498,30.2105942 C26.6373498,31.3803071 25.6811505,32.3306133 24.506365,32.3306133 L7.45844698,32.3306133 C6.2836996,32.3306133 5.17972806,31.3803071 5.17972806,30.2105942 L5.32746219,10.0703722 L26.6373507,10.0703722 L26.6373507,30.2105949 L26.6373498,30.2105942 Z M2.13094644,7.950353 C2.13094644,6.78064009 3.08722204,5.83033383 4.26193123,5.83033383 L27.702843,5.83033383 C28.8776705,5.83033383 29.8338278,6.78064009 29.8338278,7.950353 L2.13094553,7.950353 L2.13094644,7.950353 Z" id="path-1"></path>
        <filter x="-0.8%" y="-0.7%" width="101.6%" height="101.5%" filterUnits="objectBoundingBox" id="filter-2">
            <feOffset dx="0" dy="-0.5" in="SourceAlpha" result="shadowOffsetInner1"></feOffset>
            <feComposite in="shadowOffsetInner1" in2="SourceAlpha" operator="arithmetic" k2="-1" k3="1" result="shadowInnerInner1"></feComposite>
            <feColorMatrix values="0 0 0 0 0.709803922   0 0 0 0 0.709803922   0 0 0 0 0.709803922  0 0 0 1 0" type="matrix" in="shadowInnerInner1"></feColorMatrix>
        </filter>
    </defs>
    <g id="shop_manage_0723" stroke="none" stroke-width="1" fill="none" fill-rule="evenodd">
        <g id="03_编辑相册" transform="translate(-171.000000, -620.000000)">
            <g id="delete_pic" transform="translate(171.000000, 620.000000)">
                <g id="Shape">
                    <use fill="#C9C9CE" fill-rule="evenodd" xlink:href="#path-1"></use>
                    <use fill="black" fill-opacity="1" filter="url(#filter-2)" xlink:href="#path-1"></use>
                </g>
            </g>
        </g>
    </g>
</svg>