<?xml version="1.0" encoding="UTF-8"?>
<svg width="85px" height="85px" viewBox="0 0 85 85" version="1.1" xmlns="http://www.w3.org/2000/svg" xmlns:xlink="http://www.w3.org/1999/xlink">
    <!-- Generator: Sketch 43 (38999) - http://www.bohemiancoding.com/sketch -->
    <title>Shape</title>
    <desc>Created with Sketch.</desc>
    <defs></defs>
    <g id="svg尝试" stroke="none" stroke-width="1" fill="none" fill-rule="evenodd">
        <g id="Artboard-Copy-2" transform="translate(-39.000000, -42.000000)" fill="#FF7819">
            <path d="M123.016173,50.8113388 L71.904628,101.458233 L58.4297663,107.498688 L63.5409208,94.488477 L115.117116,43.3769323 C116.511067,41.5183306 117.905018,43.8415827 117.905018,43.8415827 L122.551522,48.4880868 C124.410124,49.882038 123.016173,50.8113388 123.016173,50.8113388 Z M53.7832622,56.3871438 C50.9953597,56.3871438 49.1367581,58.2457453 49.1367581,61.0336478 L49.1367581,112.145193 C49.1367581,114.933095 50.9953598,116.791697 53.7832622,116.791697 L104.894807,116.791697 C107.682709,116.791697 109.541311,114.933095 109.541311,112.145193 L109.541311,84.2661681 L118.834319,74.97316 L118.834319,74.97316 L118.834319,120.97355 C118.834319,126.084705 118.834319,126.084705 113.723165,126.084705 L44.9549045,126.084705 C39.84375,126.084705 39.84375,126.084705 39.84375,120.97355 L39.84375,52.2052901 C39.84375,49.4173876 39.84375,47.0941356 44.9549045,47.0941356 L95.6017988,47.0941356 L86.3087907,56.3871438 L53.7832622,56.3871438 Z" id="Shape"></path>
        </g>
    </g>
</svg>