<?xml version="1.0" encoding="UTF-8"?>
<svg width="85px" height="85px" viewBox="0 0 85 85" version="1.1" xmlns="http://www.w3.org/2000/svg" xmlns:xlink="http://www.w3.org/1999/xlink">
    <!-- Generator: Sketch 43 (38999) - http://www.bohemiancoding.com/sketch -->
    <title>形状</title>
    <desc>Created with Sketch.</desc>
    <defs></defs>
    <g id="svg尝试" stroke="none" stroke-width="1" fill="none" fill-rule="evenodd">
        <g id="Artboard-Copy-3" transform="translate(-39.000000, -42.000000)" fill="#D0011B">
            <g id="形状" transform="translate(39.000000, 42.000000)">
                <path d="M84.0161728,8.81133884 L32.904628,59.4582332 L19.4297663,65.4986884 L24.5409208,52.488477 L76.1171159,1.37693228 C77.5110672,-0.481669385 78.9050183,1.84158269 78.9050183,1.84158269 L83.5515224,6.48808677 C85.410124,7.88203801 84.0161728,8.81133884 84.0161728,8.81133884 Z M14.7832622,14.3871438 C11.9953597,14.3871438 10.1367581,16.2457453 10.1367581,19.0336478 L10.1367581,70.1451926 C10.1367581,72.933095 11.9953598,74.7916966 14.7832622,74.7916966 L65.894807,74.7916966 C68.6827094,74.7916966 70.541311,72.933095 70.541311,70.1451926 L70.5413109,42.2661681 L79.8343191,32.97316 L79.8343191,32.97316 L79.8343191,78.9735502 C79.8343191,84.0847047 79.8343191,84.0847047 74.7231646,84.0847047 L5.95490449,84.0847047 C0.84375,84.0847047 0.84375,84.0847047 0.84375,78.9735502 L0.84375,10.2052901 C0.84375,7.4173876 0.84375,5.0941356 5.95490449,5.0941356 L56.6017988,5.0941356 L47.3087907,14.3871438 L14.7832622,14.3871438 Z" id="Shape"></path>
            </g>
        </g>
    </g>
</svg>