<?xml version="1.0" encoding="UTF-8"?>
<svg width="14px" height="18px" viewBox="0 0 14 18" version="1.1" xmlns="http://www.w3.org/2000/svg" xmlns:xlink="http://www.w3.org/1999/xlink">
    <!-- Generator: Sketch 46.1 (44463) - http://www.bohemiancoding.com/sketch -->
    <title>location</title>
    <desc>Created with Sketch.</desc>
    <defs></defs>
    <g id="my_order" stroke="none" stroke-width="1" fill="none" fill-rule="evenodd" fill-opacity="0.3">
        <g id="00-icon_png" transform="translate(-34.000000, -147.000000)" fill="#000000">
            <path d="M40.9968159,164.914909 C40.9250639,164.971557 40.8385852,165 40.7520849,165 C40.6655846,165 40.5791059,164.971557 40.5073539,164.914909 C40.2416681,164.705794 34,158.929113 34,153.750684 C34,150.028209 37.0291546,147 40.7520633,147 C44.474972,147 47.5041265,150.028209 47.5041265,153.750684 C47.5041697,158.929113 41.2625232,164.705794 40.9968159,164.914909 L40.9968159,164.914909 Z M40.7521065,150.597478 C39.011958,150.597478 37.6013325,152.008485 37.6013325,153.74891 C37.6013325,155.489444 39.011958,156.900343 40.7521065,156.900343 C42.492255,156.900343 43.9028805,155.489358 43.9028805,153.74891 C43.9028589,152.008485 42.4921685,150.597478 40.7521065,150.597478 L40.7521065,150.597478 Z" id="location"></path>
        </g>
    </g>
</svg>