<?xml version="1.0" encoding="UTF-8"?>
<svg width="42px" height="50px" viewBox="0 0 42 50" version="1.1" xmlns="http://www.w3.org/2000/svg" xmlns:xlink="http://www.w3.org/1999/xlink">
    <!-- Generator: Sketch 46.1 (44463) - http://www.bohemiancoding.com/sketch -->
    <title>click</title>
    <desc>Created with Sketch.</desc>
    <defs></defs>
    <g id="signup" stroke="none" stroke-width="1" fill="none" fill-rule="evenodd">
        <g id="icon" transform="translate(-605.000000, -1242.000000)" fill-rule="nonzero" fill="#FFFFFF">
            <g id="click" transform="translate(605.000000, 1242.000000)">
                <path d="M37.245187,19.2173975 L37.118477,19.2173975 C36.1821993,19.2173975 35.413626,19.4865845 34.6731467,19.9444031 C34.0255498,18.0552206 32.3780336,16.6943785 30.2560717,16.6943785 C29.3195073,16.6943785 28.425084,16.9632788 27.6848914,17.4213841 C27.0370078,15.5322016 25.3886316,14.1710728 23.2666697,14.1710728 C22.4390414,14.1710728 21.6698947,14.3786249 20.988757,14.7429877 L20.988757,9.8821411 C20.988757,7.23441881 18.9863382,5.08837626 16.3196954,5.08837626 C13.652766,5.08837626 11.4909563,7.23441881 11.4909563,9.8821411 L11.4909563,28.4930258 L8.55713326,25.571243 C6.67139082,23.6992609 3.33393057,23.9658679 1.72826876,25.571243 C0.122606943,27.1771915 -0.930347144,30.4085823 1.3687794,32.7079955 L14.8539306,46.1045644 C15.1320045,46.3806316 15.4378858,46.6111176 15.7598208,46.8057693 C18.2183382,48.8116282 21.0357716,49.9990325 26.9934334,49.9990325 C40.6032878,49.9990325 41.8632206,42.6564479 41.8632206,33.5989787 L41.8632206,24.0111624 C41.8632206,21.3637268 39.9118298,19.2173975 37.2449003,19.2173975 L37.245187,19.2173975 Z M39.3221411,33.5989787 C39.3221411,41.262925 39.2857335,47.4757268 26.9934334,47.4757268 C21.7862844,47.4757268 18.6598163,46.3146965 16.291888,43.963682 L3.52542889,31.2803583 C2.39593281,30.1508623 2.68002688,28.7068847 3.60455095,27.7820739 C4.52907503,26.8575498 6.22618589,26.8254423 7.11946249,27.7121254 C9.42358471,30.0028166 11.7277758,32.2934385 14.0320358,34.583991 L14.0320358,10.3866876 C14.0320358,9.13248824 15.0563225,8.11622844 16.3196954,8.11622844 C17.5827816,8.11622844 18.4473908,9.13277492 18.4473908,10.3866876 L18.4473908,25.7773617 L18.4731915,25.7773617 C18.4562777,25.8590638 18.4473908,25.9436327 18.4473908,26.0296349 C18.4473908,26.7262531 19.016439,27.2912878 19.7182172,27.2912878 C20.4199955,27.2912878 20.988757,26.7265398 20.988757,26.0299216 C20.988757,25.943346 20.9798701,25.8590638 20.9629563,25.7776484 L20.988757,25.7776484 L20.988757,19.4693841 C20.988757,18.2154714 21.9026741,17.198925 23.166047,17.198925 C23.166047,17.198925 25.4038253,17.1685375 25.4038253,19.4693841 L25.4038253,27.7955476 L25.429626,27.7955476 C25.4129989,27.876963 25.4038253,27.9612452 25.4038253,28.0478208 C25.4038253,28.744439 25.9728735,29.3094737 26.6746517,29.3094737 C27.37643,29.3094737 27.9454782,28.7447256 27.9454782,28.0478208 C27.9454782,27.9612452 27.9365913,27.876963 27.9196775,27.7955476 L27.9454782,27.7955476 L27.9454782,21.9929765 C27.9454782,20.7387772 28.8447749,19.721944 30.1081478,19.721944 C30.1081478,19.721944 32.3929406,19.8641344 32.3929406,21.9929765 L32.3929406,29.3097604 L32.418168,29.3097604 C32.4015409,29.3911758 32.392654,29.4757447 32.392654,29.5620336 C32.392654,30.2586517 32.9617021,30.8233998 33.6631937,30.8233998 C34.3652587,30.8233998 34.9021993,30.2586517 34.9021993,29.5620336 C34.9021993,29.4757447 34.8935991,29.3911758 34.877832,29.3097604 L34.9021993,29.3097604 L34.9021993,24.3138903 C34.9021993,23.0599776 35.8444972,22.0434311 37.1075834,22.0434311 C37.1075834,22.0434311 39.3221411,21.9537021 39.3221411,24.3138903 L39.3221411,33.5989787 L39.3221411,33.5989787 Z M9.60406719,17.0297872 L9.60406719,12.7898768 C9.18726617,11.8595527 8.97166416,10.8516841 8.97137738,9.8322598 C8.97137738,5.81480851 12.2279955,2.55819037 16.2457335,2.55819037 C20.2631848,2.55819037 23.5200896,5.81480851 23.5200896,9.8322598 C23.5200896,10.3809541 23.4550146,10.9138813 23.3389115,11.4273147 C24.253402,11.4628623 25.0790235,11.8429922 25.6801792,12.4524614 C25.9129586,11.6173796 26.0499888,10.7424502 26.0499888,9.8322598 C26.0499888,4.41755879 21.6604345,0.0280044793 16.2457335,0.0280044793 C10.8307458,0.0280044793 6.44119149,4.41755879 6.44119149,9.8322598 C6.44119149,12.6812273 7.66385666,15.2383606 9.60406719,17.0297872 L9.60406719,17.0297872 Z" id="Shape"></path>
            </g>
        </g>
    </g>
</svg>