<?xml version="1.0" encoding="UTF-8"?>
<svg width="31px" height="31px" viewBox="0 0 31 31" version="1.1" xmlns="http://www.w3.org/2000/svg" xmlns:xlink="http://www.w3.org/1999/xlink">
    <!-- Generator: Sketch 46.1 (44463) - http://www.bohemiancoding.com/sketch -->
    <title>close</title>
    <desc>Created with Sketch.</desc>
    <defs></defs>
    <g id="signup" stroke="none" stroke-width="1" fill="none" fill-rule="evenodd" opacity="0.8">
        <g id="icon" transform="translate(-236.000000, -1223.000000)" fill-rule="nonzero" fill="#FFFFFF">
            <g id="close" transform="translate(236.000000, 1223.000000)">
                <path d="M15.4856944,30.975872 C12.3986208,30.975872 9.41735414,30.0696665 6.86429448,28.3548158 C6.75043351,28.2783945 6.63761425,28.2004325 6.52586781,28.1209513 C6.32196377,27.9760282 6.21086421,27.7333322 6.23441925,27.4842846 C6.2579743,27.235237 6.41260537,27.017674 6.64006446,26.9135494 C6.86752354,26.8094249 7.13325419,26.8345578 7.33715823,26.9794809 C7.43876403,27.0518342 7.54145901,27.1227871 7.64508759,27.1923396 C9.96646114,28.7514363 12.6777644,29.5753301 15.4856944,29.5753301 C23.2503691,29.5753301 29.5673557,23.2583435 29.5673557,15.4936688 C29.5673557,7.72899407 23.2503691,1.41200747 15.4856944,1.41200747 C7.72101965,1.41200747 1.40403305,7.72899407 1.40403305,15.4936688 C1.40203032,18.9409065 2.66641983,22.2687748 4.95696846,24.8449811 C5.1231547,25.031958 5.17696614,25.2933911 5.09813252,25.530801 C5.0192989,25.768211 4.81979693,25.9455296 4.57477707,25.9959627 C4.32975721,26.0463957 4.07644381,25.9622813 3.91025757,25.7753044 C1.39177368,22.9428837 0.00151960004,19.283991 0.00364683909,15.4938244 C0.00364683909,6.95691447 6.94894005,0.011776859 15.4856944,0.011776859 C24.0224487,0.011776859 30.9677419,6.95707007 30.9677419,15.4938244 C30.9677419,24.0307343 24.0224487,30.975872 15.4856944,30.975872 Z" id="Shape"></path>
                <path d="M22.040591,9.72267724 C22.0759099,9.75778389 22.0957698,9.80552631 22.0957698,9.85532493 C22.0957698,9.90512355 22.0759099,9.95286596 22.040591,9.98797262 L9.92476075,22.1041141 C9.85143446,22.1773584 9.73263605,22.1773584 9.65930976,22.1041141 L8.77488807,21.2193812 C8.70174738,21.1460728 8.70174738,21.0273942 8.77488807,20.9540858 L20.890874,8.83825554 C20.9260418,8.80305164 20.9737613,8.78327127 21.0235217,8.78327127 C21.073282,8.78327127 21.1210015,8.80305164 21.1561694,8.83825554 L22.040591,9.72267724 L22.040591,9.72267724 Z" id="Shape"></path>
                <path d="M9.79203525,22.1976288 C9.73193503,22.1979016 9.67424482,22.1740181 9.63192443,22.1313438 L8.74750274,21.246611 C8.65929563,21.1580326 8.65929563,21.0148121 8.74750274,20.9262337 L20.8636442,8.81024782 C20.9490678,8.72482426 21.0982867,8.72466866 21.1840215,8.81024782 L22.0684432,9.69466951 C22.1112327,9.73730349 22.1350393,9.79425253 22.1350393,9.85478033 C22.1350393,9.91530814 22.1115439,9.97225718 22.0684432,10.0150468 L9.95245727,22.1314994 C9.90993664,22.1740462 9.85218656,22.197852 9.79203525,22.1976288 L9.79203525,22.1976288 Z M21.0237551,8.8222289 C20.9839218,8.8222289 20.9468894,8.83778875 20.9185705,8.86579647 L8.802429,20.9816268 C8.74457481,21.0398775 8.74457481,21.1339007 8.802429,21.1921515 L9.68685069,22.0768844 C9.74590407,22.1326065 9.83816643,22.1326065 9.89721982,22.0768844 L22.0130501,9.96058729 C22.0409759,9.93273766 22.0566708,9.89491973 22.0566708,9.85548053 C22.0566708,9.81604133 22.0409759,9.7782234 22.0130501,9.75037376 L21.1284728,8.86595207 C21.1008938,8.83784889 21.0631298,8.82208115 21.0237551,8.8222289 Z" id="Shape"></path>
                <path d="M9.65930976,8.83825554 C9.73263605,8.7650113 9.85143446,8.7650113 9.92476075,8.83825554 L22.040591,20.9540858 C22.0759099,20.9891925 22.0957698,21.0369349 22.0957698,21.0867335 C22.0957698,21.1365322 22.0759099,21.1842746 22.040591,21.2193812 L21.1561694,22.1038029 C21.1210627,22.1391218 21.0733203,22.1589817 21.0235217,22.1589817 C20.973723,22.1589817 20.9259806,22.1391218 20.890874,22.1038029 L8.77504367,9.98797262 C8.70179942,9.91464633 8.70179942,9.79584793 8.77504367,9.72252164 L9.65930976,8.83825554 Z" id="Shape"></path>
                <path d="M21.0237551,22.1976288 C20.9632272,22.1976288 20.9064338,22.1741334 20.8636442,22.1310327 L8.74750274,10.0155136 C8.65938086,9.92690002 8.65938086,9.78374984 8.74750274,9.69513631 L9.63176883,8.81087021 C9.71750359,8.72544666 9.86641132,8.72529106 9.95214608,8.81087021 L22.0679764,20.9268561 C22.1105929,20.9692074 22.134557,21.0268075 22.134557,21.0868891 C22.134557,21.1469707 22.1105929,21.2045708 22.0679764,21.2469222 L21.1835547,22.1314994 C21.1412745,22.1740248 21.0837215,22.1978418 21.0237551,22.1976288 L21.0237551,22.1976288 Z M9.79203525,8.8222289 C9.75235764,8.8222289 9.71485841,8.83778875 9.68685069,8.86579647 L8.8025846,9.75006257 C8.74466331,9.80822493 8.74466331,9.90226933 8.8025846,9.96043169 L20.9185705,22.076262 C20.9747415,22.1322774 21.0723018,22.1322774 21.1289396,22.076262 L22.0133613,21.1916847 C22.0711125,21.1334522 22.0711125,21.0395481 22.0133613,20.9813156 L9.89721982,8.86579647 C9.86935217,8.83785653 9.83149718,8.82217694 9.79203525,8.8222289 Z" id="Shape"></path>
            </g>
        </g>
    </g>
</svg>