<?xml version="1.0" encoding="UTF-8"?>
<svg width="24px" height="24px" viewBox="0 0 24 24" version="1.1" xmlns="http://www.w3.org/2000/svg" xmlns:xlink="http://www.w3.org/1999/xlink">
    <!-- Generator: Sketch 46.1 (44463) - http://www.bohemiancoding.com/sketch -->
    <title>edite</title>
    <desc>Created with Sketch.</desc>
    <defs></defs>
    <g id="02_shop_0714" stroke="none" stroke-width="1" fill="none" fill-rule="evenodd" fill-opacity="0.152117301">
        <g id="Artboard" transform="translate(-225.000000, -54.000000)" fill="#000000">
            <path d="M244.895588,59.5585687 L235.12735,69.238005 L232.552087,70.3924332 L233.528911,67.9059725 L243.385951,58.137734 C243.652358,57.7825253 243.918764,58.2265361 243.918764,58.2265361 L244.806786,59.1145578 C245.161995,59.3809643 244.895588,59.5585687 244.895588,59.5585687 Z M231.664065,60.6241947 C231.131252,60.6241947 230.776043,60.9794034 230.776043,61.5122164 L230.776043,71.2804549 C230.776043,71.8132679 231.131252,72.1684765 231.664065,72.1684765 L241.432304,72.1684765 C241.965117,72.1684765 242.320325,71.8132679 242.320325,71.2804549 L242.320325,65.9523248 L244.096369,64.1762814 L244.096369,64.1762814 L244.096369,72.967696 C244.096369,73.9445199 244.096369,73.9445199 243.119545,73.9445199 L229.976824,73.9445199 C229,73.9445199 229,73.9445199 229,72.967696 L229,59.8249752 C229,59.2921622 229,58.8481513 229.976824,58.8481513 L239.65626,58.8481513 L237.880217,60.6241947 L231.664065,60.6241947 Z" id="edite"></path>
        </g>
    </g>
</svg>