<?xml version="1.0" encoding="UTF-8"?>
<svg width="32px" height="32px" viewBox="0 0 32 32" version="1.1" xmlns="http://www.w3.org/2000/svg" xmlns:xlink="http://www.w3.org/1999/xlink">
    <!-- Generator: Sketch 43 (38999) - http://www.bohemiancoding.com/sketch -->
    <title>activity_edite</title>
    <desc>Created with Sketch.</desc>
    <defs></defs>
    <g id="Symbols" stroke="none" stroke-width="1" fill="none" fill-rule="evenodd">
        <g id="activity_edite" fill="#FF7819">
            <g transform="translate(7.000000, 9.000000)" id="Shape">
                <path d="M8.91657981,1.69575336 C8.45478198,1.41597289 6.94399609,0.626138604 6.04585678,0.125709536 C5.26074204,-0.310814231 5.02263668,0.626138604 4.94774792,1.26817243 C4.87283967,1.91158958 4.87283967,2.74405337 5.69573963,2.74405337 L8.71662973,2.74405337 C9.53986078,2.74405337 9.53986078,2.07795765 8.91657981,1.69575336 Z M14.2378113,1.25443669 C14.1629225,0.612383384 13.9247976,-0.324549973 13.1397024,0.111954316 C12.2401607,0.612383384 10.7307382,1.40221767 10.2689599,1.68336197 C9.64429606,2.06420241 9.64429606,2.73029815 10.4689295,2.73029815 L13.4894884,2.73029815 C14.3127,2.73031763 14.3127,1.89785383 14.2378113,1.25443669 Z M5.91255369e-06,4.95478668 L5.91255369e-06,6.84102529 C-0.00135746374,7.53944384 0.232618795,7.89139052 1.1651154,7.89139052 L8.0534795,7.89139052 L8.05347948,4.00682577 L1.14690446,4.00682577 C0.203753992,4.00682577 5.91255369e-06,4.31754574 5.91255369e-06,4.95478668 Z M18.9999966,5.03519434 C18.9999966,4.39797288 18.7224115,4.00684526 17.7795727,4.00684526 L10.9898397,4.00684526 L10.9898397,7.89141004 L17.8335238,7.89141004 C18.7656698,7.89141004 19.0010289,7.56903904 18.9999966,6.87060099 C18.9972504,6.23406144 18.9982827,5.67175336 18.9999966,5.03519434 Z M0.787185191,16.7163991 C0.79645621,18.1702834 1.64479303,19 3.45688691,19 L8.00776715,19 L8.00776713,9.32877242 L0.787185191,9.32877242 C0.787185191,9.32877242 0.776862427,15.2632162 0.787185191,16.7163991 Z M10.9898397,9.32877242 L10.9898397,19 L15.4022585,19 C17.2133201,19 18.0286825,18.0898367 18.0389858,16.6366538 C18.0496397,15.1827891 18.0362396,9.32877242 18.0362396,9.32877242 L10.9898397,9.32877242 Z"></path>
            </g>
        </g>
        <g id="shop" transform="translate(-100.000000, -277.000000)" stroke="#979797">
            <rect id="Rectangle-7" x="32.5" y="258.5" width="390" height="358"></rect>
        </g>
    </g>
</svg>