<?xml version="1.0" encoding="UTF-8"?>
<svg width="32px" height="32px" viewBox="0 0 32 32" version="1.1" xmlns="http://www.w3.org/2000/svg" xmlns:xlink="http://www.w3.org/1999/xlink">
    <!-- Generator: Sketch 43 (38999) - http://www.bohemiancoding.com/sketch -->
    <title>click_add</title>
    <desc>Created with Sketch.</desc>
    <defs></defs>
    <g id="Symbols" stroke="none" stroke-width="1" fill="none" fill-rule="evenodd">
        <g id="shop" transform="translate(-204.000000, -340.000000)">
            <rect id="Rectangle-7" stroke="#979797" x="32.5" y="258.5" width="390" height="358"></rect>
            <g id="click_add" transform="translate(213.000000, 346.000000)" fill-rule="nonzero" fill="#FF7819">
                <path d="M8.330033,6.83388339 L8.39163916,6.77227723 C9.00770077,5.60176018 9.00770077,4.31023102 8.39163916,3.13971397 C7.77557756,2.03080308 6.54345435,1.35313531 5.25192519,1.35313531 C4.63586359,1.35313531 4.01980198,1.5379538 3.46534653,1.8459846 C2.54125413,2.33883388 1.92519252,3.13971397 1.67876788,4.12541254 C1.43234323,5.04950495 1.61716172,5.97359736 2.110011,6.77227723 L2.17161716,6.89548955 L0.631463146,6.89548955 L0.631463146,6.83388339 C0.138613861,5.54015402 0.138613861,4.24862486 0.631463146,3.07810781 C1.43454345,1.22992299 3.21892189,0 5.25192519,0 C5.8679868,0 6.54565457,0.123212321 7.16171617,0.369636964 C8.39383938,0.862486249 9.37953795,1.78657866 9.87018702,3.01650165 C10.4246425,4.24862486 10.4246425,5.60176018 9.87018702,6.83388339 L9.87018702,6.89548955 L8.330033,6.89548955 L8.330033,6.83388339 Z" id="Shape"></path>
                <path d="M13.2563256,10.9592959 C13.1331133,10.3432343 12.5786579,9.85038504 12.0242024,9.85038504 C11.6545655,9.85038504 11.3465347,10.0352035 11.1617162,10.2816282 L11.1617162,10.1584158 C11.1617162,9.41914191 10.6072607,8.86468647 9.99119912,8.86468647 C9.37513751,8.86468647 8.82068207,9.48074807 8.82068207,10.1584158 L8.82068207,9.48294829 C8.82068207,8.74367437 8.26622662,8.18921892 7.65016502,8.18921892 C7.03410341,8.18921892 6.47964796,8.80528053 6.47964796,9.48294829 L6.47964796,5.23432343 C6.47964796,4.4950495 5.92519252,3.94059406 5.30913091,3.94059406 C4.69306931,3.94059406 4.20022002,4.55665567 4.20022002,5.23432343 L4.20022002,12.7458746 C4.20022002,13.1155116 3.95379538,13.4235424 3.58415842,13.4235424 L3.39933993,13.4235424 L1.7359736,12.6842684 C1.55115512,12.5610561 1.36633663,12.6226623 1.18151815,12.5610561 C0.565456546,12.3762376 0.0110011001,13.1771177 0.0110011001,13.8547855 C0.0110011001,14.2860286 0.503850385,14.840484 0.750275028,15.0869087 L5.24532453,19.7051705 L12.1430143,19.7051705 C12.3278328,18.8426843 13.0055006,15.579758 13.2519252,13.5467547 C13.3179318,12.5610561 13.379538,11.6369637 13.2563256,10.9592959 L13.2563256,10.9592959 Z" id="Shape"></path>
            </g>
        </g>
    </g>
</svg>