<?xml version="1.0" encoding="UTF-8"?>
<svg width="166px" height="70px" viewBox="0 0 166 70" version="1.1" xmlns="http://www.w3.org/2000/svg" xmlns:xlink="http://www.w3.org/1999/xlink">
    <!-- Generator: Sketch 43 (38999) - http://www.bohemiancoding.com/sketch -->
    <title>custom_act</title>
    <desc>Created with Sketch.</desc>
    <defs></defs>
    <g id="Symbols" stroke="none" stroke-width="1" fill="none" fill-rule="evenodd">
        <g id="shop" transform="translate(-466.000000, -595.000000)">
            <g id="Group-8" transform="translate(466.000000, 595.000000)">
                <rect id="Rectangle-8-Copy-3" fill-opacity="0.05" fill="#000000" x="0" y="0" width="166" height="70" rx="2"></rect>
                <g id="Group-2-Copy-5" opacity="0.5" transform="translate(15.000000, 8.000000)" fill-rule="nonzero" fill="#AAAAAA">
                    <g id="优惠券">
                        <path d="M1.18402587,5.92854242 C0.530127815,5.92854242 0,5.40789667 0,4.76569447 L0,1.19962742 C0,0.557425227 0.530127815,0.0367794697 1.18402587,0.0367794697 L68.8313703,0 L68.8313703,2.36247538 L2.36805174,2.36247538 L2.36805174,4.76569447 C2.36805174,5.40789659 1.83792384,5.92854242 1.18402587,5.92854242 Z" id="Shape"></path>
                        <path d="M1.18402587,53.1785424 C0.530127815,53.1785424 0,52.6578967 0,52.0156945 L0,48.4496274 C0,47.8074252 0.530127815,47.2867795 1.18402587,47.2867795 L68.8313703,47.25 L68.8313703,49.6124754 L2.36805174,49.6124754 L2.36805174,52.0156945 C2.36805174,52.6578966 1.83792384,53.1785424 1.18402587,53.1785424 Z" id="Shape-Copy" transform="translate(34.415685, 50.214271) scale(1, -1) translate(-34.415685, -50.214271) "></path>
                        <path d="M1.2586585,22.1567833 C0.604760448,22.1567833 0.0746326334,21.6361376 0.0746326334,20.9939354 L0.0746326334,15.6442146 C0.0746326334,15.0020124 0.604760448,14.4813667 1.2586585,14.4813667 C1.91255655,14.4813667 2.44268437,15.0020124 2.44268437,15.6442146 L2.44268437,20.9939354 C2.44268437,21.6361375 1.91255655,22.1567833 1.2586585,22.1567833 Z" id="Shape"></path>
                        <path d="M1.2586585,16.8070626 C0.604760448,16.8070626 0.0746326334,16.2864168 0.0746326334,15.6442146 C0.0746326334,15.0020124 0.604760448,14.4813667 1.2586585,14.4813667 C3.5654566,14.4813667 5.4422166,12.6381752 5.4422166,10.3726372 C5.4422166,8.10709924 3.56545668,6.26390773 1.2586585,6.26390773 C0.604760448,6.26390773 0.0746326334,5.74326197 0.0746326334,5.10105977 C0.0746326334,4.45885758 0.604760448,3.93821182 1.2586585,3.93821182 C4.87127931,3.93821182 7.81026826,6.82463303 7.81026826,10.3726371 C7.81026826,13.9206412 4.87120032,16.8070626 1.2586585,16.8070626 Z" id="Shape"></path>
                        <path d="M1.2586585,32.9521986 C0.604760448,32.9521986 0.0746326334,32.4315528 0.0746326334,31.7893506 C0.0746326334,31.1471484 0.604760448,30.6265027 1.2586585,30.6265027 C3.5654566,30.6265027 5.4422166,28.7833886 5.4422166,26.5179283 C5.4422166,24.2523904 3.56545668,22.4091988 1.2586585,22.4091988 C0.604760448,22.4091988 0.0746326334,21.888553 0.0746326334,21.2463508 C0.0746326334,20.6041486 0.604760448,20.0835029 1.2586585,20.0835029 C4.87127931,20.0835029 7.81026826,22.9700016 7.81026826,26.5179282 C7.81026826,30.0658549 4.87120032,32.9521986 1.2586585,32.9521986 Z" id="Shape"></path>
                        <path d="M1.2586585,49.0974896 C0.604760448,49.0974896 0.0746326334,48.5768439 0.0746326334,47.9346417 C0.0746326334,47.2924395 0.604760448,46.7717937 1.2586585,46.7717937 C3.5654566,46.7717937 5.4422166,44.9286797 5.4422166,42.6630642 C5.4422166,40.3974488 3.56545668,38.5543348 1.2586585,38.5543348 C0.604760448,38.5543348 0.0746326334,38.033689 0.0746326334,37.3914868 C0.0746326334,36.7492846 0.604760448,36.2286389 1.2586585,36.2286389 C4.87127931,36.2286389 7.81026826,39.1150601 7.81026826,42.6630642 C7.81026826,46.2110683 4.87120032,49.0974896 1.2586585,49.0974896 Z" id="Shape"></path>
                        <path d="M1.2586585,38.4107619 C0.604760448,38.4107619 0.0746326334,37.8901161 0.0746326334,37.2479139 L0.0746326334,31.8981932 C0.0746326334,31.255991 0.604760448,30.7353452 1.2586585,30.7353452 C1.91255655,30.7353452 2.44268437,31.255991 2.44268437,31.8981932 L2.44268437,37.2479139 C2.44268437,37.8901161 1.91255655,38.4107619 1.2586585,38.4107619 Z" id="Shape"></path>
                    </g>
                    <g id="优惠券-copy" transform="translate(102.479592, 27.125000) scale(-1, 1) translate(-102.479592, -27.125000) translate(67.755102, 0.000000)">
                        <path d="M1.18402587,5.92854242 C0.530127815,5.92854242 0,5.40789667 0,4.76569447 L0,1.19962742 C0,0.557425227 0.530127815,0.0367794697 1.18402587,0.0367794697 L68.8313703,0 L68.8313703,2.36247538 L2.36805174,2.36247538 L2.36805174,4.76569447 C2.36805174,5.40789659 1.83792384,5.92854242 1.18402587,5.92854242 Z" id="Shape"></path>
                        <path d="M1.18402587,53.1785424 C0.530127815,53.1785424 0,52.6578967 0,52.0156945 L0,48.4496274 C0,47.8074252 0.530127815,47.2867795 1.18402587,47.2867795 L68.8313703,47.25 L68.8313703,49.6124754 L2.36805174,49.6124754 L2.36805174,52.0156945 C2.36805174,52.6578966 1.83792384,53.1785424 1.18402587,53.1785424 Z" id="Shape-Copy" transform="translate(34.415685, 50.214271) scale(1, -1) translate(-34.415685, -50.214271) "></path>
                        <path d="M1.18402587,21.6754167 C0.530127815,21.6754167 0,21.1547709 0,20.5125687 L0,15.162848 C0,14.5206458 0.530127815,14 1.18402587,14 C1.83792392,14 2.36805174,14.5206458 2.36805174,15.162848 L2.36805174,20.5125687 C2.36805174,21.1547708 1.83792392,21.6754167 1.18402587,21.6754167 Z" id="Shape"></path>
                        <path d="M1.18402587,16.3688508 C0.530127815,16.3688508 1.09618669e-15,15.848205 1.09618669e-15,15.2060028 C1.09618669e-15,14.5638006 0.530127815,14.0431548 1.18402587,14.0431548 C3.49082397,14.0431548 5.36758396,12.1999633 5.36758396,9.93442538 C5.36758396,7.66888742 3.49082405,5.82569591 1.18402587,5.82569591 C0.530127815,5.82569591 0,5.30505015 0,4.66284795 C0,4.02064576 0.530127815,3.5 1.18402587,3.5 C4.79664667,3.5 7.73563562,6.38642121 7.73563562,9.9344253 C7.73563562,13.4824294 4.79656768,16.3688508 1.18402587,16.3688508 Z" id="Shape"></path>
                        <path d="M1.18402587,32.1186957 C0.530127815,32.1186957 1.09618669e-15,31.5980499 1.09618669e-15,30.9558477 C1.09618669e-15,30.3136455 0.530127815,29.7929998 1.18402587,29.7929998 C3.49082397,29.7929998 5.36758396,27.9498858 5.36758396,25.6844254 C5.36758396,23.4188875 3.49082405,21.5756959 1.18402587,21.5756959 C0.530127815,21.5756959 0,21.0550502 0,20.412848 C0,19.7706458 0.530127815,19.25 1.18402587,19.25 C4.79664667,19.25 7.73563562,22.1364987 7.73563562,25.6844253 C7.73563562,29.232352 4.79656768,32.1186957 1.18402587,32.1186957 Z" id="Shape"></path>
                        <path d="M1.18402587,49.6188508 C0.530127815,49.6188508 1.09618669e-15,49.098205 1.09618669e-15,48.4560028 C1.09618669e-15,47.8138006 0.530127815,47.2931548 1.18402587,47.2931548 C3.49082397,47.2931548 5.36758396,45.4500408 5.36758396,43.1844254 C5.36758396,40.9188099 3.49082405,39.0756959 1.18402587,39.0756959 C0.530127815,39.0756959 0,38.5550502 0,37.912848 C0,37.2706458 0.530127815,36.75 1.18402587,36.75 C4.79664667,36.75 7.73563562,39.6364212 7.73563562,43.1844253 C7.73563562,46.7324294 4.79656768,49.6188508 1.18402587,49.6188508 Z" id="Shape"></path>
                        <path d="M1.18402587,39.1754167 C0.530127815,39.1754167 0,38.6547709 0,38.0125687 L0,32.662848 C0,32.0206458 0.530127815,31.5 1.18402587,31.5 C1.83792392,31.5 2.36805174,32.0206458 2.36805174,32.662848 L2.36805174,38.0125687 C2.36805174,38.6547709 1.83792392,39.1754167 1.18402587,39.1754167 Z" id="Shape"></path>
                    </g>
                </g>
            </g>
        </g>
    </g>
</svg>