<?xml version="1.0" encoding="UTF-8"?>
<svg width="24px" height="24px" viewBox="0 0 24 24" version="1.1" xmlns="http://www.w3.org/2000/svg" xmlns:xlink="http://www.w3.org/1999/xlink">
    <!-- Generator: Sketch 43 (38999) - http://www.bohemiancoding.com/sketch -->
    <title>goods_13 copy</title>
    <desc>Created with Sketch.</desc>
    <defs></defs>
    <g id="Symbols" stroke="none" stroke-width="1" fill="none" fill-rule="evenodd">
        <g id="shop" transform="translate(-204.000000, -309.000000)">
            <rect id="Rectangle-7" stroke="#979797" x="32.5" y="258.5" width="390" height="358"></rect>
            <path d="M219.718639,321.462947 C219.377456,321.462694 219.05119,321.323047 218.815477,321.076378 L216.877958,319.036762 C216.405009,318.538873 216.425273,317.749109 216.923162,317.27629 L218.96031,315.341369 C219.191478,315.121457 219.49856,314.999182 219.81762,315.000004 C220.158803,315.000257 220.485069,315.139904 220.720782,315.386573 L222.658171,317.426059 C223.13112,317.923818 223.110726,318.713582 222.612967,319.186531 L220.575819,321.121582 C220.344721,321.34152 220.037667,321.463802 219.718639,321.462947 Z M219.81749,315.649481 C219.664975,315.648894 219.518119,315.707199 219.40754,315.81224 L217.370391,317.747161 C217.132241,317.974007 217.122596,318.350799 217.348829,318.589532 L219.286218,320.629149 C219.398598,320.747765 219.555114,320.8145 219.718509,320.81347 C219.871024,320.814056 220.01788,320.755751 220.128459,320.650711 L222.165608,318.71566 C222.403687,318.488783 222.413331,318.11205 222.18717,317.873289 L220.249781,315.833802 C220.137419,315.71516 219.980892,315.64842 219.81749,315.649481 L219.81749,315.649481 Z M214.401633,315.525561 C214.646356,315.525561 214.855618,315.610382 215.029548,315.779766 C215.203477,315.949149 215.290377,316.156073 215.290377,316.400536 L215.290377,319.927324 C215.290377,320.172047 215.203477,320.381308 215.029548,320.555238 C214.855618,320.729168 214.646226,320.816198 214.401633,320.816198 L210.874845,320.816198 C210.630122,320.816198 210.423199,320.729168 210.254075,320.555238 C210.084952,320.381308 210.00026,320.171917 210,319.927324 L210,316.400406 C210,316.155683 210.084692,315.94889 210.254075,315.779766 C210.423459,315.610642 210.630382,315.52582 210.874845,315.525561 L214.401633,315.525561 L214.401633,315.525561 Z M214.401633,322.578878 C214.646356,322.578878 214.855618,322.663699 215.029548,322.832953 C215.203477,323.002466 215.290377,323.20926 215.290377,323.453723 L215.290377,326.99467 C215.290377,327.239262 215.203477,327.446316 215.029548,327.615309 C214.855618,327.784303 214.646226,327.869125 214.401633,327.869385 L210.874845,327.869385 C210.630122,327.869385 210.423199,327.784693 210.254075,327.615309 C210.084952,327.445796 210.00026,327.239003 210,326.99467 L210,323.453723 C210,323.209 210.084692,323.002077 210.254075,322.832953 C210.423459,322.663959 210.630382,322.579137 210.874845,322.578878 L214.401633,322.578878 L214.401633,322.578878 Z M221.469109,322.578878 C221.713702,322.578878 221.920755,322.663699 222.089619,322.832953 C222.258873,323.002466 222.343564,323.20926 222.343824,323.453723 L222.343824,326.99467 C222.343824,327.239262 222.259132,327.446316 222.089619,327.615309 C221.920235,327.784433 221.713442,327.869125 221.469109,327.869385 L217.942191,327.869385 C217.697468,327.869385 217.488206,327.784693 217.314277,327.615309 C217.140347,327.445796 217.053317,327.239003 217.053317,326.99467 L217.053317,323.453723 C217.053317,323.209 217.140347,323.002077 217.314277,322.832953 C217.488206,322.663959 217.697598,322.579137 217.942191,322.578878 L221.469109,322.578878 L221.469109,322.578878 Z" id="Shape" fill-opacity="0.3" fill="#000000" fill-rule="nonzero"></path>
        </g>
    </g>
</svg>