<?xml version="1.0" encoding="UTF-8"?>
<svg width="32px" height="32px" viewBox="0 0 32 32" version="1.1" xmlns="http://www.w3.org/2000/svg" xmlns:xlink="http://www.w3.org/1999/xlink">
    <!-- Generator: Sketch 43 (38999) - http://www.bohemiancoding.com/sketch -->
    <title>goods_20</title>
    <desc>Created with Sketch.</desc>
    <defs></defs>
    <g id="Symbols" stroke="none" stroke-width="1" fill="none" fill-rule="evenodd">
        <g id="goods_20" fill-rule="nonzero" fill="#FFFFFF">
            <g transform="translate(6.000000, 6.000000)" id="Shape">
                <path d="M14.9517528,9.94299489 C14.4268554,9.94260632 13.9249079,9.72776441 13.5622724,9.34827408 L10.5814741,6.21040238 C9.85386038,5.44441956 9.88503526,4.22939855 10.6510181,3.50198466 L13.7850928,0.525183176 C14.1407351,0.186856814 14.6131691,-0.00125781906 15.1040301,6.33033531e-06 C15.6289275,0.000394900503 16.130875,0.215236816 16.4935106,0.594727142 L19.474109,3.732399 C20.2017227,4.49818198 20.170348,5.71320299 19.404565,6.44081673 L16.2704903,9.41781805 C15.9149547,9.75618514 15.4425645,9.94431084 14.9517528,9.94299489 Z M15.1038303,0.999201242 C14.8691918,0.998299126 14.6432599,1.08799895 14.4731385,1.24959949 L11.3390637,4.22640097 C10.9726786,4.57539466 10.9578402,5.15507529 11.3058904,5.52235677 L14.2864888,8.66022847 C14.4593823,8.84271487 14.7001749,8.94538458 14.951553,8.94379998 C15.1861915,8.9447021 15.4121234,8.85500227 15.5822448,8.69340174 L18.7163196,5.71640042 C19.082596,5.36735851 19.0974321,4.78776868 18.7494928,4.42044462 L15.7688944,1.28277276 C15.596029,1.10024609 15.355218,0.997568563 15.1038303,0.999201242 L15.1038303,0.999201242 Z M6.77174375,0.808554853 C7.1482404,0.808554853 7.470181,0.939049708 7.73776539,1.19963974 C8.00534979,1.46022977 8.13904207,1.77857327 8.13904207,2.15467024 L8.13904207,7.58049844 C8.13904207,7.95699509 8.00534979,8.27893569 7.73776539,8.54652008 C7.470181,8.81410448 7.14804056,8.9479966 6.77174375,8.9479966 L1.34591555,8.9479966 C0.969418903,8.9479966 0.651075404,8.81410448 0.390885049,8.54652008 C0.130694694,8.27893569 0.000399677965,7.95679525 0,7.58049844 L0,2.1544704 C0,1.77797376 0.130295016,1.4598301 0.390885049,1.19963974 C0.651475082,0.939449386 0.969818581,0.808954531 1.34591555,0.808554853 L6.77174375,0.808554853 L6.77174375,0.808554853 Z M6.77174375,11.6598116 C7.1482404,11.6598116 7.470181,11.7903064 7.73776539,12.0506966 C8.00534979,12.3114865 8.13904207,12.6296302 8.13904207,13.0057271 L8.13904207,18.4533378 C8.13904207,18.8296346 8.00534979,19.1481779 7.73776539,19.4081684 C7.470181,19.668159 7.14804056,19.7986538 6.77174375,19.7990535 L1.34591555,19.7990535 C0.969418903,19.7990535 0.651075404,19.6687585 0.390885049,19.4081684 C0.130694694,19.1473786 0.000399677965,18.8292349 0,18.4533378 L0,13.0057271 C0,12.6292305 0.130295016,12.310887 0.390885049,12.0506966 C0.651475082,11.7907061 0.969818581,11.6602113 1.34591555,11.6598116 L6.77174375,11.6598116 L6.77174375,11.6598116 Z M17.6447829,11.6598116 C18.0210797,11.6598116 18.3396231,11.7903064 18.5994138,12.0506966 C18.859804,12.3114865 18.990099,12.6296302 18.9904986,13.0057271 L18.9904986,18.4533378 C18.9904986,18.8296346 18.8602036,19.1481779 18.5994138,19.4081684 C18.3388237,19.6683588 18.0206801,19.7986538 17.6447829,19.7990535 L12.2187549,19.7990535 C11.8422582,19.7990535 11.5203176,19.6687585 11.2527333,19.4081684 C10.9851489,19.1473786 10.8512567,18.8292349 10.8512567,18.4533378 L10.8512567,13.0057271 C10.8512567,12.6292305 10.9851489,12.310887 11.2527333,12.0506966 C11.5203176,11.7907061 11.8424581,11.6602113 12.2187549,11.6598116 L17.6447829,11.6598116 L17.6447829,11.6598116 Z"></path>
            </g>
        </g>
        <g id="shop" transform="translate(-150.000000, -277.000000)" stroke="#979797">
            <rect id="Rectangle-7" x="32.5" y="258.5" width="390" height="358"></rect>
        </g>
    </g>
</svg>