<?xml version="1.0" encoding="UTF-8"?>
<svg width="45px" height="49px" viewBox="0 0 45 49" version="1.1" xmlns="http://www.w3.org/2000/svg" xmlns:xlink="http://www.w3.org/1999/xlink">
    <!-- Generator: Sketch 43 (38999) - http://www.bohemiancoding.com/sketch -->
    <title>publish_activity</title>
    <desc>Created with Sketch.</desc>
    <defs></defs>
    <g id="Symbols" stroke="none" stroke-width="1" fill="none" fill-rule="evenodd">
        <g id="shop" transform="translate(-352.000000, -381.000000)">
            <rect id="Rectangle-7" stroke="#979797" x="32.5" y="258.5" width="390" height="358"></rect>
            <path d="M382.840215,416 L368.800718,416 C367.256732,416 366,414.743268 366,413.199282 L366,399.123878 C366,397.579892 367.292639,396 368.872531,396 L376.736086,396 L376.736086,397.436266 L368.836625,397.436266 C368.046679,397.436266 367.400359,398.082585 367.400359,398.872531 L367.400359,413.163375 C367.400359,413.953321 368.046679,414.563734 368.800718,414.563734 L383.127469,414.527828 C383.917415,414.527828 384.563734,413.881508 384.563734,413.091562 L384.563734,405.263914 L386,405.263914 L386,413.127469 C386,414.671454 384.384201,416 382.840215,416 L382.840215,416 L382.840215,416 Z M385.281867,402.427289 C384.886894,402.427289 384.563734,402.104129 384.563734,401.709156 L384.527828,398.298025 L373.648115,408.639138 C373.360862,408.926391 372.894075,408.926391 372.606822,408.639138 C372.319569,408.351885 372.319569,407.921005 372.606822,407.669659 L383.378815,397.400359 L380.254937,397.436266 C379.859964,397.436266 379.536804,397.113106 379.536804,396.718133 C379.536804,396.32316 379.859964,396 380.254937,396 L385.245961,396 C385.640934,396 385.964093,396.32316 385.964093,396.682226 L385.964093,401.709156 C386,402.104129 385.67684,402.427289 385.281867,402.427289 L385.281867,402.427289 L385.281867,402.427289 Z" id="publish_activity" fill="#FF7819"></path>
        </g>
    </g>
</svg>