<?xml version="1.0" encoding="UTF-8"?>
<svg width="48px" height="48px" viewBox="0 0 48 48" version="1.1" xmlns="http://www.w3.org/2000/svg" xmlns:xlink="http://www.w3.org/1999/xlink">
    <!-- Generator: Sketch 43 (38999) - http://www.bohemiancoding.com/sketch -->
    <title>select_good</title>
    <desc>Created with Sketch.</desc>
    <defs></defs>
    <g id="Symbols" stroke="none" stroke-width="1" fill="none" fill-rule="evenodd">
        <g id="shop" transform="translate(-285.000000, -494.000000)">
            <g id="select_good" transform="translate(285.000000, 494.000000)">
                <circle id="Oval-2" fill="#FFFFFF" cx="24" cy="24" r="24"></circle>
                <g id="选择" transform="translate(2.666667, 2.666667)" fill-rule="nonzero" fill="#FF7819">
                    <path d="M21.3333333,0 C9.6,0 0,9.6 0,21.3333333 C0,33.0666667 9.6,42.6666667 21.3333333,42.6666667 C33.0666667,42.6666667 42.6666667,33.0666667 42.6666667,21.3333333 C42.6666667,9.6 33.0666667,0 21.3333333,0 Z M35.6266667,16.64 L18.56,31.5733333 C18.1333333,31.7866667 17.4933333,32 17.0666667,32 C16.4266667,32 16,31.7866667 15.5733333,31.36 L7.04,22.8266667 C6.18666667,21.9733333 6.18666667,20.6933333 7.04,19.84 C7.89333333,18.9866667 9.17333333,18.9866667 10.0266667,19.84 L17.0666667,26.88 L32.64,13.2266667 C33.4933333,12.3733333 34.7733333,12.5866667 35.6266667,13.44 C36.48,14.5066667 36.48,15.7866667 35.6266667,16.64 Z" id="Shape"></path>
                </g>
            </g>
        </g>
    </g>
</svg>