<?xml version="1.0" encoding="UTF-8"?>
<svg width="166px" height="70px" viewBox="0 0 166 70" version="1.1" xmlns="http://www.w3.org/2000/svg" xmlns:xlink="http://www.w3.org/1999/xlink">
    <!-- Generator: Sketch 43 (38999) - http://www.bohemiancoding.com/sketch -->
    <title>selected_act</title>
    <desc>Created with Sketch.</desc>
    <defs></defs>
    <g id="Symbols" stroke="none" stroke-width="1" fill="none" fill-rule="evenodd">
        <g id="shop" transform="translate(-466.000000, -518.000000)">
            <g id="selected_act" transform="translate(466.000000, 518.000000)">
                <rect id="Rectangle-8-Copy" fill-opacity="0.05" fill="#000000" x="0" y="0" width="165.212427" height="69.9987945" rx="2"></rect>
                <g id="Group-2-Copy-2" transform="translate(14.084848, 8.354646)" fill-rule="nonzero" fill="#FF7819">
                    <g id="优惠券" transform="translate(0.000000, 0.000000)">
                        <path d="M1.18074798,5.93457482 C0.528660196,5.93457482 0,5.4133993 0,4.77054365 L0,1.20084807 C0,0.557992417 0.528660196,0.0368168935 1.18074798,0.0368168935 L68.6408159,0 L68.6408159,2.36487924 L2.36149596,2.36487924 L2.36149596,4.77054365 C2.36149596,5.41339922 1.83283569,5.93457482 1.18074798,5.93457482 Z" id="Shape"></path>
                        <path d="M1.18074798,53.2326525 C0.528660196,53.2326525 0,52.711477 0,52.0686214 L0,48.4989258 C0,47.8560701 0.528660196,47.3348946 1.18074798,47.3348946 L68.6408159,47.2980777 L68.6408159,49.662957 L2.36149596,49.662957 L2.36149596,52.0686214 C2.36149596,52.7114769 1.83283569,53.2326525 1.18074798,53.2326525 Z" id="Shape-Copy" transform="translate(34.320408, 50.265365) scale(1, -1) translate(-34.320408, -50.265365) "></path>
                        <path d="M1.255174,22.1793283 C0.603086214,22.1793283 0.0744260186,21.6581527 0.0744260186,21.0152971 L0.0744260186,15.6601329 C0.0744260186,15.0172772 0.603086214,14.4961017 1.255174,14.4961017 C1.90726178,14.4961017 2.43592198,15.0172772 2.43592198,15.6601329 L2.43592198,21.0152971 C2.43592198,21.6581527 1.90726178,22.1793283 1.255174,22.1793283 Z" id="Shape"></path>
                        <path d="M1.255174,16.8241641 C0.603086214,16.8241641 0.0744260186,16.3029885 0.0744260186,15.6601329 C0.0744260186,15.0172772 0.603086214,14.4961017 1.255174,14.4961017 C3.5555859,14.4961017 5.42715023,12.6510347 5.42715023,10.3831915 C5.42715023,8.11534836 3.55558598,6.27028136 1.255174,6.27028136 C0.603086214,6.27028136 0.0744260186,5.74910584 0.0744260186,5.10625019 C0.0744260186,4.46339454 0.603086214,3.94221902 1.255174,3.94221902 C4.85779353,3.94221902 7.78864611,6.83157722 7.78864611,10.3831915 C7.78864611,13.9348057 4.85771476,16.8241641 1.255174,16.8241641 Z" id="Shape"></path>
                        <path d="M1.255174,32.985728 C0.603086214,32.985728 0.0744260186,32.4645525 0.0744260186,31.8216968 C0.0744260186,31.1788412 0.603086214,30.6576657 1.255174,30.6576657 C3.5555859,30.6576657 5.42715023,28.8126762 5.42715023,26.5449107 C5.42715023,24.2770676 3.55558598,22.4320005 1.255174,22.4320005 C0.603086214,22.4320005 0.0744260186,21.910825 0.0744260186,21.2679694 C0.0744260186,20.6251137 0.603086214,20.1039382 1.255174,20.1039382 C4.85779353,20.1039382 7.78864611,22.993374 7.78864611,26.5449106 C7.78864611,30.0964475 4.85771476,32.985728 1.255174,32.985728 Z" id="Shape"></path>
                        <path d="M1.255174,49.1474472 C0.603086214,49.1474472 0.0744260186,48.6262717 0.0744260186,47.983416 C0.0744260186,47.3405604 0.603086214,46.8193848 1.255174,46.8193848 C3.5555859,46.8193848 5.42715023,44.9743954 5.42715023,42.7064747 C5.42715023,40.4385539 3.55558598,38.5935645 1.255174,38.5935645 C0.603086214,38.5935645 0.0744260186,38.072389 0.0744260186,37.4295333 C0.0744260186,36.7866777 0.603086214,36.2655021 1.255174,36.2655021 C4.85779353,36.2655021 7.78864611,39.1548603 7.78864611,42.7064746 C7.78864611,46.2580888 4.85771476,49.1474472 1.255174,49.1474472 Z" id="Shape"></path>
                        <path d="M1.255174,38.4498455 C0.603086214,38.4498455 0.0744260186,37.92867 0.0744260186,37.2858144 L0.0744260186,31.9306502 C0.0744260186,31.2877945 0.603086214,30.766619 1.255174,30.766619 C1.90726178,30.766619 2.43592198,31.2877945 2.43592198,31.9306502 L2.43592198,37.2858144 C2.43592198,37.92867 1.90726178,38.4498455 1.255174,38.4498455 Z" id="Shape"></path>
                    </g>
                    <g id="优惠券-copy" transform="translate(102.324242, 27.000000) scale(-1, 1) translate(-102.324242, -27.000000) translate(67.824242, 0.000000)">
                        <path d="M1.18074798,5.93457482 C0.528660196,5.93457482 0,5.4133993 0,4.77054365 L0,1.20084807 C0,0.557992417 0.528660196,0.0368168935 1.18074798,0.0368168935 L68.6408159,0 L68.6408159,2.36487924 L2.36149596,2.36487924 L2.36149596,4.77054365 C2.36149596,5.41339922 1.83283569,5.93457482 1.18074798,5.93457482 Z" id="Shape"></path>
                        <path d="M1.18074798,53.2326525 C0.528660196,53.2326525 0,52.711477 0,52.0686214 L0,48.4989258 C0,47.8560701 0.528660196,47.3348946 1.18074798,47.3348946 L68.6408159,47.2980777 L68.6408159,49.662957 L2.36149596,49.662957 L2.36149596,52.0686214 C2.36149596,52.7114769 1.83283569,53.2326525 1.18074798,53.2326525 Z" id="Shape-Copy" transform="translate(34.320408, 50.265365) scale(1, -1) translate(-34.320408, -50.265365) "></path>
                        <path d="M1.18074798,21.6974718 C0.528660196,21.6974718 0,21.1762963 0,20.5334406 L0,15.1782764 C0,14.5354208 0.528660196,14.0142452 1.18074798,14.0142452 C1.83283577,14.0142452 2.36149596,14.5354208 2.36149596,15.1782764 L2.36149596,20.5334406 C2.36149596,21.1762962 1.83283577,21.6974718 1.18074798,21.6974718 Z" id="Shape"></path>
                        <path d="M1.18074798,16.3855064 C0.528660196,16.3855064 1.09315198e-15,15.8643308 1.09315198e-15,15.2214752 C1.09315198e-15,14.5786195 0.528660196,14.057444 1.18074798,14.057444 C3.48115988,14.057444 5.35272421,12.212377 5.35272421,9.94453383 C5.35272421,7.67669065 3.48115996,5.83162366 1.18074798,5.83162366 C0.528660196,5.83162366 0,5.31044813 0,4.66759249 C0,4.02473684 0.528660196,3.50356131 1.18074798,3.50356131 C4.78336752,3.50356131 7.7142201,6.39291951 7.7142201,9.94453376 C7.7142201,13.496148 4.78328875,16.3855064 1.18074798,16.3855064 Z" id="Shape"></path>
                        <path d="M1.18074798,32.151377 C0.528660196,32.151377 1.09315198e-15,31.6302015 1.09315198e-15,30.9873459 C1.09315198e-15,30.3444902 0.528660196,29.8233147 1.18074798,29.8233147 C3.48115988,29.8233147 5.35272421,27.9783253 5.35272421,25.7105597 C5.35272421,23.4427166 3.48115996,21.5976496 1.18074798,21.5976496 C0.528660196,21.5976496 0,21.076474 0,20.4336184 C0,19.7907627 0.528660196,19.2695872 1.18074798,19.2695872 C4.78336752,19.2695872 7.7142201,22.159023 7.7142201,25.7105597 C7.7142201,29.2620965 4.78328875,32.151377 1.18074798,32.151377 Z" id="Shape"></path>
                        <path d="M1.18074798,49.6693388 C0.528660196,49.6693388 1.09315198e-15,49.1481633 1.09315198e-15,48.5053076 C1.09315198e-15,47.862452 0.528660196,47.3412765 1.18074798,47.3412765 C3.48115988,47.3412765 5.35272421,45.4962871 5.35272421,43.2283663 C5.35272421,40.9604455 3.48115996,39.1154561 1.18074798,39.1154561 C0.528660196,39.1154561 0,38.5942806 0,37.951425 C0,37.3085693 0.528660196,36.7873938 1.18074798,36.7873938 C4.78336752,36.7873938 7.7142201,39.676752 7.7142201,43.2283662 C7.7142201,46.7799805 4.78328875,49.6693388 1.18074798,49.6693388 Z" id="Shape"></path>
                        <path d="M1.18074798,39.2152784 C0.528660196,39.2152784 0,38.6941028 0,38.0512472 L0,32.696083 C0,32.0532273 0.528660196,31.5320518 1.18074798,31.5320518 C1.83283577,31.5320518 2.36149596,32.0532273 2.36149596,32.696083 L2.36149596,38.0512472 C2.36149596,38.6941028 1.83283577,39.2152784 1.18074798,39.2152784 Z" id="Shape"></path>
                    </g>
                </g>
            </g>
            <rect id="Rectangle-11" fill="#FF7819" x="486" y="527" width="126" height="51"></rect>
            <polygon id="Rectangle-12" fill="#FF7819" points="482 527 487.5 527 487.5 533.5 482 531.5"></polygon>
            <polygon id="Rectangle-12-Copy-4" fill="#FF7819" transform="translate(613.750000, 530.250000) scale(-1, 1) translate(-613.750000, -530.250000) " points="611 527 616.5 527 616.5 533.5 611 531.5"></polygon>
            <polygon id="Rectangle-12-Copy-3" fill="#FF7819" transform="translate(484.750000, 576.250000) scale(1, -1) translate(-484.750000, -576.250000) " points="482 573 487.5 573 487.5 579.5 482 577.5"></polygon>
            <polygon id="Rectangle-12-Copy-5" fill="#FF7819" transform="translate(613.750000, 576.250000) scale(-1, -1) translate(-613.750000, -576.250000) " points="611 573 616.5 573 616.5 579.5 611 577.5"></polygon>
            <polygon id="Rectangle-12-Copy" fill="#FF7819" points="482 543 487.5 540 487.5 549.5 482 547.5"></polygon>
            <polygon id="Rectangle-12-Copy-6" fill="#FF7819" transform="translate(613.750000, 544.750000) scale(-1, 1) translate(-613.750000, -544.750000) " points="611 543 616.5 540 616.5 549.5 611 547.5"></polygon>
            <polygon id="Rectangle-12-Copy-2" fill="#FF7819" points="482 559 487.5 556 487.5 565.5 482 563.5"></polygon>
            <polygon id="Rectangle-12-Copy-7" fill="#FF7819" transform="translate(613.750000, 560.750000) scale(-1, 1) translate(-613.750000, -560.750000) " points="611 559 616.5 556 616.5 565.5 611 563.5"></polygon>
        </g>
    </g>
</svg>