<?xml version="1.0" encoding="UTF-8"?>
<svg width="32px" height="32px" viewBox="0 0 32 32" version="1.1" xmlns="http://www.w3.org/2000/svg" xmlns:xlink="http://www.w3.org/1999/xlink">
    <!-- Generator: Sketch 43 (38999) - http://www.bohemiancoding.com/sketch -->
    <title>shop_edite</title>
    <desc>Created with Sketch.</desc>
    <defs></defs>
    <g id="Symbols" stroke="none" stroke-width="1" fill="none" fill-rule="evenodd">
        <g id="shop_edite" fill="#FF7819">
            <g transform="translate(7.000000, 9.000000)" id="Shape">
                <path d="M18.8760108,1.85080031 L7.27622764,13.3451309 L4.21810299,14.7160144 L5.37808131,11.7633423 L17.0833171,0.163559098 C17.3996748,-0.258251208 17.7160325,0.269011675 17.7160325,0.269011675 L18.7705583,1.32353742 C19.1923686,1.63989515 18.8760108,1.85080031 18.8760108,1.85080031 Z M3.16357724,3.11623121 C2.53086178,3.11623121 2.10905149,3.53804149 2.10905149,4.17075695 L2.10905149,15.7705402 C2.10905149,16.4032556 2.5308618,16.8250659 3.16357724,16.8250659 L14.7633604,16.8250659 C15.3960759,16.8250659 15.8178862,16.4032556 15.8178862,15.7705402 L15.8178862,9.44338567 L17.9269377,7.33433418 L17.9269377,7.33433418 L17.9269377,17.7741391 C17.9269377,18.9341174 17.9269377,18.9341174 16.7669593,18.9341174 L1.15997832,18.9341174 C0,18.9341174 0,18.9341174 0,17.7741391 L0,2.16715803 C0,1.53444258 0,1.00717971 1.15997832,1.00717971 L12.6543089,1.00717971 L10.5452575,3.11623121 L3.16357724,3.11623121 Z"></path>
            </g>
        </g>
        <g id="shop" transform="translate(-50.000000, -277.000000)" stroke="#979797">
            <rect id="Rectangle-7" x="32.5" y="258.5" width="390" height="358"></rect>
        </g>
    </g>
</svg>