<?xml version="1.0" encoding="UTF-8"?>
<svg width="36px" height="33px" viewBox="0 0 36 33" version="1.1" xmlns="http://www.w3.org/2000/svg" xmlns:xlink="http://www.w3.org/1999/xlink">
    <!-- Generator: Sketch 43 (38999) - http://www.bohemiancoding.com/sketch -->
    <title>thumbnails</title>
    <desc>Created with Sketch.</desc>
    <defs></defs>
    <g id="Symbols" stroke="none" stroke-width="1" fill="none" fill-rule="evenodd">
        <g id="shop" transform="translate(-357.000000, -446.000000)">
            <g id="thumbnails" transform="translate(357.000000, 446.000000)">
                <path d="M20.3821498,25.6635952 C20.3821498,24.9587689 20.4772667,24.2774187 20.6387031,23.6219155 L4.71255756,23.6219154 L4.71255756,15.7553715 L9.40073496,11.0342713 L17.2149945,18.9019813 L21.9032877,14.1808811 L25.5348716,17.8378234 C26.5453735,17.4061202 27.6558949,17.1668897 28.8209618,17.1668897 C29.6763581,17.1668897 30.5015672,17.297796 31.2802215,17.5372986 L31.2802215,1.59366459 C31.2802215,0.724505809 30.5805869,0.0198738569 29.7175086,0.0198738569 L1.58670704,0.0198738189 C0.723590148,0.0198738189 0.0239554978,0.724466915 0.0239554978,1.59366456 L0.0239554978,26.7696913 C0.0239554978,27.6383837 0.723590148,28.342316 1.58670704,28.342316 L20.8185915,28.342316 C20.5393012,27.4989654 20.3821498,26.6000728 20.3821498,25.6635952 Z M23.4661164,4.74054647 C25.1923116,4.74054647 26.5916195,6.14907188 26.5916195,7.8876227 C26.5916195,9.62551274 25.1923116,11.0342325 23.4661164,11.0342325 C21.7397282,11.0342325 20.340652,9.62547389 20.340652,7.8876227 C20.3406905,6.14907188 21.7397668,4.74054647 23.4661164,4.74054647 Z" id="Shape" fill="#AAAAAA"></path>
                <path d="M28.8207687,19.0552365 C25.195863,19.0552365 22.2572741,22.0140377 22.2572741,25.6637895 C22.2572741,29.3135413 25.1959016,32.2723425 28.8207687,32.2723425 C32.445713,32.2723425 35.3842634,29.3135802 35.3842634,25.6637895 C35.3842634,22.0139989 32.4457517,19.0552365 28.8207687,19.0552365 Z M30.0262526,29.5964202 L27.6152848,29.5964202 L27.6152848,28.6523245 L30.0262526,28.6523245 L30.0262526,29.5964202 Z M30.0262526,25.0225896 L30.0262526,27.6999501 L27.6152848,27.6999501 L27.6152848,25.0225896 L25.8071362,25.0225896 L28.8207687,21.9881908 L31.8344785,25.0225896 L30.0262526,25.0225896 Z" id="Shape" fill="#FF7819"></path>
            </g>
        </g>
    </g>
</svg>