<?xml version="1.0" encoding="UTF-8"?>
<svg width="166px" height="69px" viewBox="0 0 166 69" version="1.1" xmlns="http://www.w3.org/2000/svg" xmlns:xlink="http://www.w3.org/1999/xlink">
    <!-- Generator: Sketch 43 (38999) - http://www.bohemiancoding.com/sketch -->
    <title>unselect_act@2x</title>
    <desc>Created with Sketch.</desc>
    <defs></defs>
    <g id="Symbols" stroke="none" stroke-width="1" fill="none" fill-rule="evenodd">
        <g id="shop" transform="translate(-466.000000, -436.000000)">
            <g id="unselect_act" transform="translate(466.000000, 436.000000)">
                <rect id="Rectangle-8" fill-opacity="0.05" fill="#000000" x="0" y="0" width="165.212427" height="68.9988117" rx="2"></rect>
                <g id="Group-2" opacity="0.5" transform="translate(14.084848, 8.235294)" fill-rule="nonzero" fill="#FF9D4E">
                    <g id="优惠券">
                        <path d="M1.17840836,5.84374832 C0.527612669,5.84374832 0,5.3305492 0,4.69753222 L0,1.18246952 C0,0.549452547 0.527612669,0.0362534243 1.17840836,0.0362534243 L68.5048059,0 L68.5048059,2.32868563 L2.35681672,2.32868563 L2.35681672,4.69753222 C2.35681672,5.33054912 1.82920397,5.84374832 1.17840836,5.84374832 Z" id="Shape"></path>
                        <path d="M1.17840836,52.4179462 C0.527612669,52.4179462 0,51.9047471 0,51.2717301 L0,47.7566674 C0,47.1236504 0.527612669,46.6104513 1.17840836,46.6104513 L68.5048059,46.5741979 L68.5048059,48.9028835 L2.35681672,48.9028835 L2.35681672,51.2717301 C2.35681672,51.904747 1.82920397,52.4179462 1.17840836,52.4179462 Z" id="Shape-Copy" transform="translate(34.252403, 49.496072) scale(1, -1) translate(-34.252403, -49.496072) "></path>
                        <path d="M1.25268691,21.8398817 C0.601891215,21.8398817 0.0742785454,21.3266826 0.0742785454,20.6936656 L0.0742785454,15.4204603 C0.0742785454,14.7874433 0.601891215,14.2742442 1.25268691,14.2742442 C1.9034826,14.2742442 2.43109526,14.7874433 2.43109526,15.4204603 L2.43109526,20.6936656 C2.43109526,21.3266825 1.9034826,21.8398817 1.25268691,21.8398817 Z" id="Shape"></path>
                        <path d="M1.25268691,16.5666764 C0.601891215,16.5666764 0.0742785454,16.0534772 0.0742785454,15.4204603 C0.0742785454,14.7874433 0.601891215,14.2742442 1.25268691,14.2742442 C3.5485406,14.2742442 5.41639647,12.4574152 5.41639647,10.2242806 C5.41639647,7.99114591 3.54854068,6.174317 1.25268691,6.174317 C0.601891215,6.174317 0.0742785454,5.66111787 0.0742785454,5.02810089 C0.0742785454,4.39508392 0.601891215,3.88188479 1.25268691,3.88188479 C4.84816794,3.88188479 7.77321312,6.72702242 7.77321312,10.2242805 C7.77321312,13.7215386 4.84808933,16.5666764 1.25268691,16.5666764 Z" id="Shape"></path>
                        <path d="M1.25268691,32.4808935 C0.601891215,32.4808935 0.0742785454,31.9676943 0.0742785454,31.3346774 C0.0742785454,30.7016604 0.601891215,30.1884613 1.25268691,30.1884613 C3.5485406,30.1884613 5.41639647,28.3717087 5.41639647,26.1386505 C5.41639647,23.905516 3.54854068,22.088687 1.25268691,22.088687 C0.601891215,22.088687 0.0742785454,21.5754878 0.0742785454,20.9424709 C0.0742785454,20.3094539 0.601891215,19.7962548 1.25268691,19.7962548 C4.84816794,19.7962548 7.77321312,22.6414688 7.77321312,26.1386505 C7.77321312,29.6358323 4.84808933,32.4808935 1.25268691,32.4808935 Z" id="Shape"></path>
                        <path d="M1.25268691,48.3952634 C0.601891215,48.3952634 0.0742785454,47.8820643 0.0742785454,47.2490473 C0.0742785454,46.6160304 0.601891215,46.1028312 1.25268691,46.1028312 C3.5485406,46.1028312 5.41639647,44.2860787 5.41639647,42.0528676 C5.41639647,39.8196566 3.54854068,38.0029041 1.25268691,38.0029041 C0.601891215,38.0029041 0.0742785454,37.4897049 0.0742785454,36.856688 C0.0742785454,36.223671 0.601891215,35.7104719 1.25268691,35.7104719 C4.84816794,35.7104719 7.77321312,38.5556095 7.77321312,42.0528676 C7.77321312,45.5501257 4.84808933,48.3952634 1.25268691,48.3952634 Z" id="Shape"></path>
                        <path d="M1.25268691,37.8613847 C0.601891215,37.8613847 0.0742785454,37.3481855 0.0742785454,36.7151686 L0.0742785454,31.4419632 C0.0742785454,30.8089462 0.601891215,30.2957471 1.25268691,30.2957471 C1.9034826,30.2957471 2.43109526,30.8089462 2.43109526,31.4419632 L2.43109526,36.7151686 C2.43109526,37.3481855 1.9034826,37.8613847 1.25268691,37.8613847 Z" id="Shape"></path>
                    </g>
                    <g id="优惠券-copy" transform="translate(101.971492, 26.737040) scale(-1, 1) translate(-101.971492, -26.737040) translate(67.389856, 0.000000)">
                        <path d="M1.17840836,5.84374832 C0.527612669,5.84374832 0,5.3305492 0,4.69753222 L0,1.18246952 C0,0.549452547 0.527612669,0.0362534243 1.17840836,0.0362534243 L68.5048059,0 L68.5048059,2.32868563 L2.35681672,2.32868563 L2.35681672,4.69753222 C2.35681672,5.33054912 1.82920397,5.84374832 1.17840836,5.84374832 Z" id="Shape"></path>
                        <path d="M1.17840836,52.4179462 C0.527612669,52.4179462 0,51.9047471 0,51.2717301 L0,47.7566674 C0,47.1236504 0.527612669,46.6104513 1.17840836,46.6104513 L68.5048059,46.5741979 L68.5048059,48.9028835 L2.35681672,48.9028835 L2.35681672,51.2717301 C2.35681672,51.904747 1.82920397,52.4179462 1.17840836,52.4179462 Z" id="Shape-Copy" transform="translate(34.252403, 49.496072) scale(1, -1) translate(-34.252403, -49.496072) "></path>
                        <path d="M1.17840836,21.3653999 C0.527612669,21.3653999 0,20.8522008 0,20.2191838 L0,14.9459784 C0,14.3129615 0.527612669,13.7997623 1.17840836,13.7997623 C1.82920405,13.7997623 2.35681672,14.3129615 2.35681672,14.9459784 L2.35681672,20.2191838 C2.35681672,20.8522007 1.82920405,21.3653999 1.17840836,21.3653999 Z" id="Shape"></path>
                        <path d="M1.17840836,16.1347322 C0.527612669,16.1347322 1.09098593e-15,15.621533 1.09098593e-15,14.9885161 C1.09098593e-15,14.3554991 0.527612669,13.8423 1.17840836,13.8423 C3.47426206,13.8423 5.34211793,12.025471 5.34211793,9.79233637 C5.34211793,7.5592017 3.47426213,5.74237278 1.17840836,5.74237278 C0.527612669,5.74237278 0,5.22917366 0,4.59615668 C0,3.96313971 0.527612669,3.44994058 1.17840836,3.44994058 C4.7738894,3.44994058 7.69893457,6.29507821 7.69893457,9.79233629 C7.69893457,13.2895944 4.77381078,16.1347322 1.17840836,16.1347322 Z" id="Shape"></path>
                        <path d="M1.17840836,31.6593119 C0.527612669,31.6593119 1.09098593e-15,31.1461128 1.09098593e-15,30.5130958 C1.09098593e-15,29.8800788 0.527612669,29.3668797 1.17840836,29.3668797 C3.47426206,29.3668797 5.34211793,27.5501272 5.34211793,25.317069 C5.34211793,23.0839344 3.47426213,21.2671054 1.17840836,21.2671054 C0.527612669,21.2671054 0,20.7539063 0,20.1208893 C0,19.4878723 0.527612669,18.9746732 1.17840836,18.9746732 C4.7738894,18.9746732 7.69893457,21.8198872 7.69893457,25.3170689 C7.69893457,28.8142508 4.77381078,31.6593119 1.17840836,31.6593119 Z" id="Shape"></path>
                        <path d="M1.17840836,48.9091677 C0.527612669,48.9091677 1.09098593e-15,48.3959686 1.09098593e-15,47.7629516 C1.09098593e-15,47.1299346 0.527612669,46.6167355 1.17840836,46.6167355 C3.47426206,46.6167355 5.34211793,44.799983 5.34211793,42.5667719 C5.34211793,40.3335609 3.47426213,38.5168083 1.17840836,38.5168083 C0.527612669,38.5168083 0,38.0036092 0,37.3705922 C0,36.7375753 0.527612669,36.2243761 1.17840836,36.2243761 C4.7738894,36.2243761 7.69893457,39.0695138 7.69893457,42.5667718 C7.69893457,46.0640299 4.77381078,48.9091677 1.17840836,48.9091677 Z" id="Shape"></path>
                        <path d="M1.17840836,38.6151028 C0.527612669,38.6151028 0,38.1019037 0,37.4688867 L0,32.1956814 C0,31.5626644 0.527612669,31.0494653 1.17840836,31.0494653 C1.82920405,31.0494653 2.35681672,31.5626644 2.35681672,32.1956814 L2.35681672,37.4688867 C2.35681672,38.1019037 1.82920405,38.6151028 1.17840836,38.6151028 Z" id="Shape"></path>
                    </g>
                </g>
            </g>
        </g>
    </g>
</svg>