<?xml version="1.0" encoding="UTF-8"?>
<svg width="62px" height="46px" viewBox="0 0 62 46" version="1.1" xmlns="http://www.w3.org/2000/svg" xmlns:xlink="http://www.w3.org/1999/xlink">
    <!-- Generator: Sketch 43 (38999) - http://www.bohemiancoding.com/sketch -->
    <title>order_finished</title>
    <desc>Created with Sketch.</desc>
    <defs></defs>
    <g id="my_order" stroke="none" stroke-width="1" fill="none" fill-rule="evenodd" opacity="0.3">
        <g id="01-我的订单" transform="translate(-298.000000, -527.000000)" fill-rule="nonzero" fill="#61B837">
            <g id="order_finished" transform="translate(298.000000, 527.000000)">
                <path d="M8.00546172,20.3613306 L8.00546172,20.3736066 C8.86153533,20.1337206 9.43602709,19.0914643 10.0987155,18.6809211 C10.7715181,18.263938 11.4845757,18.5360235 12.2775361,18.2299274 C12.6339638,18.0926772 13.0650348,17.9163851 13.4892282,17.877142 C13.4730454,17.9904439 13.4566602,18.1043495 13.4402751,18.2178526 C13.599474,18.1407751 13.7584707,18.0636976 13.9176697,17.9866201 C13.8644685,17.9055178 13.8116719,17.8244154 13.7584707,17.7431117 C13.7503793,17.7348606 13.7422879,17.7268107 13.7339942,17.7187609 C14.0888035,17.7064848 14.4440174,17.1097885 14.7988268,17.0977137 C14.8030748,17.0530369 14.8073228,17.0083602 14.8111662,16.9634822 C14.7294428,16.8986808 14.6479215,16.8338794 14.5664003,16.7686755 C14.5502175,16.7485508 14.53363,16.7282249 14.5174472,16.7081002 C15.0312532,16.4116639 15.5456661,16.1154289 16.0596744,15.8187913 C16.2678265,15.6883835 16.4517043,15.461981 16.6962679,15.3804761 C17.0793973,15.2528858 17.1722464,15.6620202 17.5774249,15.5632081 C18.4822494,15.3424405 22.0746435,13.2702038 22.5716598,12.6405031 C22.6721959,12.5133152 27.9904926,10.7757516 30.6505512,9.60831986 C33.0597755,8.55117126 32.840093,8.05751323 32.8295742,7.87900745 C32.5239203,7.77717663 32.163447,8.01283648 31.9116011,8.11023987 C31.1566704,8.38635028 27.1212704,10.0993617 26.3663397,10.3752709 C25.9467989,10.5394881 22.6467078,12.075805 19.7564479,13.2492742 C18.1359361,13.907552 16.239911,14.4491067 16.0351978,14.5768983 C15.5525438,14.8771583 14.2085568,16.0303016 13.6605644,16.2695838 C13.4501872,16.3615535 13.1936888,16.3702072 12.9628806,16.4641893 C12.8402954,16.5293932 12.7177102,16.5941947 12.5955296,16.6591973 C12.2119956,16.7566007 11.8284617,16.8542053 11.4449277,16.9516087 C11.0535046,17.0498171 10.6434713,17.0628981 10.3066654,17.2073932 C9.85253373,17.4019987 9.65429358,17.8415213 9.27844652,18.1081731 C9.14776987,18.2009478 8.98816634,18.2689692 8.80105194,18.3031812 C8.69080616,18.2993575 8.58076265,18.29493 8.47051687,18.2909051 C8.22696473,18.3297457 8.03924347,18.4190992 7.69940328,18.4126593 C7.74734498,18.9121535 8.24375439,19.7672505 8.00546172,20.3613306 Z M7.30777791,19.2530653 C7.13644182,19.2124135 6.96510574,19.1719629 6.7937696,19.1313111 C6.68777184,19.3019683 6.09183776,20.3245024 5.98584001,20.4953609 C6.06331549,20.5116619 6.14079097,20.5279628 6.21806413,20.5438613 C6.58298775,20.620335 7.17730352,19.4780591 7.30777791,19.2530653 Z M34.5558814,7.58679728 C34.825933,7.24709292 34.5943157,6.76933339 34.1523212,6.77074216 C33.9417417,6.853857 33.70001,6.8365498 33.540002,6.96554889 C33.3795893,7.09454797 33.1690097,7.66830218 33.1358349,7.96393348 C33.4954991,8.04161475 34.391423,7.79267261 34.5558814,7.58679728 Z M35.5717608,7.47711791 C35.7358147,7.50408494 36.062304,7.28754358 36.2206938,7.22133342 C36.8040861,6.98184994 37.387883,6.74196389 37.971073,6.50288292 C38.5670071,6.2517271 39.2485081,6.06819014 39.9049256,5.86955973 C40.2073429,5.78443242 40.508951,5.69910383 40.8109638,5.61377524 C41.6310305,5.09395516 42.4515019,4.57453759 43.271164,4.05491873 C43.7811266,3.82751 44.291696,3.60030255 44.8014563,3.37289387 C45.3069686,3.14146022 45.81329,2.91002657 46.3194092,2.6787942 C46.4589864,2.24450394 46.5878425,2.04768475 47.0658439,1.96014242 C47.1922725,1.95209253 47.3191058,1.94384142 47.4453321,1.93599281 C47.8254272,1.84704182 48.2455749,1.68081207 48.5593202,1.49747635 C48.9386062,1.27429382 49.3180944,1.05091005 49.6977849,0.827526288 C50.0420753,1.14147104 50.1049862,1.41375776 50.003641,2.02112012 C50.2726812,2.17567753 50.5425305,2.32983247 50.8115706,2.48378614 C50.7953878,2.49606217 50.7785981,2.5083382 50.7628197,2.520413 C50.8576918,2.70576119 51.0743399,2.80859821 51.1665823,3.01970594 C51.2214018,3.14488134 51.2762212,3.35920902 51.2400121,3.55542451 C51.2278749,3.61217607 51.21594,3.66912885 51.2033983,3.72588041 C51.4724385,4.29037725 51.7418832,4.85447157 52.0113279,5.41876718 C52.1391725,5.67455166 52.2753109,5.93919101 52.4391624,6.16156857 C52.5736825,6.33604943 52.7086071,6.51053024 52.8431272,6.68521234 C52.8518255,6.77476707 52.8597147,6.86391935 52.8678061,6.95327285 C52.9167592,7.18390153 52.9776473,7.41956133 53.0759582,7.61094688 C53.2236268,7.89993706 53.4528167,8.18530478 53.70001,8.37809911 C53.8145038,8.4634277 53.9289975,8.548555 54.0430867,8.63388359 C54.3327601,8.99431633 54.7073934,10.0085994 54.7646403,10.5825548 L54.7893191,10.5825548 C54.9121066,10.2164872 55.2369776,9.9912922 55.327804,9.58396897 C55.4261149,9.14223256 55.3144531,8.56465472 55.2305045,8.21991919 C54.9717809,7.16558802 54.7727317,6.47028087 54.2018811,5.74760417 C53.9939313,5.52864783 53.7857791,5.30928898 53.5778293,5.08993014 C53.5041973,5.0251287 53.4307675,4.9599248 53.3573378,4.89512341 C53.1340142,4.52201213 53.0976028,3.92974323 52.8676038,3.54355094 C52.6392231,3.16118234 52.2332354,2.9858965 52.0351976,2.65464449 C51.7532111,2.04989833 51.4722361,1.44495089 51.1908565,0.84040601 C51.0079902,0.427447918 50.8676038,0.00583619766 50.2724789,0 C49.9506421,0.134432771 49.1773034,0.295430065 48.6810963,0.219157617 C48.399919,0.17588958 48.0430868,0.104447022 47.7388489,0.158179863 C47.553555,0.190983043 47.3783755,0.259406941 47.2491149,0.352986593 C47.1686051,0.411750606 47.1164154,0.522637515 47.0045513,0.547793323 C46.6058459,0.637951801 46.5787397,0.212918907 46.1962171,0.328635705 C45.7845655,0.53571852 45.3719024,0.742801283 44.960453,0.949884098 C44.3113177,1.27932488 43.556387,1.54798914 43.0017193,1.98509684 C42.6107008,2.29300422 42.5255384,2.87682072 42.0837462,3.1420638 C41.6870637,3.37993734 41.0745422,3.15051615 40.5781328,3.27609406 C40.0137553,3.41857667 39.6354808,3.81764878 39.1947,4.09194795 C38.4223727,4.5727262 37.4853847,4.84803158 36.6974814,5.32196742 C36.4322847,5.481556 36.107616,5.69789614 36.2567006,6.15009735 C35.2426417,6.13983377 35.1864063,6.69628073 34.9228278,7.41654251 C35.0551228,7.50710366 35.3967836,7.44854087 35.5717608,7.47711791 Z M2.53383229,25.5615439 C2.25386868,25.1423472 1.82016789,24.1520124 1.76271869,23.5520962 C1.94194396,23.1117685 2.66895924,22.7595869 3.15788405,22.5412343 C3.16638005,22.456107 3.17426923,22.3709796 3.1825629,22.2854498 C2.87245871,22.1638968 3.07636282,21.822985 2.76625868,21.7012308 C2.7498735,21.7497312 2.73369065,21.7984329 2.71730553,21.8471346 C2.5581066,21.6640002 2.60786888,21.2081765 2.41144936,21.0679076 C2.26701729,21.1822157 2.10963889,21.2661355 1.99534741,21.4088194 C1.71558612,21.7569761 1.02558912,22.3411951 0.403964797,22.3222779 C0.250429877,22.5452592 0.0825326327,22.869065 0,23.138333 C0.0408617517,23.1258557 0.0815211811,23.1137809 0.122382933,23.1017061 C0.208152136,23.4872947 0.29392134,23.872682 0.379488221,24.2582706 C0.395873396,24.490308 0.41205625,24.7215404 0.428239103,24.952974 C0.553049477,25.5655688 0.891473677,25.8903809 1.48113683,26.0366872 C1.41863054,26.3959124 1.42530595,26.6154725 1.55456661,26.9499445 C1.83614848,27.0328581 2.17234756,26.9803327 2.39910993,26.8772944 C2.53868717,26.2681209 2.76201071,25.9028582 2.53383229,25.5615439 Z M61.9387073,21.0226271 C61.7873975,20.3454321 61.7305551,19.6525399 61.5222007,19.0500075 C61.0988165,17.8230066 60.453727,18.2886914 59.992313,17.1218634 C59.7910386,16.6125081 59.8379689,15.8576319 59.5762111,15.417103 C59.3330635,15.0079686 58.9790633,14.7487629 58.6946494,14.3939651 C58.4852836,14.1321432 58.3058561,13.8389268 58.131688,13.5418868 C57.8907655,13.1309411 57.6569231,12.3718388 57.2873469,12.1168593 C56.8791341,11.8357177 56.364519,11.7286545 55.9771416,11.4229609 C55.7667643,11.2561274 55.4008292,10.6336715 55.010013,10.7896377 C54.6432688,10.935944 54.565591,11.4467079 54.8146049,11.7761487 C54.9960553,12.017041 55.2646908,12.1804532 55.4263172,12.4456963 C55.5667036,12.676325 55.5948213,12.9397569 55.7081014,13.2130498 C55.9542833,13.8089411 56.232224,14.3885314 56.5040962,15.0031387 C56.8180438,15.5754842 57.1319914,16.1478296 57.4461412,16.7203763 C57.4546372,16.7284262 57.4623241,16.736476 57.4704156,16.7445259 C57.4299584,16.7851778 57.3890966,16.8256283 57.3482349,16.8664814 C57.4176189,16.9312828 57.4874075,16.9962855 57.556387,17.0612881 L57.556387,17.1097885 C57.4692018,17.1339382 57.3775663,17.1055623 57.2992817,17.0856389 C57.3686658,17.2581073 57.5205824,17.5342177 57.4216647,17.7066861 C57.3672498,17.8016745 57.2758166,17.8626523 57.249924,17.9868214 C57.3506623,17.9809853 57.7501768,18.7783245 57.8377666,18.9246308 C58.0699907,19.3263191 58.3028217,18.3194821 58.5352482,18.7213716 C58.6831191,18.8886076 58.9264689,18.8805578 59.0122382,19.1234624 C59.0650347,19.2703725 58.966117,19.4050065 58.9881661,19.537628 C59.077981,19.8785398 59.1677959,20.2196529 59.2574086,20.5605647 C59.2280771,20.7098897 58.9440678,20.8016582 58.8289672,20.8771257 C58.5109739,21.0840072 58.5020733,22.1508157 58.1836754,22.3576972 C58.0364113,22.402374 57.1089308,22.9551985 56.9624758,22.9998753 C56.7595831,23.0888263 55.9200969,23.3049652 55.816122,23.5368013 C55.6615756,23.6044202 54.7919489,24.0000711 54.4836653,24.4168529 C54.4409829,24.6478841 54.5483967,24.8861601 54.6181853,25.0626534 C54.4960047,25.0626534 53.8482855,24.3755974 53.7259025,24.3755974 C53.5654899,24.3283044 53.1417011,24.292885 52.8829775,24.3421905 C52.4523109,24.4240978 52.4310709,24.9785324 52.116921,25.1747478 C51.7289368,25.3655296 51.9577221,25.8946071 51.570547,26.0853889 C51.2713663,26.2715421 51.0658439,26.5617397 50.7747546,26.7428617 C50.5237178,26.8990291 50.2134114,26.9722829 49.9298067,27.0962508 C48.9343581,27.5995687 47.9387072,26.6943613 46.943461,27.1974779 C46.3232526,27.5180638 45.7026397,27.8390522 45.0828359,28.1596381 C45.0324667,28.1795615 44.9090724,28.1552107 44.8744815,28.1721154 C44.7438049,28.2363131 44.7203397,28.4166301 44.5564882,28.4639231 C44.5067259,28.4260887 44.4923636,28.3842294 44.4585818,28.3298928 L44.4585818,28.3059445 C44.3849498,28.407574 44.3115201,28.5088011 44.2382925,28.6106319 C44.1009405,28.6770433 43.8171334,28.6796595 43.6381105,28.6832819 C43.6116111,29.0322436 43.3694749,28.8559516 43.1241022,28.9265891 C43.0102152,28.9797182 42.8959238,29.0320423 42.7818346,29.0853727 C41.9247495,29.4912872 41.0676644,31.3059282 40.2109839,31.7118427 C39.4807321,32.0646281 39.487003,31.3349077 38.7569534,31.6878943 C38.5935064,31.765173 37.9427529,31.8788774 37.7791037,31.9561561 C37.642763,31.8657964 36.634975,32.7516841 36.5190653,32.820913 C36.3052491,32.9474971 36.0586628,33.6275095 34.4751693,33.9350144 C33.2337412,34.1761079 32.6361888,34.4190126 31.4338018,34.8196947 C30.3216343,35.1905922 28.8692221,36.1358477 27.7659552,36.584829 C26.2615554,37.196015 24.8063112,37.8315519 23.7333871,38.3686792 C22.6594517,38.9056053 21.9411347,39.6017174 21.7647414,39.704152 C21.683018,39.7407788 21.6743197,40.2483229 21.5927985,40.2849498 C21.5288761,40.2986346 21.5043996,40.2428893 21.4823504,40.2483229 C21.3110144,40.3294253 21.4639424,39.7572811 21.2926063,39.8383835 C21.1321937,39.869778 20.6976837,39.7743871 20.5508242,39.8383835 C20.0408616,40.0776658 19.5315059,39.6836248 19.0219479,39.9235108 C18.8912712,39.9961609 18.7607969,40.0700184 18.629918,40.1424672 C17.8915747,40.2845473 17.6959643,40.9120343 16.9572164,41.0539132 C16.9373924,41.2968179 16.2077474,41.1434679 16.0329725,41.24711 C15.9146352,41.3282124 15.5782339,41.8029532 15.4598967,41.8842569 C15.3708909,42.0225133 15.0263982,42.0349906 14.8868209,42.1191117 C14.5583088,42.3177421 14.4988367,42.2617956 14.2126023,42.4879968 C13.9467987,42.6982995 13.8986546,42.7019219 13.6235459,42.9067911 C13.488419,42.8299148 13.3773641,42.7214429 13.1953068,42.6878347 C12.8872255,42.6310832 12.2221097,43.2933859 12.0548193,43.3936067 C11.867098,43.4547857 11.8717506,43.3996441 11.6840294,43.4608231 C11.5780316,43.2295907 11.4868007,43.8937047 11.3806007,43.6620698 C11.167796,43.6403351 10.7917466,43.19719 10.5672093,43.2430743 C9.93486383,41.9395997 9.76373002,41.5880218 9.13138448,40.2849498 C7.80560315,37.528877 6.47921495,34.7719992 5.15323135,32.0163289 C4.72074423,31.1354723 4.28825716,30.2546158 3.85556776,29.373558 C3.72509338,29.1058999 3.59441677,28.8374369 3.46374012,28.5695776 C3.41074121,28.5653514 3.35774236,28.561729 3.30454119,28.5575028 C3.24749658,28.4600994 3.19045198,28.3624948 3.1332051,28.2650915 C2.96915129,28.3109757 2.8663901,28.4574833 2.72924031,28.5088011 C2.51704247,28.4927014 2.30484463,28.4761992 2.0926468,28.4600995 L2.0926468,28.4721743 C2.56619794,29.6794529 3.13927371,30.7434439 3.64721341,31.8941722 C3.87984212,32.462694 4.11247083,33.0310145 4.34530181,33.599335 C4.43855556,33.7520812 4.59492251,33.8223163 4.70011114,33.9527241 C4.76120144,34.1066778 4.82249407,34.2614365 4.88398897,34.4153901 C5.18984514,35.0485121 5.49590358,35.6820365 5.80196207,36.3149572 C5.98058048,36.6144122 6.37564469,36.7067844 6.41387668,37.1308111 C6.49135216,37.0943855 6.56902991,37.0581611 6.64650539,37.0215342 C6.87974096,37.1555644 7.16941428,37.5938796 7.09942334,38.0080453 C7.02923018,38.4214059 6.92869412,38.7947184 7.12389992,39.1766845 C7.64336991,40.1931813 8.07929588,41.367053 8.55628586,42.4405026 C8.85708488,43.1183013 9.28815602,43.7145951 9.68220878,44.3042478 C9.93931407,44.6974837 10.1964194,45.0915246 10.4533224,45.4851631 C10.6210174,45.6847997 10.8953169,45.8109814 11.1267319,45.9478291 C11.5515321,46.1989849 12.2710628,45.4684595 12.9871547,45.3430829 C13.9041163,45.1816831 14.9072518,44.9375709 15.7170019,44.6244311 C16.2204914,44.4298256 16.685951,44.2491062 17.1613228,44.0398096 C17.5652876,43.8293056 17.9694547,43.6177954 18.3734195,43.4066876 C18.8358449,43.203831 19.3897035,43.0428337 19.4016384,42.3962283 C20.178416,42.533076 19.4384544,43.0253252 21.2254474,42.2873538 C21.4153938,42.319352 22.6036208,41.7721624 22.8487912,41.7111847 C23.0731262,41.6556406 23.1673914,41.1891509 23.3379183,41.0720253 C23.6332557,40.870175 23.3915241,40.7405721 23.7973095,40.6667146 C23.8988569,40.6484012 24.9009809,40.405094 26.4175178,39.805379 C27.8246181,39.248127 28.6578334,38.8230941 29.9237381,38.262421 C31.6227368,37.510161 31.6138362,36.8716054 33.1971274,36.2463321 C34.7656518,35.6266937 36.3738241,35.5403588 36.4897339,35.503732 C36.6665317,35.4481879 37.4880145,35.3688967 37.5913825,35.2360739 C37.6581368,35.1509466 37.6949529,35.0134951 37.7995346,34.9684159 C38.2643875,34.8299582 38.7302518,34.6923055 39.1951046,34.5542503 C39.4277333,34.49609 39.6927277,34.1034578 39.8925861,34.0175255 C40.133104,33.8675968 40.3738241,33.7170643 40.6151511,33.5673368 C40.8971376,33.4522237 41.1586931,33.4266653 41.3860624,33.2747241 C41.6381105,33.1068844 41.7752603,32.7828773 42.0224536,32.6289236 C42.1733588,32.5810269 42.3246686,31.3244429 42.4753716,31.2757411 C42.8103569,31.1708917 43.1627388,32.4492103 43.4182258,32.258026 C43.5656922,32.1475416 43.7139677,31.9809094 43.8094466,31.8197108 C43.8883381,31.687693 43.9085667,31.4594793 44.0301405,31.3691196 C44.2310103,31.2193921 44.6877717,31.3983004 44.8014563,31.1378872 C44.9187821,30.8682167 44.8142003,31.0982416 44.8142003,30.8001954 C44.846566,30.82032 45.2926063,30.540386 45.3253766,30.5607119 C45.5329219,30.3131785 45.3253766,30.5607119 45.5335287,30.3133797 C45.6455951,30.2526033 46.2302012,30.5599069 46.1739657,30.0115098 C46.2514412,29.8867368 46.5661979,29.8519212 46.5111762,29.6762329 C46.5111762,29.6400084 46.8483866,29.411191 46.8483866,29.3743629 C47.3623949,29.4812249 47.0083948,29.0759141 47.4698087,29.2803807 C47.931425,29.4858536 48.4802264,29.8466888 49.1957114,29.6337698 C49.5816728,29.5186568 49.9148375,29.3101653 50.2603417,29.1586265 C50.8186506,28.9153193 51.4263173,28.6836844 51.7786992,28.2334957 C52.2227166,27.6659802 52.6062505,27.8591769 53.1866085,27.4625198 C53.6385151,27.1538074 53.4123595,27.5128315 54.0968948,26.925795 C54.3252755,26.729982 54.5154242,26.5548974 54.3863658,26.5051896 C54.3778698,26.4929135 54.3697784,25.6760534 54.3618892,25.6637773 C54.3863658,25.6271505 54.4102355,26.3955101 54.4349144,26.358682 C54.4472539,26.3508334 54.459391,26.3427835 54.4719328,26.3345324 C54.6400323,26.4808387 55.4075047,26.9527621 55.6346717,26.9924076 C56.0082937,27.0576115 56.6875694,26.6863115 56.9197936,26.5661673 C57.7878021,26.1165822 58.6762415,25.5718076 59.5250328,25.1145752 C59.819561,24.9555904 60.2297967,24.2548495 60.4820471,24.0562191 C60.5597249,23.9793429 60.6374026,23.9020642 60.7144736,23.825188 C60.8502074,23.7360357 61.0015172,23.6971951 61.0696875,23.5448514 C61.1334075,23.4023688 61.068676,23.2421764 61.0207343,23.1427606 C61.1714373,22.8994534 61.3229493,22.6555425 61.4736523,22.412034 C61.6124203,22.2347357 61.9229291,22.1562495 62,21.9250171 L62,21.3655514 C61.9801759,21.22005 61.9534742,21.090246 61.9387073,21.0226271 Z M5.22686356,21.0677063 C5.32901789,20.8525736 5.43096995,20.6372397 5.53312433,20.4221071 C5.42389,20.3118239 5.17750582,20.202547 5.00637201,20.1663226 C4.77778899,20.3275212 4.26580359,20.9749316 4.14969153,21.237961 C4.13330635,21.254262 4.1171235,21.2705629 4.10073838,21.2866626 C4.40254879,21.3355656 4.92485082,21.0192059 5.22686356,21.0677063 Z M2.99888744,27.9481279 L2.99888744,27.9726799 L3.0110246,27.9726799 C2.99140285,27.7484912 2.81339136,27.2544307 2.692829,27.1443487 C2.6398301,27.1686996 1.97471432,27.4371626 1.92171541,27.4613122 C1.90573483,27.5840727 2.89976737,27.8181225 2.99888744,27.9481279 Z" id="Shape"></path>
                <path d="M18.0842182,21 L21.2183634,27.5449881 C21.4937263,28.3397582 21.25887,28.9358358 20.5105212,29.3330197 L10.2032343,34.1022437 L12.132002,38.1295883 C12.1923527,38.2554806 12.3075305,38.2792111 12.4783537,38.2005787 L24.0656892,32.8382938 L25,34.7892211 L12.1324111,40.7437625 C11.1698685,41.2394883 10.489849,41.0158587 10.0911252,40.0734769 L5.87230396,31.2628309 L8.30494887,30.1372418 L9.23905508,32.0883702 L18.0737847,27.9998894 C18.3501705,27.9242736 18.4176814,27.738854 18.2769313,27.4446363 L16.5893619,23.9206594 L4.8737555,29.3416672 L4,27.5166322 L18.0842182,21 Z" id="Shape"></path>
                <path d="M20,19.5095769 L25.9612642,16.7657923 L25.632965,16.083463 L28.2964439,14.8575293 L28.624743,15.5394623 L34.1421954,13 L35.5751604,15.9768428 L33.355088,16.9988505 L32.7880627,15.8202816 L23.2122653,20.2283712 L23.7794933,21.406742 L21.432965,22.4868161 L20,19.5095769 Z M23.0967527,24.978121 L22.2312183,23.179649 L35.9924245,16.8450639 L36.8581616,18.6437341 L23.0967527,24.978121 Z M23.31724,26.2403214 L37.7127527,19.613819 L38.5784897,21.412291 L35.7245163,22.7260179 L37.1574813,25.7028607 C37.2146297,25.9295771 37.3812111,25.9537549 37.6574282,25.7757904 L40.1942485,24.6075268 L41,26.2819389 L37.2586056,28.0043103 C36.0513968,28.6099445 35.2738143,28.3877862 34.9232232,27.3370425 L33.2517347,23.8641584 L30.5246225,25.1196207 L31.1631846,29.8257712 C31.1879083,30.5209822 30.7564584,31.0733063 29.8688348,31.482149 L26.5710495,33 L25.7948855,31.3874196 L28.0145526,30.3658082 L28.1710013,30.3697718 C28.4022293,30.3140835 28.4999084,30.1426589 28.46566,29.8552998 L27.9878023,26.2872898 L24.1829772,28.0387935 L23.31724,26.2403214 Z" id="Shape"></path>
                <path d="M44.8747349,8.77688824 L44.3366957,7.63756979 L46.6865328,6.534873 L47.224775,7.67419145 L48.2409812,7.19730037 C48.5153792,7.12102208 48.6032595,6.92476229 48.5060431,6.60892563 L48.3940108,6.04280717 L50.6169998,5 L51.1400202,6.76532648 C51.5960647,7.84091106 51.296906,8.52276212 50.2437617,8.8104749 L48.3384006,9.70436744 L51.7835971,15.3578634 L52.1647505,15.179004 C52.4393515,15.1025234 52.5061244,14.9161777 52.3662869,14.6201694 L50.2439647,10.1248085 L52.3396995,9.1414863 L54.9403915,14.6499119 C55.5460155,15.603087 55.3105853,16.2551956 54.2343038,16.6052259 L52.9008757,17.2314363 L53.3567174,17.8681678 C53.5564271,18.2906322 53.8783171,18.3715641 54.3248227,18.1101541 L56.1033356,17.2759488 L57,19.1750152 L53.5706342,20.7845478 C52.6557036,21.3684713 51.9601697,21.1535972 51.4817999,20.1403301 L45.9250378,10.8366043 L40.3358027,13.459404 L40.9641578,14.7889123 L44.4570493,13.1498395 C45.5404342,12.4868052 46.29787,12.776339 46.7287479,14.0174292 L49.8676822,20.6653756 C50.5327726,21.7456138 50.2419351,22.5005058 48.9976052,22.9298494 L46.5205139,24.0926381 L45.6839248,22.3198254 L46.9540303,21.7233575 C47.3122495,21.6072202 47.4021595,21.3583547 47.2225425,20.9785819 L44.9806785,16.2299043 C44.722923,15.5771887 44.287986,15.4211926 43.673026,15.7609041 L41.8309875,16.6250542 L44.9104553,23.1465445 C45.4101357,24.097494 45.1430442,24.7898662 44.1071512,25.2250773 L42.4558924,26 L41.6191003,24.2265803 L41.8729996,24.1076104 C42.2314218,23.9914732 42.3213318,23.7430123 42.1419177,23.3626325 L37,12.4724397 L44.8747349,8.77688824 Z" id="Shape"></path>
            </g>
        </g>
    </g>
</svg>