<?xml version="1.0" encoding="UTF-8"?>
<svg width="24px" height="24px" viewBox="0 0 24 24" version="1.1" xmlns="http://www.w3.org/2000/svg" xmlns:xlink="http://www.w3.org/1999/xlink">
    <!-- Generator: Sketch 43 (38999) - http://www.bohemiancoding.com/sketch -->
    <title>shop_invite</title>
    <desc>Created with Sketch.</desc>
    <defs></defs>
    <g id="Symbols" stroke="none" stroke-width="1" fill="none" fill-rule="evenodd" fill-opacity="0.3">
        <g id="shop_invite" fill="#000000">
            <g transform="translate(3.000000, 4.000000)" id="Group">
                <g>
                    <path d="M2.8920751,15.7509881 C1.913083,15.7509881 1.11660079,14.9564427 1.11660079,13.9798024 L1.11660079,10.6916996 C1.11660079,10.2550988 1.4705336,9.90118577 1.90711462,9.90118577 C2.34369565,9.90118577 2.69762846,10.2550988 2.69762846,10.6916996 L2.69762846,13.9798024 C2.69762846,14.0811067 2.78849802,14.1699605 2.8920751,14.1699605 L14.5050198,14.1699605 C14.606502,14.1697431 14.6936759,14.082668 14.6936759,13.9798024 L14.6936759,10.6916996 C14.6936759,10.2550988 15.0475889,9.90118577 15.4841897,9.90118577 C15.9207905,9.90118577 16.2747036,10.2550988 16.2747036,10.6916996 L16.2747036,13.9798024 C16.2747036,14.9543478 15.481581,15.748913 14.5067194,15.7509881 L2.8920751,15.7509881 Z" id="Shape"></path>
                    <path d="M3.57065217,9.68379447 L3.56922925,9.68379447 C2.95112648,9.68367589 2.39679842,9.55865613 1.92166008,9.31221344 L1.90055336,9.30126482 L1.88551383,9.29227273 C0.723201581,8.66990119 0.00130434783,7.46596838 0,6.14814229 C0,5.77490119 0.0588537549,5.4036166 0.174940711,5.04357708 C0.175869565,5.03922925 0.176778656,5.0351581 0.177628458,5.03136364 L0.193181818,4.96258893 L1.74772727,1.28960474 C2.01774704,0.493893281 2.75563241,0 3.67549407,0 L13.7579644,0 C14.2048617,0.000988142292 14.6223123,0.118241107 14.9669565,0.339110672 C15.3362253,0.575770751 15.6046245,0.91729249 15.7434387,1.32695652 L17.1803557,4.90401186 L17.2059881,4.96851779 L17.2228458,5.0513834 C17.3347431,5.39671937 17.3929249,5.77031621 17.3912648,6.13316206 L17.3912648,6.13480237 C17.3918972,7.44162055 16.6797826,8.64298419 15.5328063,9.26970356 C15.0479051,9.53555336 14.474664,9.6723913 13.8299802,9.67583004 L13.825336,9.6758498 C12.8436957,9.67533597 11.9170356,9.27770751 11.2489921,8.57764822 C10.5886561,9.27027668 9.67523715,9.66847826 8.70926877,9.67762846 L8.70250988,9.67768775 L8.69577075,9.67764822 C7.72389328,9.67027668 6.80567194,9.27312253 6.14264822,8.58041502 C5.47480237,9.28096838 4.55011858,9.68047431 3.57205534,9.68379447 L3.57065217,9.68379447 Z M2.66381423,7.91602767 C2.90913043,8.03970356 3.21322134,8.10252964 3.56798419,8.1027668 C4.15503953,8.10041502 4.70689723,7.84272727 5.08221344,7.3956917 C5.34561265,7.08195652 5.73160079,6.90185771 6.1412253,6.90150198 C6.5515415,6.90150198 6.93743083,7.08098814 7.20106719,7.39395257 C7.57205534,7.83440711 8.11837945,8.09023715 8.70096838,8.09660079 C9.27749012,8.08920949 9.8193083,7.83302372 10.1883992,7.39304348 C10.4519763,7.07883399 10.838419,6.89853755 11.2486166,6.89843874 L11.2489328,6.89843874 C11.6589723,6.89843874 12.045336,7.07853755 12.3090514,7.39258893 C12.683004,7.83802372 13.2350395,8.09387352 13.8239921,8.09482213 C14.2018577,8.09249012 14.5213834,8.02116601 14.7737352,7.88282609 C15.4138142,7.533083 15.8106126,6.86363636 15.8102372,6.13519763 L15.8102569,6.1272332 C15.8113241,5.92735178 15.7788933,5.72148221 15.7165415,5.53185771 C15.7051779,5.49735178 15.6951383,5.46217391 15.6864822,5.42664032 L14.2742095,1.91098814 C14.2643676,1.88650198 14.2549407,1.86094862 14.2463439,1.83529644 C14.1674704,1.60019763 13.8512648,1.58124506 13.7562253,1.58102767 L3.67549407,1.58102767 C3.51213439,1.58102767 3.30476285,1.61883399 3.24448617,1.79887352 C3.23328063,1.83237154 3.2205336,1.86606719 3.20667984,1.89885375 L1.70211462,5.45371542 C1.69586957,5.47699605 1.68895257,5.50025692 1.68148221,5.52320158 C1.6148419,5.72786561 1.58102767,5.9379249 1.58102767,6.14737154 C1.58175889,6.88201581 1.98521739,7.5537747 2.63397233,7.89964427 C2.64371542,7.90482213 2.65375494,7.91033597 2.66381423,7.91602767 Z" id="Shape"></path>
                    <path d="M12.944664,5.17786561 L4.44664032,5.17786561 C4.01005929,5.17786561 3.65612648,4.82393281 3.65612648,4.38735178 C3.65612648,3.95077075 4.01005929,3.59683794 4.44664032,3.59683794 L12.944664,3.59683794 C13.3812648,3.59683794 13.7351779,3.95077075 13.7351779,4.38735178 C13.7351779,4.82393281 13.3812648,5.17786561 12.944664,5.17786561 Z" id="Shape"></path>
                </g>
            </g>
        </g>
    </g>
</svg>