<?xml version="1.0" encoding="UTF-8"?>
<svg width="24px" height="24px" viewBox="0 0 24 24" version="1.1" xmlns="http://www.w3.org/2000/svg" xmlns:xlink="http://www.w3.org/1999/xlink">
    <!-- Generator: Sketch 46.1 (44463) - http://www.bohemiancoding.com/sketch -->
    <title>comments_24</title>
    <desc>Created with Sketch.</desc>
    <defs></defs>
    <g id="03_topic" stroke="none" stroke-width="1" fill="none" fill-rule="evenodd">
        <g id="comment_24" fill="#FFFFFF">
            <path d="M11.9845232,22.1552878 C11.7664597,22.1552878 11.5529392,22.073514 11.3848486,21.9054234 L8.8498603,19.3704351 C8.51822206,19.0387969 8.51822206,18.5072671 8.8498603,18.1756288 C9.18149855,17.8439906 9.71302835,17.8439906 10.0446666,18.1756288 L11.9845232,20.1154855 L13.9243798,18.1756288 C14.0833844,18.0166242 14.296905,17.9257644 14.5240545,17.9257644 L20.4390271,17.9257644 C20.906955,17.9257644 21.2840232,17.5486963 21.2840232,17.0807683 L21.2840232,3.56083095 C21.2840232,3.09744601 20.906955,2.71583485 20.4390271,2.71583485 L3.53910533,2.71583485 C3.07572039,2.71583485 2.69410923,3.09744598 2.69410923,3.56083095 L2.69410923,17.0807683 C2.69410923,17.5486963 3.07572036,17.9257644 3.53910533,17.9257644 L6.0740936,17.9257644 C6.54202153,17.9257644 6.9190897,18.3028326 6.9190897,18.7707605 C6.9190897,19.2386885 6.54202156,19.6157566 6.0740936,19.6157566 L3.53910533,19.6157566 C2.1398645,19.6157566 1.00411706,18.4800092 1.00411706,17.0807684 L1.00411709,3.56083095 C1.00411709,2.16159012 2.13986453,1.02584268 3.53910536,1.02584268 L20.4390271,1.02584268 C21.8382679,1.02584268 22.9740154,2.16159012 22.9740154,3.56083095 L22.9740154,17.0807683 C22.9740154,18.4800092 21.8382679,19.6157566 20.4390271,19.6157566 L14.8693217,19.6157566 L12.5841979,21.9054234 C12.4206502,22.068971 12.2025867,22.1552878 11.9845232,22.1552878 Z" id="Shape"></path>
            <path d="M7.33704475,11.1657957 C6.63742433,11.1657957 6.06955061,10.597922 6.06955061,9.8983016 C6.06955061,9.19868118 6.63742433,8.63080746 7.33704475,8.63080746 C8.03666516,8.63080746 8.60453888,9.19868118 8.60453888,9.8983016 C8.60453888,10.597922 8.03666516,11.1657957 7.33704475,11.1657957 Z" id="Shape"></path>
            <path d="M12.4070213,11.1657957 C11.7074008,11.1657957 11.1395271,10.597922 11.1395271,9.8983016 C11.1395271,9.19868118 11.7074008,8.63080746 12.4070213,8.63080746 C13.1066417,8.63080746 13.6745154,9.19868118 13.6745154,9.8983016 C13.6745154,10.597922 13.1066417,11.1657957 12.4070213,11.1657957 Z" id="Shape"></path>
            <path d="M17.4815408,11.1657957 C16.7819204,11.1657957 16.2140467,10.597922 16.2140467,9.8983016 C16.2140467,9.19868118 16.7819204,8.63080746 17.4815408,8.63080746 C18.1811612,8.63080746 18.7490349,9.19868118 18.7490349,9.8983016 C18.7490349,10.597922 18.1766182,11.1657957 17.4815408,11.1657957 Z" id="Shape"></path>
        </g>
    </g>
</svg>