<?xml version="1.0" encoding="UTF-8"?>
<svg width="24px" height="24px" viewBox="0 0 24 24" version="1.1" xmlns="http://www.w3.org/2000/svg" xmlns:xlink="http://www.w3.org/1999/xlink">
    <!-- Generator: Sketch 43 (38999) - http://www.bohemiancoding.com/sketch -->
    <title>drafts_24@1.5x</title>
    <desc>Created with Sketch.</desc>
    <defs></defs>
    <g id="01_main" stroke="none" stroke-width="1" fill="none" fill-rule="evenodd">
        <g id="05_mine_0803-copy-2" transform="translate(-25.000000, -356.000000)" fill="#28D424">
            <g id="drafts_24" transform="translate(26.000000, 358.000000)">
                <path d="M20.204341,7.41814553 C19.8790939,7.12084578 19.3774931,7.132099 19.0659062,7.44368587 C18.7543194,7.75527275 18.7430662,8.25687357 19.0403659,8.58212058 L20.0366902,9.58004158 L18.1850312,9.58004158 L18.1850312,1.5966736 C18.1850312,0.714855119 17.4701761,0 16.5883576,0 L5.41164241,0 C4.52982393,0 3.81496881,0.714855119 3.81496881,1.5966736 L3.81496881,9.58004158 L1.99524324,9.58004158 L2.98198753,8.59489397 C3.19133775,8.38525855 3.27294616,8.07986041 3.19607166,7.79374009 C3.11919716,7.50761977 2.89551881,7.28424576 2.6092941,7.20776087 C2.32306938,7.13127599 2.01778264,7.21330011 1.80843243,7.42293555 L0.261255717,8.96851559 C0.098438765,9.13297342 0.0126233076,9.35852892 0.0249480249,9.58962162 L0.0249480249,15.966736 C0.0249480249,17.7303729 1.45465826,19.1600832 3.21829522,19.1600832 L18.7817048,19.1600832 C20.5453417,19.1600832 21.975052,17.7303729 21.975052,15.966736 L21.975052,9.58004158 C21.9892419,9.3479154 21.9049818,9.12012261 21.7419376,8.95414553 L20.204341,7.41814553 Z M5.41164241,1.5966736 L16.5883576,1.5966736 L16.5883576,9.58004158 L5.41164241,9.58004158 L5.41164241,1.5966736 Z M20.3783784,15.966736 C20.3783784,16.8485544 19.6635233,17.5634096 18.7817048,17.5634096 L3.21829522,17.5634096 C2.33647674,17.5634096 1.62162162,16.8485544 1.62162162,15.966736 L1.62162162,11.1767152 L20.3783784,11.1767152 L20.3783784,15.966736 Z" id="Shape"></path>
                <path d="M14.1933472,3.19334719 L7.80665281,3.19334719 C7.36574357,3.19334719 7.00831601,3.55077475 7.00831601,3.99168399 C7.00831601,4.43259323 7.36574357,4.79002079 7.80665281,4.79002079 L14.1933472,4.79002079 C14.6342564,4.79002079 14.991684,4.43259323 14.991684,3.99168399 C14.991684,3.55077475 14.6342564,3.19334719 14.1933472,3.19334719 Z M14.1933472,6.38669439 L7.80665281,6.38669439 C7.36574357,6.38669439 7.00831601,6.74412195 7.00831601,7.18503119 C7.00831601,7.62594042 7.36574357,7.98336798 7.80665281,7.98336798 L14.1933472,7.98336798 C14.6342564,7.98336798 14.991684,7.62594042 14.991684,7.18503119 C14.991684,6.74412195 14.6342564,6.38669439 14.1933472,6.38669439 Z" id="Shape"></path>
            </g>
        </g>
    </g>
</svg>