<?xml version="1.0" encoding="UTF-8"?>
<svg width="32px" height="32px" viewBox="0 0 32 32" version="1.1" xmlns="http://www.w3.org/2000/svg" xmlns:xlink="http://www.w3.org/1999/xlink">
    <!-- Generator: Sketch 43 (38999) - http://www.bohemiancoding.com/sketch -->
    <title>my_follow</title>
    <desc>Created with Sketch.</desc>
    <defs></defs>
    <g id="01_main" stroke="none" stroke-width="1" fill="none" fill-rule="evenodd">
        <g id="05_mine_0803-copy-2" transform="translate(-218.000000, -146.000000)" fill="#FF7819">
            <g id="my_follow" transform="translate(218.000000, 146.000000)">
                <path d="M15.9966514,12.1574258 C13.8770919,12.1574258 12.1574259,13.876434 12.1574259,15.9966149 C12.1574259,18.1167956 13.8770919,19.8361328 15.9966514,19.8361328 C18.1168322,19.8361328 19.8364618,18.1167957 19.8364618,15.9966149 C19.8364618,13.8764341 18.1168322,12.1574258 15.9966514,12.1574258 Z M15.9966514,17.9162276 C14.9368717,17.9162276 14.0770386,17.0570159 14.0770386,15.9966514 C14.0770386,14.9362504 14.9368717,14.0770386 15.9966514,14.0770386 C17.0570525,14.0770386 17.916849,14.9362504 17.916849,15.9966514 C17.916849,17.0570159 17.0570525,17.9162276 15.9966514,17.9162276 Z M15.9966514,0 C7.16226629,0 0,7.16160843 0,15.9966514 C0,24.8313289 7.16226629,31.9935952 15.9966514,31.9935952 C24.8316579,31.9935952 31.9939241,24.8313289 31.9939241,15.9966514 C31.9939241,7.16160843 24.8316579,0 15.9966514,0 Z M26.2338432,16.1959403 C26.2338432,16.2046749 26.2326006,16.2128248 26.2326006,16.2215595 C26.2319793,16.2259085 26.231358,16.2296729 26.231358,16.2340585 C26.2307367,16.2403079 26.2294941,16.2471787 26.2288729,16.2528069 C26.2276303,16.260299 26.2276303,16.2672063 26.2263877,16.2746983 C26.2257664,16.2759409 26.2251451,16.2765987 26.2251451,16.2771835 C26.2001472,16.4396334 26.1257747,16.5915212 26.0114203,16.7083609 C25.7964894,16.9689385 25.5621523,17.2132163 25.3265726,17.4532182 C24.0506194,18.74887 22.5859393,19.9036345 20.9837342,20.7421974 C19.9589661,21.2770942 18.864796,21.7094776 17.7294377,21.9169529 C16.4815524,22.1456618 15.2318397,22.1344055 13.9902404,21.8644354 C11.8419552,21.3970402 9.89548061,20.2373054 8.19332039,18.8488251 C7.40347418,18.2049096 6.6261635,17.5006557 5.97314796,16.7083609 C5.68757243,16.3615697 5.68757243,15.9510047 5.97314796,15.6048348 C6.18745754,15.3442937 6.42241593,15.0999428 6.65861693,14.8600141 C7.93460668,13.5646546 9.39804418,12.4092688 11.0014554,11.5707059 C12.0256021,11.0358091 13.1197723,10.6033892 14.2551305,10.3959504 C15.5030159,10.1672415 16.7527651,10.1784979 17.9943279,10.4484314 C20.1426131,10.9158631 22.0890876,12.0762192 23.7906266,13.4640417 C24.5810941,14.1076647 25.35782,14.8125035 26.0114203,15.6048348 C26.1251535,15.721711 26.2001472,15.8735623 26.2251451,16.0360122 L26.2251451,16.0384974 C26.2263877,16.0453682 26.2276303,16.0528602 26.2289094,16.0603888 C26.2289094,16.0666383 26.230152,16.0722665 26.2308099,16.0791372 C26.2314311,16.0829016 26.2314311,16.0872506 26.2320524,16.0916362 C26.2326737,16.1003709 26.233295,16.1091421 26.2339163,16.1178767 C26.2345742,16.130997 26.2351589,16.1434959 26.2351589,16.1566162 C26.2351223,16.1697363 26.234501,16.18282 26.2338432,16.1959403 Z" id="Shape"></path>
            </g>
        </g>
    </g>
</svg>