<?xml version="1.0" encoding="UTF-8"?>
<svg width="24px" height="24px" viewBox="0 0 24 24" version="1.1" xmlns="http://www.w3.org/2000/svg" xmlns:xlink="http://www.w3.org/1999/xlink">
    <!-- Generator: Sketch 43 (38999) - http://www.bohemiancoding.com/sketch -->
    <title>my_order@1.5x</title>
    <desc>Created with Sketch.</desc>
    <defs></defs>
    <g id="01_main" stroke="none" stroke-width="1" fill="none" fill-rule="evenodd">
        <g id="05_mine_0803-copy-2" transform="translate(-26.000000, -246.000000)">
            <g id="sugguestion-copy-2" transform="translate(26.000000, 246.000000)" stroke="#979797" opacity="0">
                <rect id="Rectangle-12-Copy-5" x="0.5" y="0.5" width="23" height="23"></rect>
            </g>
            <g id="my_order" transform="translate(29.000000, 248.000000)" fill-rule="nonzero" fill="#FF7819">
                <path d="M11.7667898,3.68794895 L5.22727628,3.68794895 L5.22727628,1.22127928 L6.54127928,1.22127928 C6.54127928,0.88036036 6.66616517,0.590249249 6.91782883,0.354834835 C7.16728529,0.117129129 7.47528529,0 7.83844444,0 L9.15244745,0 C9.5133994,0 9.81988589,0.117024024 10.0742192,0.354834835 C10.3236757,0.592498498 10.4483514,0.88096997 10.4483514,1.22127928 L11.7621862,1.22127928 L11.7621862,3.68794895 L11.7667898,3.68794895 Z M8.50628228,2.58463964 C8.72937838,2.58463964 8.91982883,2.50848048 9.080997,2.35876877 C9.24216517,2.20905706 9.32391592,2.0261952 9.32391592,1.81537538 C9.32391592,1.59213213 9.24136637,1.40727327 9.080997,1.26430931 C8.91963964,1.11934835 8.73047147,1.04890691 8.50628228,1.04890691 C8.26857658,1.04890691 8.0741952,1.1233003 7.91964865,1.26430931 C7.76808709,1.40927027 7.69068769,1.59255255 7.69068769,1.81537538 C7.69068769,2.02705706 7.76808709,2.20727027 7.91964865,2.35876877 C8.07121021,2.51005706 8.26977477,2.58463964 8.50628228,2.58463964 Z M13.7461502,12.290045 C14.3740691,12.290045 14.9687117,12.4068799 15.5252643,12.6344955 C16.0827207,12.864003 16.57003,13.1778889 16.986982,13.5718438 C17.4038078,13.9701502 17.7359189,14.4255495 17.9783964,14.952988 C18.2218408,15.4791231 18.3426486,16.0372523 18.3426486,16.6294144 C18.3426486,17.2373844 18.218015,17.8034174 17.9783964,18.3281231 C17.7354775,18.8551201 17.4036817,19.3123904 16.986982,19.7092673 C16.568958,20.1045676 16.0813333,20.4106547 15.5252643,20.6341291 C14.9661892,20.8573724 14.3757928,20.9695616 13.7461502,20.9695616 C13.1065646,20.9695616 12.5084745,20.8598529 11.9513333,20.6341291 C11.394024,20.4108859 10.9038769,20.1024865 10.4904144,19.7092673 C10.0735886,19.310961 9.74147748,18.8565285 9.499,18.3281231 C9.25555556,17.801988 9.13474775,17.237027 9.13474775,16.6294144 C9.13474775,16.0378198 9.25635435,15.4792072 9.499,14.952988 C9.74244444,14.4268529 10.0745556,13.9687207 10.4904144,13.5718438 C10.9048438,13.1765435 11.3960631,12.8648018 11.9513333,12.6344955 C12.5087898,12.4055345 13.1062072,12.290045 13.7461502,12.290045 L13.7461502,12.290045 Z M16.5927538,16.2560811 C16.6774054,16.1656276 16.7541111,16.0474474 16.820979,15.9199339 C16.8923874,15.7867868 16.8694535,15.6704775 16.7595766,15.5650991 C16.7312823,15.5368048 16.6633003,15.4746456 16.5611171,15.369015 C16.4582613,15.2594745 16.3932012,15.2040841 16.3626577,15.1898949 C16.2242973,15.0995045 16.0917177,15.087039 15.9671051,15.1508168 C15.8394234,15.2163183 15.7176486,15.3121742 15.592973,15.4286937 C15.2770588,15.7265263 14.9593977,16.0225003 14.640006,16.3166006 C14.3255315,16.6050931 14.0316156,16.8801532 13.7513213,17.1445766 C13.655045,17.237027 13.5493724,17.2958438 13.4311712,17.3124925 C13.3114775,17.3305285 13.2194264,17.2966426 13.1473453,17.2027838 C13.1056607,17.1661231 13.0404745,17.0999279 12.9488438,17.0069309 C12.8585586,16.9164775 12.7627447,16.8158709 12.67,16.7105345 C12.5735135,16.600994 12.4743994,16.5016276 12.3861742,16.4051622 C12.2957838,16.3065526 12.2303453,16.2372462 12.1900901,16.1965285 C12.1054384,16.131027 12.01097,16.0868198 11.9062643,16.0635916 C11.7993934,16.0455556 11.6945195,16.0784535 11.5833393,16.1733003 C11.5702643,16.1847988 11.5348649,16.214985 11.4764685,16.2580991 C11.4225075,16.3055225 11.3667598,16.3545856 11.3111802,16.4194565 C11.2582309,16.4736304 11.2030887,16.5256167 11.1458919,16.5752853 C11.0883363,16.6197447 11.0556066,16.6514444 11.043036,16.661955 C10.8337508,16.8712402 10.8594174,17.11603 11.1255856,17.3935706 C11.2102372,17.484024 11.3211862,17.6024565 11.4617327,17.738021 C11.5988318,17.8751201 11.748018,18.0265135 11.8993063,18.1800721 C12.0508679,18.3374985 12.2046787,18.4918559 12.3585315,18.6444054 C12.5134985,18.7956727 12.6466456,18.9153453 12.7568799,19.0074595 C12.8666517,19.1103784 13.0182973,19.1632883 13.2177658,19.1587267 C13.4136186,19.1586006 13.5581381,19.0933303 13.6553393,18.9908108 C13.8514234,18.8186907 14.0721652,18.6142613 14.3251111,18.3693874 C14.572003,18.1259429 14.8396847,17.8794294 15.1072823,17.631045 C15.3782222,17.3815886 15.6460721,17.1331832 15.902024,16.8914414 C16.1555796,16.647997 16.3876937,16.4322162 16.5995225,16.2504895 L16.5927538,16.2560811 Z M7.77441441,16.0363694 C7.77441441,16.1288198 7.77433033,16.2203243 7.7643033,16.3133634 C7.75427628,16.4064024 7.75351952,16.5024685 7.75351952,16.6097598 C7.75351952,17.2013544 7.8438048,17.7646336 8.02429129,18.2961291 C8.20765766,18.8277718 8.46234835,19.3174354 8.79693994,19.7639009 L2.69384384,19.7639009 C2.43242643,19.7639009 2.14313514,19.694027 1.82809309,19.5487297 C1.51361862,19.4037688 1.22012312,19.2125826 0.949771772,18.9764955 C0.678831832,18.7387898 0.45190991,18.4691742 0.27093994,18.1673544 C0.0873423423,17.8654715 0,17.5491051 0,17.2202523 L0,5.00798498 C0,4.73387087 0.0698738739,4.44586186 0.208906907,4.15066366 C0.350714715,3.85426727 0.529057057,3.5806997 0.754591592,3.33021321 C0.977687688,3.08075676 1.237003,2.8748979 1.52724024,2.7056997 C1.81962162,2.54213514 2.12684384,2.46061562 2.44886486,2.46061562 L3.93259159,2.46061562 L3.93259159,4.92846246 L13.0669189,4.92846246 L13.0669189,2.46061562 L14.3605946,2.46061562 C14.6807447,2.46061562 14.997006,2.52607508 15.3115435,2.65907508 C15.6260811,2.79207508 15.9078889,2.96715916 16.1586486,3.19071772 C16.4094084,3.41427628 16.6178739,3.68233634 16.7747538,4.00086787 C16.9363213,4.31601502 17.0155916,4.65060661 17.0155916,5.00573574 L17.0155916,11.9863544 C16.5299219,11.6862162 16.0082432,11.4498769 15.4504715,11.277042 C14.8931622,11.1049009 14.301,11.0201441 13.6759189,11.0201441 L13.5298228,11.0201441 C13.7833784,10.9276937 13.989048,10.7766997 14.1506997,10.5669099 C14.3066967,10.3552282 14.3915375,10.1171441 14.3915375,9.85496997 C14.3915375,9.5145976 14.2638559,9.22627327 14.0036577,8.98852553 C13.7467598,8.75081982 13.4401051,8.63369069 13.0787958,8.63369069 L3.94446847,8.63369069 C3.58351652,8.63369069 3.2746967,8.75054655 3.0166006,8.98852553 C2.7574955,9.22623123 2.62935135,9.51466066 2.62935135,9.85496997 C2.62935135,10.1984324 2.75703303,10.4910661 3.0166006,10.7332913 C3.27570571,10.9767357 3.58656456,11.0969339 3.94446847,11.0969339 L12.699009,11.0969339 C11.8637808,11.2298709 11.1054054,11.5071592 10.4262372,11.9345165 C9.74254955,12.3629459 9.17765165,12.904048 8.7317958,13.5604294 L3.94686486,13.5604294 C3.58591291,13.5604294 3.27709309,13.6798709 3.018997,13.9182282 C2.75989189,14.1558919 2.63174775,14.4426186 2.63174775,14.7846727 C2.63174775,15.1255916 2.75942943,15.4187508 3.018997,15.6611652 C3.2781021,15.9046096 3.58896096,16.0248078 3.94686486,16.0248078 L7.78843544,16.0248498 L7.77441441,16.0363694 Z" id="Shape"></path>
            </g>
        </g>
    </g>
</svg>