<?xml version="1.0" encoding="UTF-8"?>
<svg width="32px" height="32px" viewBox="0 0 32 32" version="1.1" xmlns="http://www.w3.org/2000/svg" xmlns:xlink="http://www.w3.org/1999/xlink">
    <!-- Generator: Sketch 46.1 (44463) - http://www.bohemiancoding.com/sketch -->
    <title>my_team</title>
    <desc>Created with Sketch.</desc>
    <defs>
        <path d="M4.40993521,20.6657365 C3.99206911,20.6657365 3.65188769,20.3222376 3.65188769,19.8998099 L3.65188769,18.0793348 C3.65188769,14.3974687 5.85028078,11.1326393 9.25278618,9.76140821 L9.48349028,9.66838013 L9.28844924,9.51384017 C8.0015378,8.49440173 7.26339525,6.97042765 7.26339525,5.33282937 C7.26339525,2.40030238 9.62863067,0.0146090713 12.5361382,0.0146090713 C15.443784,0.0146090713 17.8092959,2.40030238 17.8092959,5.33282937 C17.8092959,6.97056587 17.0710151,8.49453996 15.7838272,9.51384017 L15.5887862,9.66838013 L15.8196285,9.76140821 C19.2222721,11.1327775 21.4208035,14.3977451 21.4208035,18.0793348 L21.4208035,19.8998099 C21.4208035,20.3222376 21.0808985,20.6657365 20.6628942,20.6657365 L4.40993521,20.6657365 Z M12.5373006,11.0307636 C8.77006675,11.0307636 5.70513175,14.1204052 5.70513175,17.9178652 L5.70513175,18.8990334 L19.3663153,18.8990334 L19.3663153,17.9178652 C19.3663153,14.1204052 16.3028259,11.0307636 12.5373006,11.0307636 Z M12.536159,1.78841469 C10.6015135,1.78841469 9.02752718,3.37513321 9.02752718,5.32536917 C9.02752718,7.27573504 10.6015135,8.86245356 12.536159,8.86245356 C14.4711943,8.86245356 16.0454404,7.27573504 16.0454404,5.32536917 C16.0454404,3.37513321 14.4711943,1.78841469 12.536159,1.78841469 Z M22.5168207,17.7883629 C22.5082505,17.3029028 22.4550324,16.9422635 22.3531577,16.4655119 L23.7380734,16.4655119 L23.7380734,15.6142981 C23.7380734,13.044622 21.8494514,10.8116717 19.1448639,10.1838359 L18.9500994,10.1408467 C18.5967862,10.0316458 18.3519827,9.74302376 18.3519827,9.42565011 C18.3519827,9.11822894 18.5766048,8.84135637 18.9242505,8.72026782 C20.0463931,8.25180994 20.7661512,7.22366307 20.7661512,6.09765011 C20.7661512,4.8505486 19.4750929,3.7835594 18.2351793,3.39015983 C18.0246566,2.81637149 17.7148855,2.28018143 17.3134687,1.79541253 C17.2902462,1.76002592 17.2664708,1.72477754 17.2421425,1.68939093 C19.8812095,1.70307559 22.0236199,3.67560259 22.0236199,6.09820302 C22.0236199,7.18772354 21.5810108,8.23632829 20.7766566,9.05091145 L20.6337279,9.19577538 L20.8172959,9.28313607 C23.3952657,10.5103326 24.9958186,12.9362505 24.9938834,15.6140216 L24.9938834,17.0225745 C24.9938834,17.4448639 24.6145832,17.7882246 24.1483369,17.7882246 L22.5168207,17.7882246 L22.5168207,17.7883629 Z M0.85800432,17.7883629 C0.39161987,17.7883629 0.0123196544,17.4450022 0.0123196544,17.0227127 L0.0123196544,15.6142981 C0.0123196544,12.9362505 1.61328726,10.5103326 4.19042765,9.2832743 L4.37399568,9.19591361 L4.23120518,9.0511879 C3.42740389,8.23632829 2.98451836,7.18772354 2.98451836,6.09834125 C2.98451836,3.67601728 5.12692873,1.70390497 7.76571922,1.69008207 C7.74111447,1.72574514 7.71733909,1.76099352 7.69439309,1.79610367 C7.29366739,2.28045788 6.98361987,2.81664795 6.77199136,3.3909892 C5.58460475,3.7697365 4.40592657,4.80714471 4.40592657,6.09834125 C4.40592657,7.22421598 5.12582289,8.25236285 6.23980994,8.71750324 C6.595473,8.84204752 6.82009503,9.11905832 6.82009503,9.42620302 C6.82009503,9.7437149 6.57529158,10.0324752 6.21078186,10.1444406 L6.02859611,10.1841123 C3.32276458,10.8116717 1.43414255,13.0443456 1.43414255,15.6141598 L1.43414255,16.4653737 L2.65346004,16.4653737 C2.55158531,16.9447516 2.49822894,17.3058056 2.48952052,17.7882246 L0.85800432,17.7882246 L0.85800432,17.7883629 Z" id="path-1"></path>
        <filter x="-1.0%" y="-1.2%" width="102.0%" height="104.8%" filterUnits="objectBoundingBox" id="filter-2">
            <feOffset dx="0" dy="0.5" in="SourceAlpha" result="shadowOffsetOuter1"></feOffset>
            <feComposite in="shadowOffsetOuter1" in2="SourceAlpha" operator="out" result="shadowOffsetOuter1"></feComposite>
            <feColorMatrix values="0 0 0 0 1   0 0 0 0 1   0 0 0 0 1  0 0 0 0.4 0" type="matrix" in="shadowOffsetOuter1"></feColorMatrix>
        </filter>
    </defs>
    <g id="04_promoter_03" stroke="none" stroke-width="1" fill="none" fill-rule="evenodd">
        <g id="03_推广个人业绩页" transform="translate(-12.000000, -321.000000)">
            <g id="my_team" transform="translate(16.000000, 327.000000)">
                <g id="Shape">
                    <use fill="black" fill-opacity="1" filter="url(#filter-2)" xlink:href="#path-1"></use>
                    <use fill-opacity="0.600000024" fill="#000000" fill-rule="evenodd" xlink:href="#path-1"></use>
                    <use fill-opacity="0.100000001" fill="#000000" fill-rule="evenodd" style="mix-blend-mode: soft-light;" xlink:href="#path-1"></use>
                </g>
            </g>
        </g>
    </g>
</svg>