<?xml version="1.0" encoding="UTF-8"?>
<svg width="32px" height="32px" viewBox="0 0 32 32" version="1.1" xmlns="http://www.w3.org/2000/svg" xmlns:xlink="http://www.w3.org/1999/xlink">
    <!-- Generator: Sketch 43 (38999) - http://www.bohemiancoding.com/sketch -->
    <title>my_topic</title>
    <desc>Created with Sketch.</desc>
    <defs></defs>
    <g id="01_main" stroke="none" stroke-width="1" fill="none" fill-rule="evenodd">
        <g id="05_mine_0803-copy-2" transform="translate(-31.000000, -146.000000)" fill="#00BFD7">
            <g id="my_topic" transform="translate(31.000000, 146.000000)">
                <path d="M16,32 C24.836556,32 32,24.836556 32,16 C32,7.163444 24.836556,0 16,0 C7.163444,0 0,7.163444 0,16 C0,24.836556 7.163444,32 16,32 Z M13.5702204,10.2555502 C14.5387427,9.69698666 16.532996,8.88888887 16.9889307,8.88888887 C15.3320818,10.6655093 13.6740244,12.3489053 14.2538449,14.3573298 C17.9952,11.3037133 21.7548733,7.14590134 27.9269876,10.2555502 C20.6076409,10.8412809 20.5940573,14.5319258 17.6725551,19.1427338 C17.8925716,20.8975093 21.015804,20.4309298 21.7737471,21.8778196 C20.7090938,21.7215093 18.436408,21.8660316 16.9889307,23.2451013 C5.58491422,22.9879258 11.2462369,18.3558604 4,17.7760724 C5.51118356,15.6325622 5.04048978,15.1282684 6.73453066,14.3573298 C8.53116756,13.5368564 9.01309378,15.9528564 10.8362773,16.4093787 C11.3175836,12.4987173 11.1642449,12.6249542 13.5702204,10.2555502 Z" id="Shape"></path>
            </g>
        </g>
    </g>
</svg>