<?xml version="1.0" encoding="UTF-8"?>
<svg width="24px" height="24px" viewBox="0 0 24 24" version="1.1" xmlns="http://www.w3.org/2000/svg" xmlns:xlink="http://www.w3.org/1999/xlink">
    <!-- Generator: Sketch 43 (38999) - http://www.bohemiancoding.com/sketch -->
    <title>my_wallet@1.5x</title>
    <desc>Created with Sketch.</desc>
    <defs></defs>
    <g id="01_main" stroke="none" stroke-width="1" fill="none" fill-rule="evenodd">
        <g id="05_mine_0803-copy-2" transform="translate(-25.000000, -409.000000)" fill="#EB3833">
            <g id="my_wallet" transform="translate(27.000000, 412.000000)">
                <path d="M16.4002676,17.179398 L2.14046823,17.179398 C0.960356745,17.179398 0,16.2190412 0,15.0389298 L0,2.14046823 C0,0.960356745 0.960356745,0 2.14046823,0 L16.4659086,0 C17.6460201,0 18.6063768,0.960356745 18.6063768,2.14046823 L18.6063768,4.2374136 C18.6063768,4.63125975 18.287447,4.95090301 17.8928874,4.95090301 C17.4983278,4.95090301 17.179398,4.63125975 17.179398,4.2374136 L17.179398,2.14046823 C17.179398,1.74733556 16.8597547,1.42697882 16.4659086,1.42697882 L2.14046823,1.42697882 C1.74733556,1.42697882 1.42697882,1.74733556 1.42697882,2.14046823 L1.42697882,15.0389298 C1.42697882,15.4327759 1.74733556,15.7524192 2.14046823,15.7524192 L16.4002676,15.7524192 C16.7941137,15.7524192 17.113757,15.4327759 17.113757,15.0389298 L17.113757,12.8328205 C17.113757,12.4382609 17.4326867,12.1193311 17.8272464,12.1193311 C18.221806,12.1193311 18.5407358,12.4382609 18.5407358,12.8328205 L18.5407358,15.0389298 C18.5407358,16.2190412 17.5810925,17.179398 16.4002676,17.179398 L16.4002676,17.179398 Z M12.6244816,8.56544036 C12.6244816,8.17966555 12.9372129,7.86693423 13.3229877,7.86693423 C13.7087625,7.86693423 14.0214939,8.17966555 14.0214939,8.56544036 C14.0214939,8.95121516 13.7087625,9.26394649 13.3229877,9.26394649 C12.9372129,9.26394649 12.6244816,8.95121516 12.6244816,8.56544036 L12.6244816,8.56544036 Z M18.5521516,11.3723077 L11.4172575,11.3723077 C10.6302787,11.3723077 9.99027871,10.7323077 9.99027871,9.94532887 L9.99027871,7.09137124 C9.99027871,6.30439242 10.6302787,5.66439242 11.4172575,5.66439242 L18.5521516,5.66439242 C19.3391304,5.66439242 19.9791304,6.30439242 19.9791304,7.09137124 L19.9791304,9.94532887 C19.9791304,10.7323077 19.3391304,11.3723077 18.5521516,11.3723077 L18.5521516,11.3723077 Z M11.4172575,7.09137124 L11.4172575,9.94532887 L18.5535786,9.94532887 L18.5521516,7.09137124 L11.4172575,7.09137124 L11.4172575,7.09137124 Z" id="Shape"></path>
            </g>
        </g>
    </g>
</svg>