<?xml version="1.0" encoding="UTF-8"?>
<svg width="32px" height="32px" viewBox="0 0 32 32" version="1.1" xmlns="http://www.w3.org/2000/svg" xmlns:xlink="http://www.w3.org/1999/xlink">
    <!-- Generator: Sketch 46.1 (44463) - http://www.bohemiancoding.com/sketch -->
    <title>purchase_24</title>
    <desc>Created with Sketch.</desc>
    <defs></defs>
    <g id="Symbols" stroke="none" stroke-width="1" fill="none" fill-rule="evenodd">
        <g id="purchase_24" fill-rule="nonzero" fill="#FFFFFF">
            <path d="M25.4492703,10.4117697 C23.4879426,7.08552549 19.9159721,5 15.9825639,5 C9.91674132,5 5,9.91711906 5,15.9822114 C5,22.0476563 9.91674134,26.9647753 15.9825639,26.9647753 C22.0480592,26.9647753 26.9647753,22.0476563 26.9647753,15.9822114 C26.9647753,15.6033226 26.6578567,15.2960766 26.2783132,15.2960766 C25.8990718,15.2960766 25.5918258,15.6033226 25.5918258,15.9822114 C25.5918258,21.2895764 21.2896016,25.5918258 15.9825388,25.5918258 C10.6751486,25.5918258 6.37294955,21.2895512 6.37294955,15.9822114 C6.37294955,10.6751989 10.6751737,6.37292437 15.9825388,6.37292437 C19.4249477,6.37292437 22.5493579,8.19736257 24.2664199,11.1089343 C24.4591884,11.4356207 24.8799298,11.5440546 25.2062637,11.3516135 C25.5329502,11.1591724 25.6417114,10.7384562 25.4492703,10.4117697 Z M15.2961018,14.9526692 L15.2961018,15.9822114 L12.4520935,15.9822114 C12.0732298,15.9822114 11.7656313,16.2898099 11.7656313,16.6686736 C11.7656313,17.047915 12.0732298,17.3551861 12.4520935,17.3551861 L15.2961018,17.3551861 L15.2961018,18.7281357 L12.4520935,18.7281357 C12.0732298,18.7281357 11.7656313,19.0353817 11.7656313,19.4142705 C11.7656313,19.7934867 12.0732298,20.1007327 12.4520935,20.1007327 L15.2961018,20.1007327 L15.2961018,22.8462541 C15.2961018,23.2254703 15.6030204,23.5327163 15.9825639,23.5327163 C16.3618053,23.5327163 16.6686988,23.2254703 16.6686988,22.8462541 L16.6686988,20.1007327 L19.6633208,20.1007327 C20.042537,20.1007327 20.349783,19.7934867 20.349783,19.4142705 C20.349783,19.0353817 20.042537,18.7281357 19.6633208,18.7281357 L16.6686988,18.7281357 L16.6686988,17.3551861 L19.6633208,17.3551861 C20.042537,17.3551861 20.349783,17.047915 20.349783,16.6686736 C20.349783,16.2898099 20.042537,15.9822114 19.6633208,15.9822114 L16.6686988,15.9822114 L16.6686988,14.9526692 C16.6686988,14.8910991 16.6606657,14.8311659 16.645632,14.7746071 C16.8852894,14.6839014 17.1098376,14.542328 17.302606,14.3495344 L20.2426334,11.4091796 C20.5107213,11.1410917 20.5107213,10.7066513 20.2426334,10.4385382 C19.9752003,10.1704503 19.5408102,10.1704503 19.2727223,10.4385382 L16.3319898,13.378893 C16.1402286,13.5703519 15.8239171,13.5700246 15.6328107,13.378893 L12.6921034,10.4385634 C12.4240155,10.1704755 11.9896003,10.1704755 11.7221419,10.4385634 C11.454054,10.7066513 11.454054,11.1410917 11.7221419,11.4092048 L14.6621693,14.3495595 C14.8546356,14.5420258 15.0795111,14.6835992 15.3194959,14.7742797 C15.3041348,14.8311659 15.2961018,14.8910992 15.2961018,14.9526692 Z" id="Shape"></path>
        </g>
    </g>
</svg>