<?xml version="1.0" encoding="UTF-8"?>
<svg width="32px" height="32px" viewBox="0 0 32 32" version="1.1" xmlns="http://www.w3.org/2000/svg" xmlns:xlink="http://www.w3.org/1999/xlink">
    <!-- Generator: Sketch 43 (38999) - http://www.bohemiancoding.com/sketch -->
    <title>right_green</title>
    <desc>Created with Sketch.</desc>
    <defs></defs>
    <g id="my_order" stroke="none" stroke-width="1" fill="none" fill-rule="evenodd">
        <g id="03_订单详情_已发货" transform="translate(-138.000000, -79.000000)">
            <g id="right_green" transform="translate(138.000000, 79.000000)">
                <path d="M15.8896731,31.7664488 C7.13229646,31.7664488 0,24.6341523 0,15.8767757 C0,7.119399 7.13229646,0 15.8896731,0 C24.6470498,0 31.7793462,7.13229646 31.7793462,15.8896731 C31.7793462,17.5276508 31.5342945,19.1398335 31.0441909,20.6746315 L29.1740589,20.0813483 C29.5996752,18.7271148 29.818932,17.3212914 29.818932,15.8896731 C29.818932,8.21568326 23.5765604,1.97331168 15.9025706,1.97331168 C8.22858072,1.97331168 1.98620914,8.21568326 1.98620914,15.8896731 C1.98620914,23.563663 8.21568326,29.8060346 15.8896731,29.8060346 C19.2430132,29.8060346 22.4802762,28.5936731 25.0081787,26.4011046 L26.2979249,27.8843127 C23.4088934,30.3864204 19.7202193,31.7664488 15.8896731,31.7664488 Z" id="Shape" fill="#04D800" opacity="0.224524457"></path>
                <path d="M4,16.1586915 C4,22.8737512 9.44363145,28.3173826 16.1586911,28.3173826 C22.8737508,28.3173826 28.3173823,22.8737512 28.3173823,16.1586915 C28.3173824,11.8148095 25.999949,7.80089686 22.2380368,5.6289558 C18.4761246,3.45701473 13.8412577,3.45701473 10.0793455,5.6289558 C6.31743328,7.80089686 3.99999987,11.8148095 4,16.1586915 L4,16.1586915 Z" id="Shape" fill="#04D800"></path>
                <path d="M13.6091495,22.0792105 C13.3776769,22.0792105 13.1340217,21.9939311 12.9512802,21.8111897 L7.27411219,16.1218389 C6.90862927,15.756356 6.90862927,15.1715833 7.27411219,14.8061004 C7.63959511,14.4406175 8.22436778,14.4406175 8.5898507,14.8061004 L13.6091495,19.8253991 L23.1604364,10.2741122 C23.5259193,9.90862927 24.110692,9.90862927 24.4761749,10.2741122 C24.8416578,10.6395951 24.8416578,11.2243678 24.4761749,11.5898507 L14.2670187,21.7990069 C14.0842773,21.9817484 13.8528047,22.0792105 13.6091495,22.0792105 L13.6091495,22.0792105 Z" id="Shape" fill="#FFFFFF"></path>
            </g>
        </g>
    </g>
</svg>