<?xml version="1.0" encoding="UTF-8"?>
<svg width="32px" height="32px" viewBox="0 0 32 32" version="1.1" xmlns="http://www.w3.org/2000/svg" xmlns:xlink="http://www.w3.org/1999/xlink">
    <!-- Generator: Sketch 43 (38999) - http://www.bohemiancoding.com/sketch -->
    <title>service</title>
    <desc>Created with Sketch.</desc>
    <defs></defs>
    <g id="Symbols" stroke="none" stroke-width="1" fill="none" fill-rule="evenodd">
        <g id="service" fill-rule="nonzero" fill="#FFFFFF">
            <g transform="translate(4.000000, 6.000000)" id="Shape">
                <path d="M8.59999499,5.55290579 C3.89998346,5.55290579 0,8.78363617 0,12.8221153 C0,14.7403922 1.00000501,16.6586452 2.70000149,17.9711948 C2.79998997,18.0721213 2.79998997,18.2740705 2.79998997,18.374997 L2.29999949,19.9903982 C2.20001101,20.293298 2.29999949,20.5961978 2.50000049,20.7980748 C2.60001302,20.8990494 2.79998997,21 2.99999097,21 L3.29998045,21 L6.19998295,19.8894237 L6.39998395,19.8894237 C7.19998796,19.9903982 7.89995539,20.0913488 8.59999497,20.0913488 C13.3000065,20.0913488 17.19999,16.8605703 17.19999,12.8221153 C17.19999,8.78366024 13.3000065,5.55290579 8.59999499,5.55290579 Z M6.69997345,18.374997 C6.2999955,18.2740705 5.90001754,18.374997 5.60000401,18.4759716 L4.10000853,19.0817471 L4.19999701,18.87987 C4.39999801,18.0721453 4.19999701,17.3653953 3.599994,16.8605944 C2.19998699,15.750018 1.49999551,14.336566 1.49999551,12.8221153 C1.49999551,9.69231139 4.69998749,7.06730841 8.59999501,7.06730841 C12.5000025,7.06730841 15.6999945,9.5913368 15.6999945,12.8221153 C15.7000186,16.4567681 11.400009,19.3846468 6.69997345,18.374997 Z M24,7.26920948 C24,3.23077847 20.0999925,0 15.400005,0 C12.3000015,0 9.39999899,1.41347611 7.89997946,3.73557934 C7.70000251,4.0384791 7.80001503,4.54325592 8.10000451,4.74520514 C8.39999399,4.9471303 8.90000851,4.84613164 9.09996142,4.54323187 C10.400004,2.72592949 12.799992,1.51440262 15.400005,1.51440262 C19.3000125,1.51440262 22.5000045,4.13942967 22.5000045,7.26920948 C22.5000045,8.78363614 21.7000005,10.1971123 20.400006,11.3077127 C19.800003,11.8124895 19.600002,12.6201901 19.800003,13.3269161 L19.9000155,13.5288413 L19.0000231,13.125015 C18.6000211,12.9230899 18.0999825,13.125015 18.0000181,13.5288413 C17.8000171,13.9326676 18.0000181,14.4375166 18.4000201,14.538443 L20.7000195,15.3461437 C20.800008,15.4471183 20.9000205,15.4471183 21.000009,15.4471183 C21.0999975,15.4471183 21.2999985,15.4471183 21.600012,15.3461437 C21.800013,15.1442185 21.9000015,14.8413428 21.800013,14.538443 L21.3000226,12.9230658 C21.2000341,12.7211407 21.3000226,12.6201661 21.400011,12.5192396 C23.1000075,11.1057875 24,9.28846108 24,7.26920948 Z M4.80000001,11.8124895 C4.19999701,11.8124895 3.69995841,12.3173144 3.69995841,12.9230899 C3.69995841,13.5288653 4.19999701,14.0336903 4.80000001,14.0336903 C5.40000301,14.0336903 5.89999349,13.5288653 5.89999349,12.9230899 C5.90001754,12.3173385 5.40000301,11.8124895 4.80000001,11.8124895 Z M8.49998247,11.8124895 C7.89997946,11.8124895 7.40001303,12.3173144 7.40001303,12.9230899 C7.40001303,13.5288653 7.89997946,14.0336903 8.49998247,14.0336903 C9.09998547,14.0336903 9.60002406,13.5288653 9.60002406,12.9230899 C9.60000002,12.3173385 9.09998547,11.8124895 8.49998247,11.8124895 Z M12.3000015,11.8124895 C11.6999985,11.8124895 11.1999599,12.3173144 11.1999599,12.9230899 C11.1999599,13.5288653 11.6999985,14.0336903 12.3000015,14.0336903 C12.9000045,14.0336903 13.399995,13.5288653 13.399995,12.9230899 C13.400019,12.3173385 12.9000045,11.8124895 12.3000015,11.8124895 Z"></path>
            </g>
        </g>
    </g>
</svg>