<?xml version="1.0" encoding="UTF-8"?>
<svg width="32px" height="32px" viewBox="0 0 32 32" version="1.1" xmlns="http://www.w3.org/2000/svg" xmlns:xlink="http://www.w3.org/1999/xlink">
    <!-- Generator: Sketch 46.1 (44463) - http://www.bohemiancoding.com/sketch -->
    <title>shop_invite</title>
    <desc>Created with Sketch.</desc>
    <defs>
        <path d="M4.15735795,22.6420455 C2.75005682,22.6420455 1.60511364,21.4998864 1.60511364,20.0959659 L1.60511364,15.3693182 C1.60511364,14.7417045 2.11389205,14.2329545 2.74147727,14.2329545 C3.3690625,14.2329545 3.87784091,14.7417045 3.87784091,15.3693182 L3.87784091,20.0959659 C3.87784091,20.2415909 4.00846591,20.3693182 4.15735795,20.3693182 L20.8509659,20.3693182 C20.9968466,20.3690057 21.1221591,20.2438352 21.1221591,20.0959659 L21.1221591,15.3693182 C21.1221591,14.7417045 21.6309091,14.2329545 22.2585227,14.2329545 C22.8861364,14.2329545 23.3948864,14.7417045 23.3948864,15.3693182 L23.3948864,20.0959659 C23.3948864,21.496875 22.2547727,22.6390625 20.8534091,22.6420455 L4.15735795,22.6420455 Z" id="path-1"></path>
        <filter x="-1.1%" y="-3.0%" width="102.3%" height="111.9%" filterUnits="objectBoundingBox" id="filter-2">
            <feOffset dx="0" dy="0.5" in="SourceAlpha" result="shadowOffsetOuter1"></feOffset>
            <feComposite in="shadowOffsetOuter1" in2="SourceAlpha" operator="out" result="shadowOffsetOuter1"></feComposite>
            <feColorMatrix values="0 0 0 0 1   0 0 0 0 1   0 0 0 0 1  0 0 0 0.4 0" type="matrix" in="shadowOffsetOuter1"></feColorMatrix>
        </filter>
        <path d="M5.1328125,13.9204545 L5.13076705,13.9204545 C4.24224432,13.9202841 3.44539773,13.7405682 2.76238636,13.3863068 L2.73204545,13.3705682 L2.71042614,13.357642 C1.03960227,12.462983 0.001875,10.7323295 0,8.83795455 C0,8.30142045 0.0846022727,7.76769886 0.251477273,7.25014205 C0.2528125,7.24389205 0.254119318,7.23803977 0.255340909,7.23258523 L0.277698864,7.13372159 L2.51235795,1.85380682 C2.90051136,0.709971591 3.96122159,0 5.28352273,0 L19.7770739,0 C20.4194886,0.00142045455 21.0195739,0.169971591 21.515,0.487471591 C22.0458239,0.827670455 22.4316477,1.31860795 22.6311932,1.9075 L24.6967614,7.04951705 L24.733608,7.14224432 L24.7578409,7.26136364 C24.9186932,7.75778409 25.0023295,8.29482955 24.9999432,8.81642045 L24.9999432,8.81877841 C25.0008523,10.6973295 23.9771875,12.4242898 22.3284091,13.3251989 C21.6313636,13.707358 20.8073295,13.9040625 19.8805966,13.9090057 L19.8739205,13.9090341 C18.4628125,13.9082955 17.1307386,13.3367045 16.1704261,12.3303693 C15.2211932,13.3260227 13.9081534,13.8984375 12.5195739,13.9115909 L12.509858,13.9116761 L12.5001705,13.9116193 C11.1030966,13.9010227 9.78315341,13.3301136 8.83005682,12.3343466 C7.87002841,13.341392 6.54079545,13.9156818 5.13482955,13.9204545 L5.1328125,13.9204545 Z M3.82923295,11.3792898 C4.181875,11.5570739 4.61900568,11.6473864 5.12897727,11.6477273 C5.97286932,11.6443466 6.76616477,11.2739205 7.30568182,10.6313068 C7.68431818,10.1803125 8.23917614,9.92142045 8.82801136,9.92090909 C9.41784091,9.92090909 9.97255682,10.1789205 10.3515341,10.6288068 C10.8848295,11.2619602 11.6701705,11.6297159 12.507642,11.6388636 C13.336392,11.6282386 14.1152557,11.2599716 14.6458239,10.6275 C15.0247159,10.1758239 15.5802273,9.91664773 16.1698864,9.91650568 L16.1703409,9.91650568 C16.7597727,9.91650568 17.3151705,10.1753977 17.6942614,10.6268466 C18.2318182,11.2671591 19.0253693,11.6349432 19.8719886,11.6363068 C20.4151705,11.6329545 20.8744886,11.5304261 21.2372443,11.3315625 C22.157358,10.8288068 22.7277557,9.86647727 22.7272159,8.81934659 L22.7272443,8.80789773 C22.7287784,8.52056818 22.6821591,8.22463068 22.5925284,7.95204545 C22.5761932,7.90244318 22.5617614,7.851875 22.5493182,7.80079545 L20.5191761,2.74704545 C20.5050284,2.71184659 20.4914773,2.67511364 20.4791193,2.63823864 C20.3657386,2.30028409 19.9111932,2.27303977 19.7745739,2.27272727 L5.28352273,2.27272727 C5.04869318,2.27272727 4.75059659,2.32707386 4.66394886,2.58588068 C4.64784091,2.63403409 4.62951705,2.68247159 4.60960227,2.72960227 L2.44678977,7.83971591 C2.4378125,7.87318182 2.42786932,7.90661932 2.41713068,7.93960227 C2.32133523,8.23380682 2.27272727,8.53576705 2.27272727,8.83684659 C2.27377841,9.89289773 2.85375,10.8585511 3.78633523,11.3557386 C3.80034091,11.3631818 3.81477273,11.371108 3.82923295,11.3792898 Z" id="path-3"></path>
        <filter x="-1.0%" y="-1.8%" width="102.0%" height="107.2%" filterUnits="objectBoundingBox" id="filter-4">
            <feOffset dx="0" dy="0.5" in="SourceAlpha" result="shadowOffsetOuter1"></feOffset>
            <feComposite in="shadowOffsetOuter1" in2="SourceAlpha" operator="out" result="shadowOffsetOuter1"></feComposite>
            <feColorMatrix values="0 0 0 0 1   0 0 0 0 1   0 0 0 0 1  0 0 0 0.4 0" type="matrix" in="shadowOffsetOuter1"></feColorMatrix>
        </filter>
        <path d="M18.6079545,7.44318182 L6.39204545,7.44318182 C5.76446023,7.44318182 5.25568182,6.93440341 5.25568182,6.30681818 C5.25568182,5.67923295 5.76446023,5.17045455 6.39204545,5.17045455 L18.6079545,5.17045455 C19.2355682,5.17045455 19.7443182,5.67923295 19.7443182,6.30681818 C19.7443182,6.93440341 19.2355682,7.44318182 18.6079545,7.44318182 Z" id="path-5"></path>
        <filter x="-1.7%" y="-11.0%" width="103.5%" height="144.0%" filterUnits="objectBoundingBox" id="filter-6">
            <feOffset dx="0" dy="0.5" in="SourceAlpha" result="shadowOffsetOuter1"></feOffset>
            <feComposite in="shadowOffsetOuter1" in2="SourceAlpha" operator="out" result="shadowOffsetOuter1"></feComposite>
            <feColorMatrix values="0 0 0 0 1   0 0 0 0 1   0 0 0 0 1  0 0 0 0.4 0" type="matrix" in="shadowOffsetOuter1"></feColorMatrix>
        </filter>
    </defs>
    <g id="04_promoter_03" stroke="none" stroke-width="1" fill="none" fill-rule="evenodd">
        <g id="03_推广个人业绩页" transform="translate(-12.000000, -228.000000)">
            <g id="shop_invite" transform="translate(16.000000, 233.000000)">
                <g id="Group">
                    <g id="Shape">
                        <use fill="black" fill-opacity="1" filter="url(#filter-2)" xlink:href="#path-1"></use>
                        <use fill-opacity="0.600000024" fill="#000000" fill-rule="evenodd" xlink:href="#path-1"></use>
                        <use fill-opacity="0.100000001" fill="#000000" fill-rule="evenodd" style="mix-blend-mode: soft-light;" xlink:href="#path-1"></use>
                    </g>
                    <g id="Shape">
                        <use fill="black" fill-opacity="1" filter="url(#filter-4)" xlink:href="#path-3"></use>
                        <use fill-opacity="0.600000024" fill="#000000" fill-rule="evenodd" xlink:href="#path-3"></use>
                        <use fill-opacity="0.100000001" fill="#000000" fill-rule="evenodd" style="mix-blend-mode: soft-light;" xlink:href="#path-3"></use>
                    </g>
                    <g id="Shape">
                        <use fill="black" fill-opacity="1" filter="url(#filter-6)" xlink:href="#path-5"></use>
                        <use fill-opacity="0.600000024" fill="#000000" fill-rule="evenodd" xlink:href="#path-5"></use>
                        <use fill-opacity="0.100000001" fill="#000000" fill-rule="evenodd" style="mix-blend-mode: soft-light;" xlink:href="#path-5"></use>
                    </g>
                </g>
            </g>
        </g>
    </g>
</svg>