<?xml version="1.0" encoding="UTF-8"?>
<svg width="24px" height="24px" viewBox="0 0 24 24" version="1.1" xmlns="http://www.w3.org/2000/svg" xmlns:xlink="http://www.w3.org/1999/xlink">
    <!-- Generator: Sketch 43 (38999) - http://www.bohemiancoding.com/sketch -->
    <title>v</title>
    <desc>Created with Sketch.</desc>
    <defs></defs>
    <g id="01_main" stroke="none" stroke-width="1" fill="none" fill-rule="evenodd">
        <g id="05_mine_0803-copy-2" transform="translate(-88.000000, -86.000000)" fill-rule="nonzero" fill="#FFFFFF">
            <g id="v" transform="translate(92.000000, 90.000000)">
                <path d="M8,0 C3.58214286,0 0,3.58214286 0,8 C0,12.4178571 3.58214286,16 8,16 C12.4178571,16 16,12.4178571 16,8 C16,3.58214286 12.4178571,0 8,0 Z M12.8696429,4.96607143 C12.8589286,5.00357143 12.8410714,5.04285714 12.8178571,5.08035714 L8.05892857,12.6625 L5.58928571,12.6625 L4.79642857,5.66964286 C4.76785714,5.39642857 4.7,5.19285714 4.59464286,5.06071429 C4.48928571,4.92678571 4.32678571,4.84107143 4.10892857,4.80178571 L4.2125,4.52321429 L6.45892857,4.52321429 C6.7,4.52321429 6.87857143,4.58035714 6.99642857,4.69464286 C7.11428571,4.80892857 7.1875,4.99821429 7.21607143,5.26071429 L7.65535714,10.1232143 L10.125,5.46071429 C10.1482143,5.41428571 10.1678571,5.3625 10.1857143,5.31071429 C10.2035714,5.25892857 10.2107143,5.21785714 10.2107143,5.18928571 C10.2107143,5.07857143 10.1678571,4.99285714 10.0821429,4.92678571 C9.99642857,4.8625 9.86964286,4.82142857 9.70357143,4.80178571 L9.78928571,4.52321429 L12.3464286,4.52321429 C12.5125,4.52321429 12.6446429,4.55357143 12.7410714,4.6125 C12.8392857,4.67321429 12.8875,4.75 12.8875,4.84642857 C12.8875,4.8875 12.8803571,4.92678571 12.8696429,4.96607143 L12.8696429,4.96607143 Z" id="Shape"></path>
            </g>
        </g>
    </g>
</svg>