<?xml version="1.0" encoding="UTF-8"?>
<svg width="58px" height="58px" viewBox="0 0 58 58" version="1.1" xmlns="http://www.w3.org/2000/svg" xmlns:xlink="http://www.w3.org/1999/xlink">
    <!-- Generator: Sketch 46.1 (44463) - http://www.bohemiancoding.com/sketch -->
    <title>friend01</title>
    <desc>Created with Sketch.</desc>
    <defs></defs>
    <g id="signup" stroke="none" stroke-width="1" fill="none" fill-rule="evenodd">
        <g id="icon" transform="translate(-30.000000, -571.000000)">
            <g id="friend01" transform="translate(30.000000, 571.000000)">
                <rect id="Rectangle-7" fill="#CF5500" x="0" y="0" width="58" height="58"></rect>
                <path d="M31.0014768,27.8422234 C33.2253943,26.2168233 34.6600688,23.6991007 34.6600688,20.8695005 C34.6600688,15.9786982 30.385895,12 25.1311735,12 C19.8766739,12 15.6025001,15.9784778 15.6025001,20.8695005 C15.6025001,23.6991007 17.0386726,26.2168233 19.2610921,27.8422234 C13.4047705,30.0206827 9.24994019,35.3462402 9.24994019,41.5651671 L9.24994019,44.5216673 C9.24994019,45.3387755 9.9602866,46 10.8381911,46 L39.4245442,46 C40.3023932,46 41.0125732,45.3387755 41.0125732,44.5216673 L41.0125732,41.5651671 C41.0127396,35.3446974 36.8591855,30.0206827 31.0014768,27.8422234 L31.0014768,27.8422234 Z M25.1313954,14.9565553 C28.634802,14.9565553 31.4838443,17.6085065 31.4838443,20.8695005 C31.4838443,24.1307701 28.634802,26.7827213 25.1313954,26.7827213 C21.6277668,26.7827213 18.7787245,24.130715 18.7787245,20.8695005 C18.7787245,17.6084513 21.6277114,14.9565553 25.1313954,14.9565553 L25.1313954,14.9565553 Z M37.8362933,43.0434998 L12.4262201,43.0434998 L12.4262201,41.5651671 C12.4262201,35.0444463 18.1258028,29.7391664 25.1328379,29.7391664 C32.1382086,29.7391664 37.8362933,35.0444463 37.8362933,41.5651671 L37.8362933,43.0434998 L37.8362933,43.0434998 Z" id="Shape" fill="#FFFFFF" fill-rule="nonzero"></path>
                <path d="M43.571346,30.3076923 C42.1461218,30.3076923 40.8209538,31.0361774 39.948718,32.2374383 C39.0769964,31.03589 37.7520938,30.3076923 36.3260899,30.3076923 C33.7568971,30.3076923 31.6666667,32.6361907 31.6666667,35.4985564 C31.6666667,37.2061647 32.4153046,38.4040616 33.0171017,39.3665342 C34.7661025,42.1621793 39.1636642,45.6412767 39.3499569,45.7879541 C39.5293977,45.9292899 39.7391657,46 39.9484691,46 C40.1582536,46 40.3677395,45.9292899 40.5469813,45.7879541 C40.733473,45.6412767 45.1313002,42.1621793 46.8798033,39.3665342 C47.4818824,38.4040447 48.2307692,37.2061478 48.2307692,35.4985564 C48.2307527,32.6361907 46.1405223,30.3076923 43.571346,30.3076923 Z M44.5824858,38.5968355 C43.3137276,40.6254708 39.9485157,43.2751205 39.9485157,43.2751205 C39.9485157,43.2751205 36.5836957,40.6254579 35.3145329,38.5968355 C34.8464642,37.8478977 34.4273504,37.1360744 34.4273504,36.1525589 C34.4273504,34.4542313 35.663198,33.0769231 37.1879457,33.0769231 C38.3147445,33.0769231 39.2820731,33.8301766 39.711213,34.908546 L39.711213,34.903174 L39.7123762,34.903174 C39.7443512,35.0156255 39.8375578,35.0976098 39.9485283,35.0976098 C40.0598781,35.0976098 40.1530974,35.0156255 40.1848574,34.903174 L40.188132,34.903174 C40.6182581,33.8280123 41.5842338,33.0769231 42.7094902,33.0769231 C44.2338712,33.0769231 45.4700855,34.4542313 45.4700855,36.1525589 C45.4700855,37.1360744 45.0509464,37.8478977 44.5824858,38.5968355 Z" id="Shape" fill="#CF5500" fill-rule="nonzero"></path>
                <path d="M44.704427,38.5855263 C43.4022805,40.6665456 39.9485103,43.3846154 39.9485103,43.3846154 C39.9485103,43.3846154 36.4951424,40.6665324 35.1925807,38.5855263 C34.7121943,37.8172492 34.2820513,37.0870449 34.2820513,36.0781327 C34.2820513,34.3359504 35.5504212,32.9230769 37.1152938,32.9230769 C38.2717452,32.9230769 39.2645298,33.6957811 39.7049629,34.8019966 L39.7049629,34.7964859 L39.7061567,34.7964859 C39.7389731,34.9118411 39.8346325,34.9959424 39.9485233,34.9959424 C40.0628034,34.9959424 40.1584758,34.9118411 40.1910716,34.7964859 L40.1944324,34.7964859 C40.6358776,33.693561 41.6272737,32.9230769 42.7821421,32.9230769 C44.3466384,32.9230769 45.6153846,34.3359504 45.6153846,36.0781327 C45.6153846,37.0870449 45.1852156,37.8172492 44.704427,38.5855263 Z" id="Path" fill="#FFFFFF"></path>
            </g>
        </g>
    </g>
</svg>