<?xml version="1.0" encoding="UTF-8"?>
<svg width="58px" height="58px" viewBox="0 0 58 58" version="1.1" xmlns="http://www.w3.org/2000/svg" xmlns:xlink="http://www.w3.org/1999/xlink">
    <!-- Generator: Sketch 46.1 (44463) - http://www.bohemiancoding.com/sketch -->
    <title>friend02</title>
    <desc>Created with Sketch.</desc>
    <defs></defs>
    <g id="signup" stroke="none" stroke-width="1" fill="none" fill-rule="evenodd">
        <g id="icon" transform="translate(-30.000000, -660.000000)">
            <g id="friend02" transform="translate(30.000000, 660.000000)">
                <rect id="Rectangle-7-Copy" fill="#FF7819" x="0" y="0" width="58" height="58"></rect>
                <path d="M32.0014768,27.8422234 C34.2253943,26.2168233 35.6600688,23.6991007 35.6600688,20.8695005 C35.6600688,15.9786982 31.385895,12 26.1311735,12 C20.8766739,12 16.6025001,15.9784778 16.6025001,20.8695005 C16.6025001,23.6991007 18.0386726,26.2168233 20.2610921,27.8422234 C14.4047705,30.0206827 10.2499402,35.3462402 10.2499402,41.5651671 L10.2499402,44.5216673 C10.2499402,45.3387755 10.9602866,46 11.8381911,46 L40.4245442,46 C41.3023932,46 42.0125732,45.3387755 42.0125732,44.5216673 L42.0125732,41.5651671 C42.0127396,35.3446974 37.8591855,30.0206827 32.0014768,27.8422234 L32.0014768,27.8422234 Z M26.1313954,14.9565553 C29.634802,14.9565553 32.4838443,17.6085065 32.4838443,20.8695005 C32.4838443,24.1307701 29.634802,26.7827213 26.1313954,26.7827213 C22.6277668,26.7827213 19.7787245,24.130715 19.7787245,20.8695005 C19.7787245,17.6084513 22.6277114,14.9565553 26.1313954,14.9565553 L26.1313954,14.9565553 Z M38.8362933,43.0434998 L13.4262201,43.0434998 L13.4262201,41.5651671 C13.4262201,35.0444463 19.1258028,29.7391664 26.1328379,29.7391664 C33.1382086,29.7391664 38.8362933,35.0444463 38.8362933,41.5651671 L38.8362933,43.0434998 L38.8362933,43.0434998 Z M41.5303721,27.3081193 C42.8300014,25.9742641 43.5943881,24.2202008 43.5943881,22.3492108 C43.5943881,19.0101923 41.1781117,16.0738594 37.7181482,15.2091431 C36.8729785,14.9983226 36.0012326,15.4647063 35.7715892,16.252886 C35.5436658,17.0426084 36.0461736,17.8523881 36.8931187,18.0647514 C38.9681759,18.5828759 40.4181636,20.3456454 40.4181636,22.3493761 C40.4181636,24.0989211 39.3093951,25.6840416 37.5924796,26.3987702 C37.4003426,26.4767396 37.23112,26.5849049 37.0854776,26.726407 C37.0729385,26.7394662 37.0574588,26.7481172 37.0449752,26.7611764 C36.9457719,26.8636111 36.8744765,26.9820253 36.8077307,27.1105233 C36.7752733,27.172458 36.7396533,27.2303152 36.716295,27.2952805 C36.7054758,27.3284519 36.6790105,27.3545152 36.6699114,27.3890642 C36.6544317,27.4496764 36.6699114,27.5074784 36.6635309,27.5680907 C36.6466086,27.6821519 36.6389519,27.7932927 36.6512691,27.9103295 C36.6590922,27.9693438 36.67607,28.0228479 36.6915496,28.0791071 C36.7131879,28.1714581 36.7131879,28.2668397 36.756631,28.3563806 C36.9863298,28.8427112 37.4655348,29.14175 37.992677,29.2107929 C42.2297883,30.2041725 45.1826944,33.7119687 45.1826944,37.800375 L45.1826944,40.087165 C45.1826944,40.9041079 45.8930408,41.5653324 46.7709454,41.5653324 C47.6486279,41.5653324 48.3589744,40.9041079 48.3589744,40.087165 L48.3589744,37.800375 C48.3588635,33.2890054 45.6635086,29.3018215 41.5303721,27.3081193 L41.5303721,27.3081193 Z" id="Shape" fill="#FFFFFF" fill-rule="nonzero"></path>
            </g>
        </g>
    </g>
</svg>