<?xml version="1.0" encoding="UTF-8"?>
<svg width="32px" height="32px" viewBox="0 0 32 32" version="1.1" xmlns="http://www.w3.org/2000/svg" xmlns:xlink="http://www.w3.org/1999/xlink">
    <!-- Generator: Sketch 46.1 (44463) - http://www.bohemiancoding.com/sketch -->
    <title>grade</title>
    <desc>Created with Sketch.</desc>
    <defs></defs>
    <g id="signup" stroke="none" stroke-width="1" fill="none" fill-rule="evenodd">
        <g id="icon" transform="translate(-101.000000, -63.000000)">
            <g id="grade" transform="translate(104.000000, 66.000000)">
                <circle id="Oval-2" fill="#FF7819" cx="13" cy="13" r="13"></circle>
                <path d="M13,2 C6.92544643,2 2,6.92544643 2,13 C2,19.0745536 6.92544643,24 13,24 C19.0745536,24 24,19.0745536 24,13 C24,6.92544643 19.0745536,2 13,2 Z M19.7839513,8.91272279 C19.7686078,8.96581625 19.7430354,9.02143797 19.7097912,9.07453144 L12.8947266,19.8095238 L9.35805339,19.8095238 L8.22263551,9.90885727 C8.18171956,9.52203347 8.08454415,9.23381182 7.93366655,9.04672058 C7.78278895,8.85710107 7.55007943,8.73574458 7.23809524,8.68012286 L7.38641559,8.28571429 L10.6034329,8.28571429 C10.9486613,8.28571429 11.2043861,8.36661861 11.3731644,8.52842726 C11.5419427,8.6902359 11.6467899,8.95823147 11.6877058,9.32988571 L12.3167887,16.214338 L15.853462,9.61305084 C15.8867062,9.54731607 15.9148359,9.47399653 15.9404084,9.40067699 C15.9659809,9.32735745 15.9762098,9.26920746 15.9762098,9.2287553 C15.9762098,9.07200318 15.9148359,8.95064669 15.792088,8.85710107 C15.6693402,8.7660837 15.4877756,8.70793372 15.2499516,8.68012286 L15.3726994,8.28571429 L19.0346778,8.28571429 C19.2725018,8.28571429 19.4617382,8.32869471 19.5998295,8.41212729 C19.7404781,8.49808813 19.8095238,8.60680332 19.8095238,8.74332936 C19.8095238,8.80147935 19.7992948,8.85710107 19.7839513,8.91272279 L19.7839513,8.91272279 Z" id="Shape" fill="#FFFFFF" fill-rule="nonzero"></path>
            </g>
        </g>
    </g>
</svg>