<?xml version="1.0" encoding="UTF-8"?>
<svg width="32px" height="32px" viewBox="0 0 32 32" version="1.1" xmlns="http://www.w3.org/2000/svg" xmlns:xlink="http://www.w3.org/1999/xlink">
    <!-- Generator: Sketch 43 (38999) - http://www.bohemiancoding.com/sketch -->
    <title>activity</title>
    <desc>Created with Sketch.</desc>
    <defs></defs>
    <g id="Symbols" stroke="none" stroke-width="1" fill="none" fill-rule="evenodd">
        <g id="activity" fill="#AAAAAA">
            <path d="M15.2630482,6.14130091 C14.6797246,5.78801005 12.7713635,4.79065222 11.6368717,4.15873885 C10.6451478,3.60752146 10.3443832,4.79065222 10.2497868,5.60137603 C10.1551659,6.41384661 10.1551659,7.46503455 11.1946185,7.46503455 L15.0104797,7.46503455 C16.0503505,7.46503455 16.0503505,6.62392675 15.2630482,6.14130091 Z M21.9846037,5.58403131 C21.8900074,4.77328291 21.5892181,3.59017675 20.5975188,4.14136954 C19.4612557,4.77328291 17.5546167,5.77064074 16.9713178,6.12565376 C16.1822687,6.60655742 16.1822687,7.44766524 17.2239109,7.44766524 L21.0393538,7.44766524 C22.0792,7.44768983 22.0792,6.39650189 21.9846037,5.58403131 Z M4.00000747,10.2566228 L4.00000747,12.6384577 C3.99828531,13.5203809 4.29383427,13.9647992 5.47172471,13.9647992 L14.1728162,13.9647992 L14.1728162,9.05959172 L5.44872143,9.05959172 C4.25737346,9.05959172 4.00000747,9.45195123 4.00000747,10.2566228 Z M27.9999957,10.3581571 C27.9999957,9.55351006 27.6493619,9.05961634 26.4584076,9.05961634 L17.8819028,9.05961634 L17.8819028,13.9648238 L26.5265563,13.9648238 C27.7040039,13.9648238 28.0012997,13.5577521 27.9999957,12.6758042 C27.9965268,11.8720183 27.9978307,11.1619676 27.9999957,10.3581571 Z M4.99433919,25.1085181 C5.00604995,26.9444005 6.07763331,27.9921195 8.36659399,27.9921195 L14.1150743,27.9921195 L14.1150743,15.7798433 L4.99433919,15.7798433 C4.99433919,15.7798433 4.98129991,23.2735214 4.99433919,25.1085181 Z M17.8819028,15.7798433 L17.8819028,27.9921195 L23.4554845,27.9921195 C25.7431412,27.9921195 26.7730727,26.8428171 26.7860873,25.0078204 C26.7995449,23.1719626 26.7826184,15.7798433 26.7826184,15.7798433 L17.8819028,15.7798433 Z"></path>
        </g>
    </g>
</svg>