<?xml version="1.0" encoding="UTF-8"?>
<svg width="32px" height="32px" viewBox="0 0 32 32" version="1.1" xmlns="http://www.w3.org/2000/svg" xmlns:xlink="http://www.w3.org/1999/xlink">
    <!-- Generator: Sketch 43 (38999) - http://www.bohemiancoding.com/sketch -->
    <title>arrow_right</title>
    <desc>Created with Sketch.</desc>
    <defs></defs>
    <g id="Symbols" stroke="none" stroke-width="1" fill="none" fill-rule="evenodd">
        <g id="arrow_right" fill="#FF7819">
            <g transform="translate(5.000000, 4.000000)">
                <g id="进入">
                    <path d="M1.27966284,0.213411498 L12.528705,11.447128 C12.8168276,11.7352506 12.8168276,12.201151 12.528705,12.4893042 L1.25517241,23.7444766 C0.967049808,24.0325992 0.501149425,24.0325992 0.216091954,23.7444766 C-0.0720306513,23.456354 -0.0720306513,22.9904536 0.216091954,22.7053962 L10.4475096,12.4893042 C10.7356322,12.2011816 10.7356322,11.7352812 10.4475096,11.447128 L0.240582375,1.25555709 C-0.0475402299,0.967434487 -0.0475402299,0.501534104 0.240582375,0.216476632 C0.525639847,-0.0716459729 0.99154023,-0.0716459729 1.27966284,0.213411498 L1.27966284,0.213411498 Z" id="Shape"></path>
                </g>
                <g id="进入-copy" transform="translate(8.000000, 0.000000)">
                    <path d="M1.27966284,0.213411498 L12.528705,11.447128 C12.8168276,11.7352506 12.8168276,12.201151 12.528705,12.4893042 L1.25517241,23.7444766 C0.967049808,24.0325992 0.501149425,24.0325992 0.216091954,23.7444766 C-0.0720306513,23.456354 -0.0720306513,22.9904536 0.216091954,22.7053962 L10.4475096,12.4893042 C10.7356322,12.2011816 10.7356322,11.7352812 10.4475096,11.447128 L0.240582375,1.25555709 C-0.0475402299,0.967434487 -0.0475402299,0.501534104 0.240582375,0.216476632 C0.525639847,-0.0716459729 0.99154023,-0.0716459729 1.27966284,0.213411498 L1.27966284,0.213411498 Z" id="Shape"></path>
                </g>
            </g>
        </g>
    </g>
</svg>