<?xml version="1.0" encoding="UTF-8"?>
<svg width="200px" height="200px" viewBox="0 0 200 200" version="1.1" xmlns="http://www.w3.org/2000/svg" xmlns:xlink="http://www.w3.org/1999/xlink">
    <!-- Generator: Sketch 43 (38999) - http://www.bohemiancoding.com/sketch -->
    <title>defualt_pic</title>
    <desc>Created with Sketch.</desc>
    <defs></defs>
    <g id="nearby_shop-" stroke="none" stroke-width="1" fill="none" fill-rule="evenodd">
        <g id="01_汇邻优店" transform="translate(-30.000000, -1046.000000)" fill-rule="nonzero" fill="#F5F5F5">
            <g id="defualt_pic" transform="translate(30.000000, 1046.000000)">
                <path d="M40.375,61.8788674 C40.375,47.8154885 51.7625,36.464779 65.8125,36.464779 C79.8625,36.464779 91.25,47.84049 91.25,61.8663666 C91.25,75.9159881 79.8612433,87.3054566 65.8125,87.3054566 C51.7637567,87.3054566 40.375,75.9159881 40.375,61.8663666 L40.375,61.8788674 Z M200,16.3385212 L200,183.648978 C200,192.674542 192.675,200 183.65,200 L16.35,200 C7.32502364,200.000003 0.00689982902,192.687017 0,183.661479 L0,16.3510219 C0,7.32545784 7.325,0 16.35,0 L183.65,0 C192.674147,0.0137676993 199.986233,7.3263108 200,16.3510219 L200,16.3385212 Z M183.225,16.7760485 L16.8,16.7760485 L16.8,170.010626 L59.8,113.569598 C62.6402205,110.263711 67.5534159,109.717766 71.05,112.31952 L103.8625,141.496344 L168.525,56.6660416 C171.365221,53.3601544 176.278416,52.8142096 179.775,55.4159635 L183.225,58.4786549 L183.225,16.7885493 L183.225,16.7760485 Z" id="Shape"></path>
            </g>
        </g>
    </g>
</svg>