<?xml version="1.0" encoding="UTF-8"?>
<svg width="128px" height="128px" viewBox="0 0 128 128" version="1.1" xmlns="http://www.w3.org/2000/svg" xmlns:xlink="http://www.w3.org/1999/xlink">
    <!-- Generator: Sketch 46.1 (44463) - http://www.bohemiancoding.com/sketch -->
    <title>defualt_shop_icon</title>
    <desc>Created with Sketch.</desc>
    <defs></defs>
    <g id="Symbols" stroke="none" stroke-width="1" fill="none" fill-rule="evenodd" opacity="0.1">
        <g id="defualt_shop_icon" fill="#FF7819">
            <path d="M64.2678896,115.48227 C57.3477495,115.48227 50.6337686,114.12679 44.2065415,111.026519 C38.2060614,108.873938 32.7237504,105.179682 28.6032708,99.8871415 C23.3085537,95.7693993 19.6117822,90.2893622 17.4580774,84.2920136 C14.3561877,77.8687277 13,71.1582506 13,64.2411348 C13,57.3246059 14.3561877,50.6141289 17.4580774,44.1902559 C19.6123696,38.1929073 23.3085537,32.7134573 28.6032708,28.595128 C32.7237504,23.3031741 38.2060614,19.6089188 44.2065415,17.4557508 C50.6337686,14.3548929 57.3477495,13 64.2678896,13 C71.1880298,13 77.902598,14.35548 84.3292377,17.4557508 C90.3303052,19.6083318 95.8126162,23.302587 99.9325085,28.595128 C105.2284,32.7134573 108.924584,38.1934943 111.077702,44.1902559 C114.180179,50.6141289 115.535779,57.3246059 115.535779,64.2411348 C115.535779,71.1576636 114.179592,77.8687277 111.077702,84.2920136 C108.924584,90.2899493 105.2284,95.7693993 99.9325085,99.8871415 C95.8126162,105.179682 90.3297178,108.873938 84.3292377,111.026519 C77.902598,114.12679 71.1880298,115.48227 64.2678896,115.48227 L64.2678896,115.48227 Z M88.7873151,37.5066297 C80.7113295,44.8090051 72.3011381,48.0644205 66.4969283,48.6460068 C62.3880577,50.2628979 48.7201495,54.8638232 44.2065415,66.4690102 C37.1610761,89.6367358 48.5590829,104.342892 48.6646189,104.342892 C41.0194894,77.8041294 53.2102552,72.3183662 62.0388509,68.6968856 C63.3107477,66.8308646 64.6286198,66.085677 66.4969283,66.4690102 C65.8219497,65.391482 65.781234,65.4198756 66.4969283,66.4690102 C49.6721788,76.4707882 49.7979186,82.7156462 48.6646189,86.519889 C49.6422408,90.290948 50.794855,90.268349 53.1226962,88.7477644 C52.9491956,89.1998217 66.3231123,84.0970827 70.9550057,82.0641381 C70.8689028,81.3388453 70.8742916,81.3388453 70.9550057,82.0641381 C73.5256036,79.9614651 76.5511409,78.0405498 79.8711604,75.3805119 C91.2578987,63.5441583 88.5155751,37.5066297 88.7873151,37.5066297 L88.7873151,37.5066297 Z" id="Shape"></path>
        </g>
    </g>
</svg>