<?xml version="1.0" encoding="UTF-8"?>
<svg width="32px" height="32px" viewBox="0 0 32 32" version="1.1" xmlns="http://www.w3.org/2000/svg" xmlns:xlink="http://www.w3.org/1999/xlink">
    <!-- Generator: Sketch 46.1 (44463) - http://www.bohemiancoding.com/sketch -->
    <title>goods_13</title>
    <desc>Created with Sketch.</desc>
    <defs></defs>
    <g id="Symbols" stroke="none" stroke-width="1" fill="none" fill-rule="evenodd">
        <g id="goods_13" fill="#AAAAAA" fill-rule="nonzero">
            <path d="M22.4372787,15.9258934 C21.754912,15.9253882 21.1023803,15.6460937 20.6309541,15.1527563 L16.7559163,11.0735231 C15.8100185,10.0777454 15.8505458,8.49821812 16.8463235,7.55258005 L20.9206207,3.68273813 C21.3829556,3.24291386 21.9971198,2.99836484 22.6352392,3.00000823 C23.3176058,3.00051337 23.9701376,3.27980786 24.4415637,3.77314528 L28.3163417,7.8521187 C29.2622395,8.84763658 29.2214524,10.4271639 28.2259345,11.3730617 L24.1516373,15.2431635 C23.6894411,15.6830407 23.0753338,15.9276041 22.4372787,15.9258934 Z M22.6349794,4.29896161 C22.3299493,4.29778886 22.0362379,4.41439864 21.81508,4.62447933 L17.7407828,8.49432126 C17.2644822,8.94801306 17.2451923,9.70159787 17.6976575,10.1790638 L21.5724355,14.258297 C21.797197,14.4955293 22.1102274,14.629 22.4370189,14.62694 C22.7420489,14.6281127 23.0357604,14.511503 23.2569182,14.3014223 L27.3312154,10.4313205 C27.8073748,9.97756607 27.8266617,9.22409928 27.3743407,8.746578 L23.4995627,4.66760458 C23.2748377,4.43031992 22.9617834,4.29683913 22.6349794,4.29896161 L22.6349794,4.29896161 Z M11.8032669,4.05112131 C12.2927125,4.05112131 12.7112353,4.22076462 13.059095,4.55953166 C13.4069547,4.89829871 13.5807547,5.31214525 13.5807547,5.80107131 L13.5807547,12.854648 C13.5807547,13.3440936 13.4069547,13.7626164 13.059095,14.1104761 C12.7112353,14.4583358 12.2924527,14.6323956 11.8032669,14.6323956 L4.74969021,14.6323956 C4.26024457,14.6323956 3.84639803,14.4583358 3.50815056,14.1104761 C3.1699031,13.7626164 3.00051958,13.3438338 3,12.854648 L3,5.80081152 C3,5.31136588 3.16938352,4.89777912 3.50815056,4.55953166 C3.84691761,4.2212842 4.26076416,4.05164089 4.74969021,4.05112131 L11.8032669,4.05112131 L11.8032669,4.05112131 Z M11.8032669,18.1577551 C12.2927125,18.1577551 12.7112353,18.3273984 13.059095,18.6659056 C13.4069547,19.0049325 13.5807547,19.4185192 13.5807547,19.9074453 L13.5807547,26.9893391 C13.5807547,27.478525 13.4069547,27.8926313 13.059095,28.230619 C12.7112353,28.5686067 12.2924527,28.73825 11.8032669,28.7387695 L4.74969021,28.7387695 C4.26024457,28.7387695 3.84639803,28.569386 3.50815056,28.230619 C3.1699031,27.8915922 3.00051958,27.4780054 3,26.9893391 L3,19.9074453 C3,19.4179996 3.16938352,19.0041531 3.50815056,18.6659056 C3.84691761,18.327918 4.26076416,18.1582746 4.74969021,18.1577551 L11.8032669,18.1577551 L11.8032669,18.1577551 Z M25.9382178,18.1577551 C26.4274037,18.1577551 26.84151,18.3273984 27.1792379,18.6659056 C27.5177451,19.0049325 27.6871287,19.4185192 27.6876482,19.9074453 L27.6876482,26.9893391 C27.6876482,27.478525 27.5182647,27.8926313 27.1792379,28.230619 C26.8404708,28.5688664 26.4268841,28.73825 25.9382178,28.7387695 L18.8843814,28.7387695 C18.3949357,28.7387695 17.9764129,28.569386 17.6285532,28.230619 C17.2806935,27.8915922 17.1066338,27.4780054 17.1066338,26.9893391 L17.1066338,19.9074453 C17.1066338,19.4179996 17.2806935,19.0041531 17.6285532,18.6659056 C17.9764129,18.327918 18.3951955,18.1582746 18.8843814,18.1577551 L25.9382178,18.1577551 L25.9382178,18.1577551 Z"></path>
        </g>
    </g>
</svg>