<?xml version="1.0" encoding="UTF-8"?>
<svg width="96px" height="96px" viewBox="0 0 96 96" version="1.1" xmlns="http://www.w3.org/2000/svg" xmlns:xlink="http://www.w3.org/1999/xlink">
    <!-- Generator: Sketch 43 (38999) - http://www.bohemiancoding.com/sketch -->
    <title>head_comments</title>
    <desc>Created with Sketch.</desc>
    <defs></defs>
    <g id="nearby_shop-" stroke="none" stroke-width="1" fill="none" fill-rule="evenodd">
        <g id="04_店铺详情" transform="translate(-33.000000, -4161.000000)" fill-rule="nonzero" fill="#F5F5F5">
            <g id="head_comments" transform="translate(41.000000, 4169.000000)">
                <path d="M79.9994661,39.9992377 C79.9994661,17.9480991 62.0556141,0.0103501786 39.9991755,0.0103501786 C17.9428262,0.0103501786 0.000259107143,17.9480813 0.000259107143,39.9992377 C0.000259107143,51.4563269 4.85229089,61.7965305 12.6013762,69.093708 L12.5733417,69.1288806 L13.5838173,70.0174032 C13.7208316,70.1376074 13.8688205,70.2399309 14.0077621,70.3571193 C14.7182446,70.9671343 15.4450911,71.5573055 16.1989729,72.1164443 C16.4083309,72.2712679 16.6223644,72.4181683 16.8352022,72.5699761 C17.6417982,73.1435337 18.4625275,73.6975509 19.3096853,74.2120948 C19.4434161,74.2931292 19.5820721,74.3669184 19.7169984,74.4462218 C20.6141045,74.9755771 21.5305902,75.4753276 22.4707206,75.9348911 C22.5228817,75.9616587 22.5742219,75.9897111 22.6269183,76.0159254 C23.6377508,76.5052722 24.676368,76.945456 25.7312243,77.3495748 C25.8091357,77.3793582 25.8850486,77.4104086 25.9609613,77.440192 C26.9944571,77.8294995 28.0516867,78.1709644 29.1233708,78.4738662 C29.2237671,78.5019186 29.3225037,78.5316841 29.4230783,78.5595402 C30.4750258,78.8482016 31.5434978,79.09391 32.626228,79.2963442 C32.7499121,79.319739 32.8717758,79.3409212 32.9957275,79.3625671 C34.0658591,79.5521886 35.1489462,79.7054775 36.2466484,79.8078902 C36.3687799,79.819311 36.4907151,79.8256996 36.6113832,79.8359247 C37.7290004,79.9299146 38.85695,79.9893921 39.9991399,79.9893921 C41.1418829,79.9893921 42.2697433,79.9302001 43.387539,79.8359247 C43.5079396,79.8259672 43.6280546,79.8192931 43.7487227,79.8078902 C44.8481737,79.7054775 45.933081,79.5522064 47.0065853,79.3625671 C47.125344,79.3411888 47.244085,79.3210061 47.3642892,79.2981644 C48.4542287,79.0937315 49.5271799,78.8481838 50.5840526,78.5578984 C50.6764899,78.5332365 50.768838,78.5054696 50.8612039,78.4792553 C51.9426493,78.1739801 53.0079271,77.8276792 54.051184,77.435338 C54.1142127,77.4121395 54.1768845,77.3859251 54.2395385,77.3612632 C55.3109371,76.9520406 56.3629737,76.5052543 57.3865834,76.0075204 C57.4183833,75.9927268 57.4478812,75.9762915 57.4792171,75.9599276 C58.451879,75.4850174 59.3982196,74.9691886 60.3248412,74.4200966 C60.4383,74.3528565 60.5555777,74.2896494 60.6692149,74.2222486 C61.5383756,73.6964622 62.3775745,73.1309349 63.2016051,72.5419414 C63.3947063,72.4052841 63.5895563,72.2716426 63.7786424,72.1316125 C64.550512,71.559429 65.297095,70.95425 66.0242984,70.3277105 C66.1512659,70.2191948 66.2882801,70.1255619 66.4135166,70.014762 L67.4209764,69.1259538 L67.3942088,69.0949035 C75.1461673,61.8000817 79.9994661,51.4582542 79.9994661,39.9992377 L79.9994661,39.9992377 Z M4.02843875,39.904427 C4.02843875,20.0760135 20.1654621,3.94382607 39.9990863,3.94382607 C59.8326213,3.94382607 75.9697339,20.0745502 75.9697339,39.904427 C75.9697339,50.1840646 71.6257684,59.4640227 64.6842783,66.0239501 C62.1388255,63.5647246 58.2279414,62.0862984 53.6070922,60.8099138 C51.5170986,59.8880388 51.0509503,59.6620491 50.5237006,59.2418697 L49.9635625,58.6834626 C49.1198846,57.8640004 48.6549319,57.4130204 48.4908824,56.1921874 L48.4908824,51.9298808 C49.9731453,50.2059068 50.9120087,47.9106594 51.8320457,44.8845326 C53.0785577,44.4085339 54.3185741,42.8361892 54.7117362,41.0850729 C55.1303809,39.1953006 54.9315157,37.6100897 54.2118072,36.7284196 C56.2448038,29.0464852 55.9324978,22.4838096 53.3425573,19.05194 C51.9799454,17.2452007 49.9981998,16.2880818 47.6106757,16.2867077 C47.3907177,16.106669 47.2462978,15.9097312 47.0644211,15.6626308 C46.1321424,14.3879771 45.1385661,13.4838402 40.8217251,13.4838402 L40.3586997,13.4864813 C35.1728764,13.4864813 31.2410779,15.0481367 28.6734259,18.1314391 C25.380123,22.0789591 24.4471128,28.3761896 25.8910266,36.8571181 C25.2706079,37.7433565 25.0806118,39.22901 25.4139215,40.9909047 C25.7269593,42.636771 26.7665758,44.1280991 27.9333384,44.7412192 C29.0681226,48.0424631 30.2508743,50.3360688 31.6085609,51.8740796 C31.6864723,54.3746699 31.7123298,55.9313109 31.6135039,56.4658592 C31.4689947,57.241387 31.0516349,57.9541715 30.2970215,58.7074109 C29.5901793,59.4136999 28.6462122,59.9312597 26.6872904,60.7111773 C21.8578147,62.0420964 17.8862753,63.5377073 15.3168031,66.019025 C8.37249348,59.4630947 4.02843875,50.1840645 4.02843875,39.904427 L4.02843875,39.904427 Z" id="Shape"></path>
            </g>
        </g>
    </g>
</svg>