<?xml version="1.0" encoding="UTF-8"?>
<svg width="48px" height="48px" viewBox="0 0 48 48" version="1.1" xmlns="http://www.w3.org/2000/svg" xmlns:xlink="http://www.w3.org/1999/xlink">
    <!-- Generator: Sketch 43 (38999) - http://www.bohemiancoding.com/sketch -->
    <title>like_unselect</title>
    <desc>Created with Sketch.</desc>
    <defs>
        <path d="M1.25790757,21.3830613 C0.563459727,21.3830613 0,20.8214535 0,20.129373 L0,9.53368829 C0,8.84150272 0.563459727,8.28 1.25790757,8.28 C1.95238177,8.28 2.51576245,8.84150272 2.51576245,9.53368829 L2.51576245,20.1293993 C2.51573607,20.8214535 1.95235542,21.3830613 1.25790757,21.3830613 Z" id="path-1"></path>
        <filter x="-9.9%" y="-1.9%" width="119.9%" height="103.8%" filterUnits="objectBoundingBox" id="filter-2">
            <feOffset dx="0" dy="-0.5" in="SourceAlpha" result="shadowOffsetInner1"></feOffset>
            <feComposite in="shadowOffsetInner1" in2="SourceAlpha" operator="arithmetic" k2="-1" k3="1" result="shadowInnerInner1"></feComposite>
            <feColorMatrix values="0 0 0 0 0.709803922   0 0 0 0 0.709803922   0 0 0 0 0.709803922  0 0 0 1 0" type="matrix" in="shadowInnerInner1"></feColorMatrix>
        </filter>
        <path d="M16.3925252,3.68262888 C16.3925252,2.42642586 15.3623623,1.4 14.0967892,1.4 C12.8416781,1.4 11.8039116,2.41671288 11.8059006,3.58555075 L11.8019782,3.69268468 C11.6500509,5.71749406 10.5847516,7.23433631 8.95074839,8.24984792 C7.9726844,8.85770188 6.94077882,9.20923584 6.01538462,9.38765629 L6.01538462,19.830009 C6.01538462,19.7562119 5.96293583,19.6949695 5.8949333,19.6842009 L16.2155247,21.299717 C16.3972336,21.3173683 16.5752631,21.3258353 16.7508403,21.3258353 C17.7010905,21.3258353 18.430295,21.0529573 18.9785294,20.5853437 C19.3765315,20.2458699 19.6472587,19.8174859 19.7182667,19.5422818 L19.7563637,19.4185796 L21.4013004,14.8414001 C22.1054842,12.9195883 22.0729356,11.5373066 21.4401992,10.6356677 C21.1018848,10.1532869 20.6156866,9.82954283 20.0136446,9.63564064 C19.5896736,9.49909053 19.1812236,9.44756659 18.8759314,9.44756659 L14.6946403,9.44756659 L15.5830892,7.47309106 C15.9944789,6.55882461 16.2354647,5.65381113 16.3424935,4.80331202 C16.3794496,4.50964201 16.3971543,4.24585778 16.4003348,4.01968848 C16.4012484,3.95472421 16.4008566,3.89813642 16.3995841,3.85148857 L16.3925252,3.68262888 Z M17.2060193,7.18301602 C17.1075037,7.46253532 16.9929469,7.75165188 16.859795,8.04756659 L17.7650421,8.04756659 L18.8759314,8.04756659 C19.2977025,8.04756659 21.3957526,8.13411934 22.5864003,9.83178774 C23.5200003,11.1621521 23.5633818,13.0099941 22.7158334,15.3230669 L21.0738697,19.8920537 C20.8388554,20.8028933 19.5850593,22.7258353 16.7508403,22.7258353 C16.5386764,22.7258353 16.3151533,22.7159848 16.0801653,22.693158 L5.67825958,21.0673323 C5.06662152,20.9726891 4.61538462,20.4470158 4.61538462,19.830009 L4.61538462,9.30125488 C4.61538462,8.694046 5.05180959,8.13905772 5.65214104,8.03122797 C6.39982752,7.89734045 10.1455077,7.05834358 10.4059026,3.5879331 C10.4026081,1.65193601 12.0600953,0 14.0967892,0 C16.1342737,0 17.7925252,1.65193598 17.7925252,3.68262888 C17.7964659,3.70339471 17.8847931,4.93943242 17.3794765,6.64756659 L17.2060193,7.18301602 Z" id="path-3"></path>
        <filter x="-1.3%" y="-1.1%" width="102.7%" height="102.2%" filterUnits="objectBoundingBox" id="filter-4">
            <feOffset dx="0" dy="-0.5" in="SourceAlpha" result="shadowOffsetInner1"></feOffset>
            <feComposite in="shadowOffsetInner1" in2="SourceAlpha" operator="arithmetic" k2="-1" k3="1" result="shadowInnerInner1"></feComposite>
            <feColorMatrix values="0 0 0 0 0.709803922   0 0 0 0 0.709803922   0 0 0 0 0.709803922  0 0 0 1 0" type="matrix" in="shadowInnerInner1"></feColorMatrix>
        </filter>
    </defs>
    <g id="Symbols" stroke="none" stroke-width="1" fill="none" fill-rule="evenodd">
        <g id="like_unselect">
            <g transform="translate(12.000000, 13.000000)" id="Shape">
                <g>
                    <use fill="#C9C9CE" fill-rule="evenodd" xlink:href="#path-1"></use>
                    <use fill="black" fill-opacity="1" filter="url(#filter-2)" xlink:href="#path-1"></use>
                </g>
                <g fill-rule="nonzero">
                    <use fill="#C9C9CE" fill-rule="evenodd" xlink:href="#path-3"></use>
                    <use fill="black" fill-opacity="1" filter="url(#filter-4)" xlink:href="#path-3"></use>
                </g>
            </g>
        </g>
    </g>
</svg>