<?xml version="1.0" encoding="UTF-8"?>
<svg width="64px" height="64px" viewBox="0 0 64 64" version="1.1" xmlns="http://www.w3.org/2000/svg" xmlns:xlink="http://www.w3.org/1999/xlink">
    <!-- Generator: Sketch 46.1 (44463) - http://www.bohemiancoding.com/sketch -->
    <title>purchase</title>
    <desc>Created with Sketch.</desc>
    <defs></defs>
    <g id="Symbols" stroke="none" stroke-width="1" fill="none" fill-rule="evenodd">
        <g id="purchase" fill-rule="nonzero" fill="#FFFFFF">
            <path d="M52.6165898,19.8074976 C48.3373293,12.5502374 40.5439392,8 31.9619577,8 C18.7274356,8 8,18.7282598 8,31.9611885 C8,45.1948864 18.7274357,55.9231462 31.9619577,55.9231462 C45.1957655,55.9231462 55.9231462,45.1948864 55.9231462,31.9611885 C55.9231462,31.1345219 55.2535056,30.4641671 54.4254105,30.4641671 C53.5979748,30.4641671 52.9276199,31.1345219 52.9276199,31.9611885 C52.9276199,43.540894 43.5409489,52.9276199 31.9619028,52.9276199 C20.3821423,52.9276199 10.9955263,43.540839 10.9955263,31.9611885 C10.9955263,20.3822522 20.3821973,10.9954714 31.9619028,10.9954714 C39.4726132,10.9954714 46.2895082,14.9760638 50.0358253,21.3285838 C50.456411,22.0413544 51.3743922,22.2779373 52.0863936,21.8580658 C52.7991641,21.4381944 53.0364613,20.5202681 52.6165898,19.8074976 Z M30.4642221,29.7149146 L30.4642221,31.9611885 L24.259113,31.9611885 C23.4325014,31.9611885 22.7613773,32.6323125 22.7613773,33.4589242 C22.7613773,34.2863599 23.4325014,34.9567698 24.259113,34.9567698 L30.464222,34.9567698 L30.464222,37.9522961 L24.259113,37.9522961 C23.4325014,37.9522961 22.7613773,38.6226509 22.7613773,39.4493175 C22.7613773,40.2766983 23.4325014,40.9470532 24.259113,40.9470532 L30.464222,40.9470532 L30.464222,46.9372816 C30.464222,47.7646624 31.1338626,48.4350173 31.9619577,48.4350173 C32.7893934,48.4350173 33.4589791,47.7646624 33.4589791,46.9372816 L33.4589791,40.9470532 L39.9926999,40.9470532 C40.8200808,40.9470532 41.4904356,40.2766983 41.4904356,39.4493175 C41.4904356,38.6226509 40.8200808,37.9522961 39.9926999,37.9522961 L33.4589791,37.9522961 L33.4589791,34.9567698 L39.9926999,34.9567698 C40.8200808,34.9567698 41.4904356,34.28636 41.4904356,33.4589242 C41.4904356,32.6323125 40.8200808,31.9611885 39.9926999,31.9611885 L33.4589791,31.9611885 L33.4589791,29.7149146 C33.4589791,29.5805799 33.4414524,29.4498165 33.4086517,29.3264154 C33.9315406,29.1285121 34.4214638,28.8196248 34.8420496,28.3989841 L41.2566548,21.9836646 C41.8415739,21.3987455 41.8415739,20.4508755 41.2566548,19.8659015 C40.6731642,19.2809824 39.7254041,19.2809824 39.140485,19.8659015 L32.7243414,26.281221 C32.3059534,26.6989497 31.6158192,26.6982354 31.1988597,26.281221 L24.7827711,19.8659565 C24.197852,19.2810374 23.2500369,19.2810374 22.6664914,19.8659565 C22.0815723,20.4508755 22.0815723,21.3987455 22.6664914,21.9837195 L29.0810966,28.399039 C29.501023,28.8189654 29.9916606,29.1278528 30.5152637,29.3257011 C30.4817487,29.4498165 30.4642221,29.58058 30.4642221,29.7149146 Z" id="Shape"></path>
        </g>
    </g>
</svg>